<svg width="87" height="88" viewBox="0 0 87 88" fill="none" xmlns="http://www.w3.org/2000/svg">
<path d="M81.8453 0.875H5.15469C3.88994 0.884404 2.67967 1.391 1.78533 2.28533C0.890996 3.17967 0.384404 4.38994 0.375 5.65469V82.3453C0.384404 83.6101 0.890996 84.8203 1.78533 85.7147C2.67967 86.609 3.88994 87.1156 5.15469 87.125H46.4469V53.775H35.2344V40.7297H46.4469V31.1344C46.4469 19.9938 53.2391 13.9203 63.2297 13.9203C66.5719 13.9203 69.9141 13.9203 73.2563 14.4234V26.0312H66.3922C60.9656 26.0312 59.9234 28.6188 59.9234 32.3922V40.6937H72.8609L71.1719 53.7391H59.9234V87.125H81.8453C83.1101 87.1156 84.3203 86.609 85.2147 85.7147C86.109 84.8203 86.6156 83.6101 86.625 82.3453V5.65469C86.6156 4.38994 86.109 3.17967 85.2147 2.28533C84.3203 1.391 83.1101 0.884404 81.8453 0.875V0.875Z" fill="#51A8BC"/>
</svg>
