<svg width="91" height="90" viewBox="0 0 91 90" fill="none" xmlns="http://www.w3.org/2000/svg">
<path d="M86.8281 0.078125H4.17188C2.18408 0.078125 0.578125 1.68408 0.578125 3.67188V86.3281C0.578125 88.3159 2.18408 89.9219 4.17188 89.9219H86.8281C88.8159 89.9219 90.4219 88.3159 90.4219 86.3281V3.67188C90.4219 1.68408 88.8159 0.078125 86.8281 0.078125ZM64.2549 65.8437C59.6953 70.0439 53.4736 72.5146 46.0503 72.5146C35.3027 72.5146 26.0039 66.3491 21.478 57.3647C19.5496 53.5283 18.5458 49.2938 18.5469 45C18.5469 40.5527 19.6138 36.3525 21.478 32.6353C26.0039 23.6396 35.3027 17.4741 46.0503 17.4741C53.4624 17.4741 59.6841 20.2031 64.457 24.6392L56.5732 32.5342C53.7207 29.8052 50.0933 28.4238 46.0615 28.4238C38.8965 28.4238 32.832 33.2642 30.6646 39.7666C30.1143 41.4175 29.7998 43.1807 29.7998 45C29.7998 46.8193 30.1143 48.5825 30.6646 50.2334C32.832 56.7358 38.8965 61.5762 46.0503 61.5762C49.7564 61.5762 52.9009 60.5991 55.3604 58.9482C58.2803 56.9941 60.2119 54.0855 60.8521 50.6377H46.0503V39.9912H71.959C72.2847 41.7993 72.4531 43.6748 72.4531 45.6177C72.4531 54.0068 69.4546 61.0483 64.2549 65.8437V65.8437Z" fill="#F9B471"/>
</svg>
