<svg width="468" height="117" viewBox="0 0 468 117" fill="none" xmlns="http://www.w3.org/2000/svg">
<g clip-path="url(#clip0_39_1009)">
<path d="M84.428 29.8331C84.428 12.6153 67.0659 0.580475 42.2141 0.580475C17.3622 0.580475 -0.0102539 12.6153 -0.0102539 29.8331C-0.0102539 45.8277 14.9485 57.3235 36.9723 58.8576V65.2534H16.3367C14.9881 65.3134 13.7147 65.8917 12.7816 66.8678C11.8486 67.8439 11.3278 69.1426 11.3278 70.4933C11.3278 71.8441 11.8486 73.1428 12.7816 74.1189C13.7147 75.095 14.9881 75.6733 16.3367 75.7333H36.9827V83.684H16.3367C14.9492 83.684 13.6186 84.2355 12.6375 85.2172C11.6564 86.1989 11.1052 87.5304 11.1052 88.9188C11.1052 90.3071 11.6564 91.6386 12.6375 92.6203C13.6186 93.602 14.9492 94.1535 16.3367 94.1535H68.1329C69.5204 94.1535 70.851 93.602 71.8321 92.6203C72.8132 91.6386 73.3644 90.3071 73.3644 88.9188C73.3644 87.5304 72.8132 86.1989 71.8321 85.2172C70.851 84.2355 69.5204 83.684 68.1329 83.684H47.4559V75.7229H68.1018C69.4504 75.6629 70.7238 75.0846 71.6568 74.1085C72.5899 73.1324 73.1107 71.8337 73.1107 70.483C73.1107 69.1322 72.5899 67.8335 71.6568 66.8574C70.7238 65.8813 69.4504 65.303 68.1018 65.243H47.4559V58.8991C69.4796 57.3235 84.428 45.8277 84.428 29.8331ZM73.9548 29.8331C73.9548 39.66 63.088 47.0405 47.4455 48.388V11.2781C63.0983 12.636 73.9652 20.0166 73.9652 29.8331H73.9548ZM10.4629 29.8331C10.4629 20.0166 21.3298 12.636 36.9723 11.2781V48.388C21.3402 47.0405 10.4733 39.66 10.4733 29.8331H10.4629Z" fill="#F9B471"/>
<path d="M126.248 52.5344C127.597 52.4744 128.87 51.8961 129.803 50.92C130.736 49.9439 131.257 48.6452 131.257 47.2944C131.257 45.9437 130.736 44.645 129.803 43.6689C128.87 42.6928 127.597 42.1145 126.248 42.0545H105.146V23.3959C105.086 22.0464 104.508 20.7722 103.533 19.8386C102.557 18.9049 101.26 18.3838 99.9098 18.3838C98.5599 18.3838 97.262 18.9049 96.2865 19.8386C95.3111 20.7722 94.7332 22.0464 94.6732 23.3959V66.5284C88.7093 69.1337 83.923 73.8596 81.2398 79.7919C78.5567 85.7242 78.1675 92.4414 80.1474 98.6443C82.1274 104.847 86.3359 110.095 91.9588 113.372C97.5818 116.65 104.22 117.724 110.589 116.388C116.957 115.052 122.605 111.399 126.438 106.138C130.272 100.876 132.019 94.3785 131.342 87.9022C130.665 81.426 127.612 75.4311 122.773 71.0771C117.934 66.7231 111.654 64.3193 105.146 64.3308V52.5344H126.248ZM121.069 90.6706C121.069 93.8074 120.139 96.8737 118.397 99.4818C116.656 102.09 114.18 104.123 111.284 105.323C108.388 106.524 105.201 106.838 102.127 106.226C99.0522 105.614 96.2281 104.103 94.0115 101.885C91.7949 99.6672 90.2853 96.8412 89.6737 93.7647C89.0622 90.6882 89.3761 87.4993 90.5757 84.6013C91.7753 81.7033 93.8068 79.2263 96.4133 77.4836C99.0197 75.7409 102.084 74.8107 105.219 74.8107C109.413 74.8272 113.429 76.5051 116.39 79.4773C119.35 82.4495 121.014 86.4741 121.017 90.6706H121.069Z" fill="#F9B471"/>
<path d="M26.1571 23.3855C24.8827 23.3855 23.6369 23.7636 22.5773 24.4721C21.5177 25.1806 20.6918 26.1875 20.2041 27.3657C19.7164 28.5438 19.5888 29.8402 19.8374 31.0909C20.0861 32.3416 20.6997 33.4905 21.6009 34.3922C22.502 35.2939 23.6501 35.908 24.9 36.1568C26.1499 36.4056 27.4455 36.2779 28.6229 35.7899C29.8003 35.3019 30.8066 34.4755 31.5146 33.4152C32.2226 32.3549 32.6005 31.1083 32.6005 29.8331C32.5977 28.1239 31.918 26.4855 30.7102 25.277C29.5024 24.0684 27.8651 23.3882 26.1571 23.3855Z" fill="#F9B471"/>
<path d="M58.2811 36.2807C61.8397 36.2807 64.7246 33.394 64.7246 29.8331C64.7246 26.2722 61.8397 23.3855 58.2811 23.3855C54.7225 23.3855 51.8376 26.2722 51.8376 29.8331C51.8376 33.394 54.7225 36.2807 58.2811 36.2807Z" fill="#F9B471"/>
<path d="M11.6749 101.213C10.4005 101.213 9.15472 101.591 8.0951 102.299C7.03548 103.008 6.20966 104.015 5.72197 105.193C5.23428 106.371 5.10662 107.667 5.35524 108.918C5.60387 110.169 6.2176 111.318 7.11873 112.219C8.01987 113.121 9.16793 113.735 10.4178 113.984C11.6677 114.233 12.9633 114.105 14.1407 113.617C15.3181 113.129 16.3244 112.303 17.0324 111.242C17.7404 110.182 18.1184 108.936 18.1184 107.66C18.1156 105.951 17.4359 104.313 16.2281 103.104C15.0203 101.896 13.383 101.215 11.6749 101.213Z" fill="#F9B471"/>
<path d="M28.4671 114.108C32.0258 114.108 34.9106 111.221 34.9106 107.66C34.9106 104.099 32.0258 101.213 28.4671 101.213C24.9085 101.213 22.0237 104.099 22.0237 107.66C22.0237 111.221 24.9085 114.108 28.4671 114.108Z" fill="#F9B471"/>
<path d="M45.2596 114.108C48.8182 114.108 51.7031 111.221 51.7031 107.66C51.7031 104.099 48.8182 101.213 45.2596 101.213C41.701 101.213 38.8162 104.099 38.8162 107.66C38.8162 111.221 41.701 114.108 45.2596 114.108Z" fill="#F9B471"/>
<path d="M62.0416 114.108C65.6002 114.108 68.4851 111.221 68.4851 107.66C68.4851 104.099 65.6002 101.213 62.0416 101.213C58.483 101.213 55.5981 104.099 55.5981 107.66C55.5981 111.221 58.483 114.108 62.0416 114.108Z" fill="#F9B471"/>
<path d="M221.44 29.8331C221.44 12.6153 204.077 0.580475 179.215 0.580475C154.353 0.580475 137.001 12.6153 137.001 29.8331C137.001 45.8277 151.96 57.3235 173.984 58.8576V65.2534H153.338C152.631 65.2219 151.924 65.3341 151.261 65.5833C150.599 65.8324 149.993 66.2132 149.482 66.7029C148.97 67.1926 148.563 67.7809 148.285 68.4324C148.006 69.0838 147.863 69.7849 147.863 70.4933C147.863 71.2018 148.006 71.9029 148.285 72.5543C148.563 73.2058 148.97 73.7941 149.482 74.2838C149.993 74.7734 150.599 75.1544 151.261 75.4035C151.924 75.6526 152.631 75.7648 153.338 75.7333H173.984V83.684H153.338C151.95 83.684 150.62 84.2355 149.639 85.2172C148.657 86.1989 148.106 87.5304 148.106 88.9188C148.106 90.3071 148.657 91.6386 149.639 92.6203C150.62 93.602 151.95 94.1535 153.338 94.1535H205.134C206.522 94.1535 207.852 93.602 208.833 92.6203C209.814 91.6386 210.365 90.3071 210.365 88.9188C210.365 87.5304 209.814 86.1989 208.833 85.2172C207.852 84.2355 206.522 83.684 205.134 83.684H184.447V75.7229H205.093C205.8 75.7544 206.506 75.6422 207.169 75.3931C207.832 75.144 208.437 74.7631 208.949 74.2734C209.46 73.7837 209.868 73.1954 210.146 72.5439C210.424 71.8925 210.567 71.1914 210.567 70.483C210.567 69.7745 210.424 69.0734 210.146 68.422C209.868 67.7705 209.46 67.1822 208.949 66.6926C208.437 66.2029 207.832 65.822 207.169 65.5729C206.506 65.3238 205.8 65.2115 205.093 65.243H184.447V58.8991C206.47 57.3235 221.44 45.8277 221.44 29.8331ZM210.966 29.8331C210.966 39.66 200.089 47.0405 184.447 48.388V11.2781C200.089 12.636 210.966 20.0166 210.966 29.8331ZM147.464 29.8331C147.464 20.0166 158.341 12.636 173.984 11.2781V48.388C158.341 47.0405 147.464 39.66 147.464 29.8331Z" fill="#F9B471"/>
<path d="M263.249 52.5344C264.598 52.4744 265.871 51.8961 266.804 50.92C267.737 49.9439 268.258 48.6452 268.258 47.2944C268.258 45.9437 267.737 44.645 266.804 43.6689C265.871 42.6928 264.598 42.1145 263.249 42.0545H242.158V23.3958C242.158 22.0075 241.607 20.676 240.626 19.6943C239.644 18.7126 238.314 18.1611 236.926 18.1611C235.539 18.1611 234.208 18.7126 233.227 19.6943C232.246 20.676 231.695 22.0075 231.695 23.3958V66.5284C225.728 69.128 220.937 73.8497 218.248 79.78C215.559 85.7103 215.164 92.4278 217.139 98.6329C219.113 104.838 223.318 110.09 228.938 113.372C234.559 116.654 241.197 117.734 247.567 116.403C253.938 115.071 259.588 111.422 263.426 106.163C267.263 100.903 269.015 94.4063 268.342 87.9291C267.668 81.4519 264.619 75.4547 259.782 71.0976C254.945 66.7404 248.666 64.333 242.158 64.3412V52.5344H263.249ZM258.007 90.6706C258.007 93.8074 257.078 96.8737 255.336 99.4818C253.595 102.09 251.119 104.123 248.223 105.323C245.327 106.524 242.14 106.838 239.066 106.226C235.991 105.614 233.167 104.103 230.95 101.885C228.734 99.6672 227.224 96.8412 226.613 93.7647C226.001 90.6882 226.315 87.4993 227.515 84.6013C228.714 81.7033 230.746 79.2263 233.352 77.4836C235.959 75.7409 239.023 74.8107 242.158 74.8107C246.361 74.8135 250.39 76.4853 253.362 79.459C256.334 82.4327 258.005 86.4652 258.007 90.6706Z" fill="#F9B471"/>
<path d="M163.158 23.3855C161.884 23.3855 160.638 23.7636 159.579 24.4721C158.519 25.1806 157.693 26.1875 157.205 27.3657C156.718 28.5438 156.59 29.8402 156.839 31.0909C157.087 32.3416 157.701 33.4905 158.602 34.3922C159.503 35.2939 160.651 35.908 161.901 36.1568C163.151 36.4056 164.447 36.2779 165.624 35.7899C166.801 35.3019 167.808 34.4755 168.516 33.4152C169.224 32.3549 169.602 31.1083 169.602 29.8331C169.602 28.1231 168.923 26.4831 167.714 25.2739C166.506 24.0648 164.867 23.3855 163.158 23.3855Z" fill="#F9B471"/>
<path d="M195.272 36.2807C196.546 36.2807 197.792 35.9026 198.852 35.1941C199.911 34.4856 200.737 33.4786 201.225 32.3005C201.713 31.1223 201.84 29.8259 201.592 28.5752C201.343 27.3245 200.729 26.1757 199.828 25.274C198.927 24.3722 197.779 23.7582 196.529 23.5094C195.279 23.2606 193.984 23.3883 192.806 23.8763C191.629 24.3643 190.623 25.1907 189.914 26.251C189.206 27.3113 188.829 28.5579 188.829 29.8331C188.827 30.6802 188.993 31.5192 189.316 32.3021C189.64 33.085 190.114 33.7963 190.713 34.3953C191.311 34.9943 192.022 35.4691 192.805 35.7927C193.587 36.1162 194.425 36.282 195.272 36.2807Z" fill="#F9B471"/>
<path d="M148.655 101.213C147.381 101.213 146.135 101.591 145.076 102.299C144.016 103.008 143.19 104.015 142.702 105.193C142.215 106.371 142.087 107.667 142.336 108.918C142.584 110.169 143.198 111.318 144.099 112.219C145 113.121 146.148 113.735 147.398 113.984C148.648 114.233 149.944 114.105 151.121 113.617C152.299 113.129 153.305 112.303 154.013 111.242C154.721 110.182 155.099 108.936 155.099 107.66C155.099 105.95 154.42 104.31 153.212 103.101C152.003 101.892 150.364 101.213 148.655 101.213Z" fill="#F9B471"/>
<path d="M165.468 114.108C169.027 114.108 171.912 111.221 171.912 107.66C171.912 104.099 169.027 101.213 165.468 101.213C161.91 101.213 159.025 104.099 159.025 107.66C159.025 111.221 161.91 114.108 165.468 114.108Z" fill="#F9B471"/>
<path d="M182.25 114.108C185.809 114.108 188.694 111.221 188.694 107.66C188.694 104.099 185.809 101.213 182.25 101.213C178.692 101.213 175.807 104.099 175.807 107.66C175.807 111.221 178.692 114.108 182.25 114.108Z" fill="#F9B471"/>
<path d="M199.043 114.108C202.601 114.108 205.486 111.221 205.486 107.66C205.486 104.099 202.601 101.213 199.043 101.213C195.484 101.213 192.599 104.099 192.599 107.66C192.599 111.221 195.484 114.108 199.043 114.108Z" fill="#F9B471"/>
<path d="M289.323 27.563C289.928 27.8947 290.594 28.1022 291.28 28.1732C291.966 28.2442 292.66 28.1773 293.32 27.9765C293.98 27.7756 294.593 27.4449 295.124 27.0036C295.654 26.5623 296.091 26.0195 296.409 25.4068L300.553 17.6635H331.631C333.018 17.6635 334.349 17.112 335.33 16.1303C336.311 15.1486 336.862 13.8171 336.862 12.4287C336.862 11.0404 336.311 9.7089 335.33 8.72718C334.349 7.74547 333.018 7.19393 331.631 7.19393H306.116C306.406 6.57319 306.57 5.90143 306.601 5.21698C306.631 4.53254 306.526 3.84881 306.292 3.20486C306.059 2.5609 305.701 1.96932 305.238 1.4639C304.776 0.958472 304.219 0.54909 303.598 0.259139C302.346 -0.326442 300.912 -0.390021 299.612 0.0823672C298.312 0.554756 297.253 1.52444 296.668 2.77808L287.21 20.4727C286.554 21.694 286.409 23.1256 286.805 24.4542C287.201 25.7829 288.106 26.9006 289.323 27.563Z" fill="#F9B471"/>
<path d="M359.559 26.8166C359.557 28.0948 359.934 29.3447 360.643 30.4083C361.351 31.4719 362.359 32.3013 363.539 32.7913C364.718 33.2814 366.017 33.4102 367.27 33.1613C368.523 32.9125 369.673 32.2972 370.577 31.3934C371.48 30.4896 372.095 29.338 372.344 28.0843C372.592 26.8306 372.464 25.5313 371.974 24.3508C371.484 23.1704 370.655 22.1619 369.592 21.4531C368.529 20.7442 367.28 20.367 366.003 20.369C364.294 20.369 362.655 21.0483 361.447 22.2575C360.238 23.4666 359.559 25.1066 359.559 26.8166Z" fill="#F9B471"/>
<path d="M341.741 27.563C342.346 27.8947 343.012 28.1022 343.698 28.1732C344.384 28.2442 345.077 28.1773 345.737 27.9765C346.398 27.7756 347.011 27.4449 347.541 27.0036C348.072 26.5623 348.509 26.0195 348.827 25.4068L352.971 17.6635H384.049C385.436 17.6635 386.767 17.112 387.748 16.1303C388.729 15.1486 389.28 13.8171 389.28 12.4287C389.28 11.0404 388.729 9.70889 387.748 8.72718C386.767 7.74547 385.436 7.19393 384.049 7.19393H358.472C359.057 5.94029 359.12 4.50538 358.648 3.20486C358.176 1.90433 357.207 0.844721 355.954 0.259139C354.701 -0.326442 353.267 -0.390021 351.968 0.0823671C350.668 0.554755 349.609 1.52444 349.024 2.77808L339.576 20.4727C339.252 21.0802 339.051 21.7459 338.985 22.4314C338.918 23.1169 338.987 23.8088 339.188 24.4674C339.389 25.1261 339.718 25.7386 340.156 26.2698C340.595 26.801 341.133 27.2404 341.741 27.563Z" fill="#F9B471"/>
<path d="M319.536 29.2849C320.897 25.9951 319.336 22.2233 316.048 20.8606C312.761 19.4979 308.991 21.0603 307.63 24.3501C306.268 27.64 307.829 31.4116 311.117 32.7743C314.405 34.137 318.174 32.5748 319.536 29.2849Z" fill="#F9B471"/>
<path d="M393.196 46.3771L339.328 31.7612C338.433 31.5124 337.488 31.5124 336.593 31.7612L282.725 46.3771C282.035 46.5325 281.383 46.826 280.81 47.2399C280.236 47.6539 279.752 48.1797 279.387 48.7858C279.022 49.3918 278.783 50.0655 278.685 50.7663C278.587 51.4671 278.631 52.1806 278.816 52.8637C279.001 53.5469 279.321 54.1856 279.759 54.7413C280.197 55.2971 280.743 55.7584 281.363 56.0976C281.984 56.4368 282.667 56.6468 283.371 56.7149C284.075 56.7831 284.785 56.708 285.46 56.4942L337.991 42.2411L390.523 56.4942C390.97 56.6081 391.429 56.6673 391.891 56.6704C393.162 56.6757 394.392 56.2172 395.351 55.3807C396.309 54.5442 396.93 53.387 397.098 52.1255C397.266 50.864 396.968 49.5846 396.261 48.5266C395.555 47.4686 394.487 46.7044 393.258 46.3771H393.196Z" fill="#F9B471"/>
<path d="M334.086 107.163L322.825 100.653C330.377 97.5432 335.163 91.5103 335.163 84.0675C335.163 73.1419 324.804 65.2119 310.415 65.2119C296.026 65.2119 285.656 73.1419 285.656 84.0675C285.656 91.4792 290.442 97.5432 297.994 100.653L286.744 107.163C286.149 107.506 285.627 107.964 285.209 108.51C284.79 109.055 284.483 109.678 284.305 110.342C284.128 111.006 284.082 111.699 284.172 112.38C284.261 113.062 284.484 113.72 284.828 114.315C285.171 114.911 285.628 115.433 286.174 115.851C286.719 116.27 287.341 116.577 288.005 116.755C288.668 116.933 289.361 116.979 290.042 116.889C290.723 116.8 291.38 116.577 291.975 116.233L310.415 105.577L328.844 116.233C329.439 116.577 330.096 116.801 330.778 116.891C331.46 116.982 332.152 116.937 332.816 116.759C333.481 116.581 334.103 116.275 334.649 115.856C335.195 115.438 335.653 114.916 335.997 114.32C336.341 113.725 336.565 113.067 336.655 112.385C336.745 111.703 336.7 111.01 336.523 110.345C336.345 109.681 336.039 109.058 335.621 108.512C335.203 107.965 334.681 107.507 334.086 107.163ZM296.119 84.0986C296.119 79.2474 302.128 75.7229 310.415 75.7229C318.702 75.7229 324.7 79.2474 324.7 84.0986C324.7 88.9498 318.692 92.4846 310.415 92.4846C302.138 92.4846 296.109 88.9602 296.109 84.0986H296.119Z" fill="#F9B471"/>
<path d="M391.932 107.163L380.703 100.653C388.254 97.5432 393.04 91.5103 393.04 84.0675C393.04 73.1419 382.629 65.2119 368.282 65.2119C353.934 65.2119 343.523 73.1419 343.523 84.0675C343.523 91.4792 348.32 97.5432 355.871 100.653L344.611 107.163C344.016 107.507 343.494 107.965 343.076 108.512C342.658 109.058 342.351 109.681 342.174 110.345C341.996 111.01 341.951 111.703 342.042 112.385C342.132 113.067 342.355 113.725 342.7 114.32C343.044 114.916 343.502 115.438 344.048 115.856C344.593 116.275 345.216 116.581 345.88 116.759C346.545 116.937 347.237 116.982 347.919 116.891C348.6 116.801 349.257 116.577 349.853 116.233L368.271 105.577L386.711 116.233C387.905 116.814 389.274 116.92 390.543 116.528C391.811 116.136 392.883 115.276 393.542 114.123C394.201 112.97 394.396 111.609 394.09 110.317C393.783 109.024 392.997 107.897 391.891 107.163H391.932ZM353.976 84.0986C353.976 79.2474 359.984 75.7229 368.261 75.7229C376.538 75.7229 382.547 79.2474 382.547 84.0986C382.547 88.9498 376.538 92.4846 368.261 92.4846C359.984 92.4846 353.976 88.9602 353.976 84.0986Z" fill="#F9B471"/>
<path d="M358.876 61.2003C359.583 61.2318 360.289 61.1196 360.952 60.8705C361.615 60.6213 362.22 60.2404 362.732 59.7507C363.243 59.2611 363.651 58.6727 363.929 58.0213C364.207 57.3698 364.35 56.6688 364.35 55.9603C364.35 55.2519 364.207 54.5508 363.929 53.8993C363.651 53.2479 363.243 52.6596 362.732 52.17C362.22 51.6803 361.615 51.2994 360.952 51.0502C360.289 50.8011 359.583 50.6889 358.876 50.7204H316.983C316.276 50.6889 315.569 50.8011 314.907 51.0502C314.244 51.2994 313.638 51.6803 313.127 52.17C312.615 52.6596 312.208 53.2479 311.93 53.8993C311.651 54.5508 311.508 55.2519 311.508 55.9603C311.508 56.6688 311.651 57.3698 311.93 58.0213C312.208 58.6727 312.615 59.2611 313.127 59.7507C313.638 60.2404 314.244 60.6213 314.907 60.8705C315.569 61.1196 316.276 61.2318 316.983 61.2003H358.876Z" fill="#F9B471"/>
<path d="M443.645 6.3232C439.989 18.2336 427.578 58.1527 421.383 72.7687C421.383 72.7687 436.321 82.5748 436.321 107.93L444.692 114.004L453.062 107.93C453.062 82.5748 468 72.7687 468 72.7687C461.784 58.132 449.353 18.2336 445.728 6.3232C445.66 6.09958 445.522 5.90369 445.335 5.76444C445.147 5.6252 444.92 5.55 444.686 5.55C444.453 5.55 444.226 5.6252 444.038 5.76444C443.851 5.90369 443.713 6.09958 443.645 6.3232Z" fill="#D6D6D6"/>
<path d="M444.692 70.426C447.993 70.426 450.669 67.7481 450.669 64.4448C450.669 61.1416 447.993 58.4637 444.692 58.4637C441.39 58.4637 438.714 61.1416 438.714 64.4448C438.714 67.7481 441.39 70.426 444.692 70.426Z" fill="#4D4C52"/>
<path d="M444.692 64.4448V6.45796" stroke="#4D4C52" stroke-width="1.88" stroke-linecap="round" stroke-linejoin="round"/>
<path d="M452.886 103.742H436.497C432.842 103.742 429.878 106.708 429.878 110.366V110.376C429.878 114.034 432.842 117 436.497 117H452.886C456.542 117 459.505 114.034 459.505 110.376V110.366C459.505 106.708 456.542 103.742 452.886 103.742Z" fill="#51A8BC"/>
</g>
<defs>
<clipPath id="clip0_39_1009">
<rect width="468" height="117" fill="white"/>
</clipPath>
</defs>
</svg>
