<svg width="16" height="17" viewBox="0 0 16 17" fill="none" xmlns="http://www.w3.org/2000/svg">
<path d="M8 0.223633C3.58854 0.223633 0 3.81217 0 8.22363C0 12.6351 3.58854 16.2236 8 16.2236C12.4115 16.2236 16 12.6351 16 8.22363C16 3.81217 12.4115 0.223633 8 0.223633ZM8 1.55697C11.6901 1.55697 14.6667 4.53353 14.6667 8.22363C14.6667 11.9137 11.6901 14.8903 8 14.8903C4.3099 14.8903 1.33333 11.9137 1.33333 8.22363C1.33333 4.53353 4.3099 1.55697 8 1.55697ZM5 5.55697C4.44792 5.55697 4 6.00488 4 6.55697C4 7.10905 4.44792 7.55697 5 7.55697C5.55208 7.55697 6 7.10905 6 6.55697C6 6.00488 5.55208 5.55697 5 5.55697ZM9.33333 6.22363V7.55697H12.6667V6.22363H9.33333ZM11.3125 8.91113C11.3125 10.0335 10.862 10.8122 10.2083 11.3695C9.55469 11.9268 8.6901 12.2236 8 12.2236C6.58594 12.2236 5.625 11.6507 4.875 10.9111L3.9375 11.8695C4.86719 12.7835 6.21354 13.557 8 13.557C9.03646 13.557 10.1745 13.1663 11.0833 12.3903C11.9922 11.6143 12.6458 10.4163 12.6458 8.91113H11.3125Z" fill="#5B39F4"/>
</svg>
