<svg width="178" height="17" viewBox="0 0 178 17" fill="none" xmlns="http://www.w3.org/2000/svg">
<path d="M1.25382 11.4523C37.5458 7.20449 75.5227 4.53547 112.679 2.47627C125.129 1.78627 138.202 1.34547 150.742 1.09969C169.578 0.730532 113.12 2.56108 94.3548 3.53804C75.5757 4.51572 56.7612 5.64634 38.2592 7.46604C34.794 7.80685 21.0033 8.53907 18.7875 10.2799C17.3848 11.3819 24.5391 10.9599 27.5123 10.9016C44.4782 10.5691 61.5965 9.54933 78.427 8.46243C91.0869 7.64486 103.683 6.6136 116.287 5.6305C117.839 5.50946 128.609 4.09441 130.193 4.78143C130.884 5.08133 124.865 6.66426 124.845 6.66988C114.339 9.53551 102.104 11.2069 90.244 12.7169C84.0413 13.5067 65.0341 14.9226 71.4584 14.7967C80.4789 14.6199 90.2495 13.2904 99.2643 12.7744C125 11.3013 151.085 10.1373 176.96 9.63013" stroke="#D96EE9" stroke-width="2" stroke-linecap="round"/>
</svg>
