<svg width="706" height="126" viewBox="0 0 706 126" fill="none" xmlns="http://www.w3.org/2000/svg">
<g filter="url(#filter0_d_155_3554)">
<path d="M16.0243 99.7065V25.7244H65.7278V38.3327H30.4039V57.4013H59.7883V69.0717H30.4039V99.7065H16.0243ZM76.9537 79.2833V45.1057H90.9165V76.2615C90.9165 80.4295 91.6806 83.5903 93.2089 85.7437C94.7372 87.8277 96.9949 88.8697 99.9819 88.8697C101.788 88.8697 103.559 88.5224 105.296 87.8277C107.102 87.0636 108.735 85.9521 110.194 84.4933C111.722 83.0345 113.007 81.1936 114.049 78.9707V45.1057H128.012V84.0765C128.012 85.5353 128.255 86.5773 128.741 87.2025C129.297 87.8277 130.165 88.2098 131.346 88.3487V99.7065C129.957 99.9149 128.776 100.054 127.803 100.123C126.9 100.262 126.067 100.332 125.303 100.332C122.802 100.332 120.752 99.776 119.155 98.6645C117.626 97.4836 116.723 95.8859 116.446 93.8713L116.133 89.4949C113.702 93.1767 110.576 95.9901 106.755 97.9351C102.934 99.8107 98.7315 100.749 94.1467 100.749C88.5199 100.749 84.2477 98.9424 81.3301 95.3301C78.4125 91.6484 76.9537 86.2995 76.9537 79.2833ZM146.993 23.6404H160.956V82.2009C160.956 84.7017 161.373 86.4037 162.207 87.3067C163.04 88.1403 164.186 88.5571 165.645 88.5571C166.757 88.5571 167.903 88.4182 169.084 88.1403C170.265 87.8625 171.307 87.5151 172.21 87.0983L174.085 97.7267C172.21 98.6298 170.022 99.3245 167.521 99.8107C165.02 100.297 162.762 100.54 160.748 100.54C156.371 100.54 152.967 99.3939 150.536 97.1015C148.174 94.7397 146.993 91.4053 146.993 87.0983V23.6404ZM185.275 23.6404H199.237V82.2009C199.237 84.7017 199.654 86.4037 200.488 87.3067C201.321 88.1403 202.468 88.5571 203.926 88.5571C205.038 88.5571 206.184 88.4182 207.365 88.1403C208.546 87.8625 209.588 87.5151 210.491 87.0983L212.367 97.7267C210.491 98.6298 208.303 99.3245 205.802 99.8107C203.301 100.297 201.044 100.54 199.029 100.54C194.653 100.54 191.249 99.3939 188.817 97.1015C186.456 94.7397 185.275 91.4053 185.275 87.0983V23.6404ZM247.927 62.1945C247.927 57.6792 248.726 53.268 250.324 48.9611C251.991 44.5847 254.388 40.6251 257.514 37.0823C260.64 33.47 264.46 30.6218 268.976 28.5378C273.491 26.3844 278.632 25.3076 284.397 25.3076C291.205 25.3076 297.075 26.8012 302.007 29.7882C307.009 32.7753 310.725 36.6655 313.157 41.4587L302.111 49.0653C300.861 46.2866 299.229 44.0984 297.214 42.5007C295.2 40.8335 293.046 39.6873 290.754 39.0621C288.461 38.3674 286.204 38.0201 283.981 38.0201C280.368 38.0201 277.208 38.7495 274.498 40.2083C271.859 41.6671 269.636 43.5774 267.83 45.9393C266.023 48.3011 264.669 50.9409 263.766 53.8585C262.932 56.7761 262.515 59.6937 262.515 62.6113C262.515 65.8762 263.036 69.037 264.078 72.0935C265.12 75.0806 266.579 77.755 268.455 80.1169C270.4 82.4093 272.692 84.2502 275.332 85.6395C278.041 86.9594 280.994 87.6193 284.189 87.6193C286.481 87.6193 288.809 87.2373 291.17 86.4731C293.532 85.709 295.721 84.4933 297.735 82.8261C299.75 81.1589 301.313 79.0054 302.424 76.3657L314.199 83.1387C312.74 86.8205 310.343 89.9465 307.009 92.5167C303.744 95.087 300.062 97.0321 295.964 98.3519C291.865 99.6718 287.801 100.332 283.772 100.332C278.493 100.332 273.665 99.255 269.288 97.1015C264.912 94.8786 261.126 91.961 257.931 88.3487C254.805 84.667 252.339 80.5684 250.532 76.0531C248.796 71.4683 247.927 66.8488 247.927 62.1945ZM352.71 100.749C348.265 100.749 344.27 100.019 340.727 98.5603C337.185 97.0321 334.163 94.9481 331.662 92.3083C329.231 89.6686 327.355 86.6468 326.035 83.2429C324.715 79.839 324.055 76.2615 324.055 72.5103C324.055 68.6896 324.715 65.0774 326.035 61.6735C327.355 58.2696 329.231 55.2478 331.662 52.6081C334.163 49.9683 337.185 47.9191 340.727 46.4603C344.27 44.932 348.265 44.1679 352.71 44.1679C357.156 44.1679 361.116 44.932 364.589 46.4603C368.132 47.9191 371.154 49.9683 373.655 52.6081C376.155 55.2478 378.031 58.2696 379.281 61.6735C380.601 65.0774 381.261 68.6896 381.261 72.5103C381.261 76.2615 380.601 79.839 379.281 83.2429C378.031 86.6468 376.155 89.6686 373.655 92.3083C371.223 94.9481 368.236 97.0321 364.693 98.5603C361.151 100.019 357.156 100.749 352.71 100.749ZM338.435 72.5103C338.435 75.7058 339.06 78.5539 340.311 81.0547C341.561 83.4861 343.263 85.3964 345.416 86.7857C347.57 88.1751 350.001 88.8697 352.71 88.8697C355.35 88.8697 357.747 88.1751 359.9 86.7857C362.054 85.3269 363.756 83.3819 365.006 80.9505C366.326 78.4497 366.986 75.6016 366.986 72.4061C366.986 69.2801 366.326 66.4667 365.006 63.9659C363.756 61.4651 362.054 59.52 359.9 58.1307C357.747 56.7413 355.35 56.0467 352.71 56.0467C350.001 56.0467 347.57 56.7761 345.416 58.2349C343.263 59.6242 341.561 61.5693 340.311 64.0701C339.06 66.5014 338.435 69.3148 338.435 72.5103ZM480.715 99.7065H466.752V69.0717C466.752 64.7648 465.988 61.604 464.459 59.5895C463.001 57.5055 460.951 56.4635 458.312 56.4635C455.602 56.4635 452.997 57.5402 450.497 59.6937C448.065 61.7777 446.329 64.5216 445.287 67.9255V99.7065H431.324V69.0717C431.324 64.6953 430.56 61.4998 429.031 59.4853C427.573 57.4708 425.523 56.4635 422.884 56.4635C420.174 56.4635 417.569 57.5055 415.068 59.5895C412.637 61.6735 410.9 64.4174 409.858 67.8213V99.7065H395.896V45.1057H408.504V55.2131C410.588 51.6703 413.367 48.9611 416.84 47.0855C420.313 45.1404 424.308 44.1679 428.823 44.1679C433.338 44.1679 436.846 45.2793 439.347 47.5023C441.917 49.7252 443.55 52.4691 444.245 55.7341C446.467 51.9829 449.281 49.1347 452.685 47.1897C456.158 45.1751 460.048 44.1679 464.355 44.1679C467.759 44.1679 470.503 44.7931 472.587 46.0435C474.74 47.2244 476.408 48.8569 477.589 50.9409C478.77 52.9554 479.568 55.2478 479.985 57.8181C480.471 60.3884 480.715 62.9934 480.715 65.6331V99.7065ZM529.133 100.749C524.965 100.749 521.248 99.8107 517.983 97.9351C514.718 96.0595 512.148 93.4893 510.272 90.2243V99.7065H498.081V23.6404H512.044V54.6921C513.989 51.4271 516.524 48.8569 519.65 46.9813C522.846 45.1057 526.562 44.1679 530.8 44.1679C534.343 44.1679 537.573 44.932 540.49 46.4603C543.408 47.9191 545.909 49.9683 547.993 52.6081C550.146 55.2478 551.779 58.2696 552.89 61.6735C554.071 65.0774 554.662 68.7244 554.662 72.6145C554.662 76.5046 554.002 80.1516 552.682 83.5555C551.431 86.9594 549.66 89.9812 547.368 92.6209C545.075 95.1912 542.366 97.2057 539.24 98.6645C536.184 100.054 532.814 100.749 529.133 100.749ZM525.277 88.8697C527.5 88.8697 529.515 88.4529 531.321 87.6193C533.196 86.7163 534.794 85.5353 536.114 84.0765C537.503 82.6177 538.545 80.9158 539.24 78.9707C540.004 76.9562 540.386 74.8722 540.386 72.7187C540.386 69.7316 539.761 66.9877 538.511 64.4869C537.33 61.9166 535.663 59.8674 533.509 58.3391C531.425 56.8108 528.959 56.0467 526.111 56.0467C524.096 56.0467 522.151 56.5329 520.276 57.5055C518.469 58.4086 516.837 59.659 515.378 61.2567C513.989 62.8544 512.877 64.6606 512.044 66.6751V79.7001C512.461 81.0895 513.121 82.3399 514.024 83.4513C514.996 84.5628 516.108 85.5353 517.358 86.3689C518.608 87.1331 519.894 87.7583 521.213 88.2445C522.603 88.6613 523.957 88.8697 525.277 88.8697ZM594.548 100.749C590.102 100.749 586.108 100.019 582.565 98.5603C579.023 97.0321 576.001 94.9481 573.5 92.3083C571.069 89.6686 569.193 86.6468 567.873 83.2429C566.553 79.839 565.893 76.2615 565.893 72.5103C565.893 68.6896 566.553 65.0774 567.873 61.6735C569.193 58.2696 571.069 55.2478 573.5 52.6081C576.001 49.9683 579.023 47.9191 582.565 46.4603C586.108 44.932 590.102 44.1679 594.548 44.1679C598.994 44.1679 602.954 44.932 606.427 46.4603C609.97 47.9191 612.992 49.9683 615.493 52.6081C617.993 55.2478 619.869 58.2696 621.119 61.6735C622.439 65.0774 623.099 68.6896 623.099 72.5103C623.099 76.2615 622.439 79.839 621.119 83.2429C619.869 86.6468 617.993 89.6686 615.493 92.3083C613.061 94.9481 610.074 97.0321 606.531 98.5603C602.989 100.019 598.994 100.749 594.548 100.749ZM580.273 72.5103C580.273 75.7058 580.898 78.5539 582.149 81.0547C583.399 83.4861 585.101 85.3964 587.254 86.7857C589.408 88.1751 591.839 88.8697 594.548 88.8697C597.188 88.8697 599.585 88.1751 601.738 86.7857C603.892 85.3269 605.594 83.3819 606.844 80.9505C608.164 78.4497 608.824 75.6016 608.824 72.4061C608.824 69.2801 608.164 66.4667 606.844 63.9659C605.594 61.4651 603.892 59.52 601.738 58.1307C599.585 56.7413 597.188 56.0467 594.548 56.0467C591.839 56.0467 589.408 56.7761 587.254 58.2349C585.101 59.6242 583.399 61.5693 582.149 64.0701C580.898 66.5014 580.273 69.3148 580.273 72.5103ZM669.122 73.3439L679.334 24.995H690.796L680.584 73.3439H669.122ZM663.495 99.7065L666.517 85.4311H677.979L674.957 99.7065H663.495Z" fill="url(#paint0_linear_155_3554)"/>
<path d="M16.0243 99.7065H14.0243V101.707H16.0243V99.7065ZM16.0243 25.7244V23.7244H14.0243V25.7244H16.0243ZM65.7278 25.7244H67.7278V23.7244H65.7278V25.7244ZM65.7278 38.3327V40.3327H67.7278V38.3327H65.7278ZM30.4039 38.3327V36.3327H28.4039V38.3327H30.4039ZM30.4039 57.4013H28.4039V59.4013H30.4039V57.4013ZM59.7883 57.4013H61.7883V55.4013H59.7883V57.4013ZM59.7883 69.0717V71.0717H61.7883V69.0717H59.7883ZM30.4039 69.0717V67.0717H28.4039V69.0717H30.4039ZM30.4039 99.7065V101.707H32.4039V99.7065H30.4039ZM18.0243 99.7065V25.7244H14.0243V99.7065H18.0243ZM16.0243 27.7244H65.7278V23.7244H16.0243V27.7244ZM63.7278 25.7244V38.3327H67.7278V25.7244H63.7278ZM65.7278 36.3327H30.4039V40.3327H65.7278V36.3327ZM28.4039 38.3327V57.4013H32.4039V38.3327H28.4039ZM30.4039 59.4013H59.7883V55.4013H30.4039V59.4013ZM57.7883 57.4013V69.0717H61.7883V57.4013H57.7883ZM59.7883 67.0717H30.4039V71.0717H59.7883V67.0717ZM28.4039 69.0717V99.7065H32.4039V69.0717H28.4039ZM30.4039 97.7065H16.0243V101.707H30.4039V97.7065ZM76.9537 45.1057V43.1057H74.9537V45.1057H76.9537ZM90.9165 45.1057H92.9165V43.1057H90.9165V45.1057ZM93.2089 85.7437L91.5779 86.9012L91.5869 86.9139L91.5961 86.9265L93.2089 85.7437ZM105.296 87.8277L106.039 89.6847L106.057 89.6774L106.075 89.6697L105.296 87.8277ZM110.194 84.4933L108.813 83.0466L108.796 83.0627L108.779 83.0791L110.194 84.4933ZM114.049 78.9707L115.86 79.8196L116.049 79.4162V78.9707H114.049ZM114.049 45.1057V43.1057H112.049V45.1057H114.049ZM128.012 45.1057H130.012V43.1057H128.012V45.1057ZM128.741 87.2025L127.162 88.4304L127.203 88.4822L127.246 88.5313L128.741 87.2025ZM131.346 88.3487H133.346V86.5702L131.58 86.3624L131.346 88.3487ZM131.346 99.7065L131.643 101.684L133.346 101.429V99.7065H131.346ZM127.803 100.123L127.661 98.1284L127.58 98.1342L127.499 98.1466L127.803 100.123ZM119.155 98.6645L117.932 100.247L117.971 100.278L118.013 100.306L119.155 98.6645ZM116.446 93.8713L114.451 94.0138L114.455 94.0794L114.464 94.1446L116.446 93.8713ZM116.133 89.4949L118.128 89.3524L117.708 83.4799L114.464 88.3928L116.133 89.4949ZM106.755 97.9351L107.636 99.7305L107.649 99.7241L107.662 99.7175L106.755 97.9351ZM81.3301 95.3301L79.7626 96.5723L79.7684 96.5796L79.7742 96.5868L81.3301 95.3301ZM78.9537 79.2833V45.1057H74.9537V79.2833H78.9537ZM76.9537 47.1057H90.9165V43.1057H76.9537V47.1057ZM88.9165 45.1057V76.2615H92.9165V45.1057H88.9165ZM88.9165 76.2615C88.9165 80.6223 89.707 84.2649 91.5779 86.9012L94.8399 84.5862C93.6543 82.9156 92.9165 80.2368 92.9165 76.2615H88.9165ZM91.5961 86.9265C93.5635 89.6093 96.4712 90.8697 99.9819 90.8697V86.8697C97.5185 86.8697 95.9109 86.0462 94.8217 84.561L91.5961 86.9265ZM99.9819 90.8697C102.052 90.8697 104.075 90.4704 106.039 89.6847L104.553 85.9708C103.044 86.5744 101.525 86.8697 99.9819 86.8697V90.8697ZM106.075 89.6697C108.131 88.8 109.976 87.5389 111.608 85.9075L108.779 83.0791C107.493 84.3654 106.074 85.3272 104.517 85.9858L106.075 89.6697ZM111.574 85.94C113.308 84.285 114.73 82.2309 115.86 79.8196L112.238 78.1218C111.284 80.1564 110.135 81.7841 108.813 83.0466L111.574 85.94ZM116.049 78.9707V45.1057H112.049V78.9707H116.049ZM114.049 47.1057H128.012V43.1057H114.049V47.1057ZM126.012 45.1057V84.0765H130.012V45.1057H126.012ZM126.012 84.0765C126.012 85.6529 126.254 87.2624 127.162 88.4304L130.32 85.9746C130.256 85.8923 130.012 85.4178 130.012 84.0765H126.012ZM127.246 88.5313C128.242 89.6514 129.648 90.1628 131.112 90.335L131.58 86.3624C130.682 86.2568 130.352 86.004 130.236 85.8738L127.246 88.5313ZM129.346 88.3487V99.7065H133.346V88.3487H129.346ZM131.049 97.7287C129.691 97.9324 128.565 98.0639 127.661 98.1284L127.946 102.118C128.987 102.044 130.223 101.897 131.643 101.684L131.049 97.7287ZM127.499 98.1466C126.678 98.2729 125.947 98.3317 125.303 98.3317V102.332C126.186 102.332 127.123 102.252 128.107 102.1L127.499 98.1466ZM125.303 98.3317C123.094 98.3317 121.475 97.8425 120.297 97.0227L118.013 100.306C120.03 101.709 122.509 102.332 125.303 102.332V98.3317ZM120.378 97.082C119.288 96.2396 118.637 95.1241 118.427 93.5981L114.464 94.1446C114.81 96.6476 115.965 98.7276 117.932 100.247L120.378 97.082ZM118.44 93.7288L118.128 89.3524L114.138 89.6374L114.451 94.0138L118.44 93.7288ZM114.464 88.3928C112.218 91.7945 109.351 94.3695 105.848 96.1528L107.662 99.7175C111.801 97.6107 115.186 94.5588 117.802 90.5971L114.464 88.3928ZM105.874 96.1398C102.348 97.8705 98.45 98.7485 94.1467 98.7485V102.749C99.013 102.749 103.521 101.751 107.636 99.7305L105.874 96.1398ZM94.1467 98.7485C88.9827 98.7485 85.3431 97.1156 82.886 94.0735L79.7742 96.5868C83.1523 100.769 88.0571 102.749 94.1467 102.749V98.7485ZM82.8976 94.088C80.3687 90.8968 78.9537 86.0618 78.9537 79.2833H74.9537C74.9537 86.5371 76.4563 92.4 79.7626 96.5723L82.8976 94.088ZM146.993 23.6404V21.6404H144.993V23.6404H146.993ZM160.956 23.6404H162.956V21.6404H160.956V23.6404ZM162.206 87.3067L160.737 88.6633L160.764 88.6927L160.792 88.7209L162.206 87.3067ZM169.084 88.1403L168.626 86.1935H168.626L169.084 88.1403ZM172.21 87.0983L174.179 86.7508L173.728 84.1947L171.372 85.2824L172.21 87.0983ZM174.085 97.7267L174.953 99.5287L176.318 98.8714L176.055 97.3792L174.085 97.7267ZM167.521 99.8107L167.139 97.8475L167.521 99.8107ZM150.536 97.1015L149.122 98.5158L149.143 98.5365L149.164 98.5567L150.536 97.1015ZM146.993 25.6404H160.956V21.6404H146.993V25.6404ZM158.956 23.6404V82.2009H162.956V23.6404H158.956ZM158.956 82.2009C158.956 84.7619 159.349 87.1599 160.737 88.6633L163.676 85.9502C163.397 85.6474 162.956 84.6415 162.956 82.2009H158.956ZM160.792 88.7209C162.086 90.0145 163.789 90.5571 165.645 90.5571V86.5571C164.583 86.5571 163.994 86.2662 163.621 85.8925L160.792 88.7209ZM165.645 90.5571C166.924 90.5571 168.224 90.3972 169.542 90.0872L168.626 86.1935C167.581 86.4392 166.589 86.5571 165.645 86.5571V90.5571ZM169.542 90.0872C170.826 89.785 172 89.398 173.048 88.9142L171.372 85.2824C170.614 85.6322 169.703 85.9399 168.626 86.1935L169.542 90.0872ZM170.24 87.4459L172.116 98.0743L176.055 97.3792L174.179 86.7508L170.24 87.4459ZM173.218 95.9247C171.526 96.7391 169.508 97.3869 167.139 97.8475L167.902 101.774C170.535 101.262 172.893 100.521 174.953 99.5287L173.218 95.9247ZM167.139 97.8475C164.733 98.3154 162.606 98.5401 160.748 98.5401V102.54C162.919 102.54 165.307 102.279 167.902 101.774L167.139 97.8475ZM160.748 98.5401C156.719 98.5401 153.865 97.4912 151.908 95.6464L149.164 98.5567C152.07 101.297 156.024 102.54 160.748 102.54V98.5401ZM151.95 95.6873C150.063 93.8005 148.993 91.0353 148.993 87.0983H144.993C144.993 91.7752 146.285 95.6788 149.122 98.5158L151.95 95.6873ZM148.993 87.0983V23.6404H144.993V87.0983H148.993ZM185.275 23.6404V21.6404H183.275V23.6404H185.275ZM199.237 23.6404H201.237V21.6404H199.237V23.6404ZM200.488 87.3067L199.018 88.6633L199.045 88.6927L199.074 88.7209L200.488 87.3067ZM207.365 88.1403L206.907 86.1935H206.907L207.365 88.1403ZM210.491 87.0983L212.461 86.7508L212.01 84.1947L209.653 85.2824L210.491 87.0983ZM212.367 97.7267L213.234 99.5287L214.6 98.8714L214.336 97.3792L212.367 97.7267ZM205.802 99.8107L205.42 97.8475L205.802 99.8107ZM188.817 97.1015L187.403 98.5158L187.424 98.5365L187.445 98.5567L188.817 97.1015ZM185.275 25.6404H199.237V21.6404H185.275V25.6404ZM197.237 23.6404V82.2009H201.237V23.6404H197.237ZM197.237 82.2009C197.237 84.7619 197.631 87.1599 199.018 88.6633L201.957 85.9502C201.678 85.6474 201.237 84.6415 201.237 82.2009H197.237ZM199.074 88.7209C200.367 90.0145 202.071 90.5571 203.926 90.5571V86.5571C202.865 86.5571 202.276 86.2662 201.902 85.8925L199.074 88.7209ZM203.926 90.5571C205.205 90.5571 206.506 90.3972 207.823 90.0872L206.907 86.1935C205.863 86.4392 204.87 86.5571 203.926 86.5571V90.5571ZM207.823 90.0872C209.107 89.785 210.281 89.398 211.329 88.9142L209.653 85.2824C208.895 85.6322 207.985 85.9399 206.907 86.1935L207.823 90.0872ZM208.521 87.4459L210.397 98.0743L214.336 97.3792L212.461 86.7508L208.521 87.4459ZM211.499 95.9247C209.808 96.7391 207.789 97.3869 205.42 97.8475L206.184 101.774C208.817 101.262 211.174 100.521 213.234 99.5287L211.499 95.9247ZM205.42 97.8475C203.014 98.3154 200.887 98.5401 199.029 98.5401V102.54C201.2 102.54 203.589 102.279 206.184 101.774L205.42 97.8475ZM199.029 98.5401C195 98.5401 192.146 97.4912 190.189 95.6464L187.445 98.5567C190.351 101.297 194.305 102.54 199.029 102.54V98.5401ZM190.232 95.6873C188.345 93.8005 187.275 91.0353 187.275 87.0983H183.275C183.275 91.7752 184.566 95.6788 187.403 98.5158L190.232 95.6873ZM187.275 87.0983V23.6404H183.275V87.0983H187.275ZM250.324 48.9611L248.455 48.2491L248.452 48.2573L248.449 48.2655L250.324 48.9611ZM257.514 37.0823L259.013 38.4055L259.02 38.3983L259.026 38.391L257.514 37.0823ZM268.976 28.5378L269.814 30.3538L269.825 30.3485L269.837 30.3431L268.976 28.5378ZM302.007 29.7882L300.971 31.499L300.982 31.5053L302.007 29.7882ZM313.157 41.4587L314.291 43.1058L315.732 42.1138L314.94 40.5539L313.157 41.4587ZM302.111 49.0653L300.288 49.886L301.271 52.0722L303.246 50.7124L302.111 49.0653ZM297.214 42.5007L295.939 44.0415L295.955 44.0547L295.971 44.0677L297.214 42.5007ZM290.754 39.0621L290.174 40.9761L290.2 40.9842L290.227 40.9916L290.754 39.0621ZM274.498 40.2083L273.55 38.4473L273.541 38.4525L273.531 38.4578L274.498 40.2083ZM267.83 45.9393L266.241 44.7244L267.83 45.9393ZM263.766 53.8585L261.855 53.2671L261.849 53.288L261.843 53.309L263.766 53.8585ZM264.078 72.0935L262.185 72.7389L262.188 72.7456L262.19 72.7523L264.078 72.0935ZM268.455 80.1169L266.889 81.3607L266.909 81.3861L266.93 81.4109L268.455 80.1169ZM275.332 85.6395L274.401 87.4094L274.428 87.4239L274.456 87.4375L275.332 85.6395ZM291.17 86.4731L290.555 84.5702L291.17 86.4731ZM297.735 82.8261L296.46 81.2853L297.735 82.8261ZM302.424 76.3657L303.421 74.6321L301.459 73.5034L300.581 75.5896L302.424 76.3657ZM314.199 83.1387L316.058 83.8755L316.695 82.2675L315.196 81.4051L314.199 83.1387ZM307.009 92.5167L305.788 90.9327L305.78 90.9389L305.772 90.9453L307.009 92.5167ZM295.964 98.3519L296.577 100.256L295.964 98.3519ZM269.288 97.1015L268.383 98.8847L268.394 98.8904L268.405 98.8961L269.288 97.1015ZM257.931 88.3487L256.406 89.6432L256.419 89.6587L256.433 89.6739L257.931 88.3487ZM250.532 76.0531L248.662 76.7616L248.669 76.7788L248.675 76.7959L250.532 76.0531ZM249.927 62.1945C249.927 57.9208 250.683 53.7449 252.199 49.6567L248.449 48.2655C246.77 52.7911 245.927 57.4375 245.927 62.1945H249.927ZM252.193 49.6731C253.774 45.5229 256.045 41.77 259.013 38.4055L256.014 35.759C252.731 39.4801 250.208 43.6464 248.455 48.2491L252.193 49.6731ZM259.026 38.391C261.958 35.0027 265.546 32.3236 269.814 30.3538L268.138 26.7219C263.375 28.9201 259.321 31.9373 256.001 35.7735L259.026 38.391ZM269.837 30.3431C274.045 28.336 278.884 27.3076 284.397 27.3076V23.3076C278.379 23.3076 272.937 24.4327 268.115 26.7326L269.837 30.3431ZM284.397 27.3076C290.907 27.3076 296.404 28.7329 300.971 31.499L303.043 28.0775C297.746 24.8694 291.504 23.3076 284.397 23.3076V27.3076ZM300.982 31.5053C305.687 34.3156 309.127 37.9354 311.373 42.3634L314.94 40.5539C312.324 35.3955 308.33 31.235 303.033 28.0712L300.982 31.5053ZM312.022 39.8115L300.977 47.4181L303.246 50.7124L314.291 43.1058L312.022 39.8115ZM303.935 48.2445C302.578 45.228 300.764 42.7638 298.457 40.9337L295.971 44.0677C297.693 45.433 299.144 47.3452 300.288 49.886L303.935 48.2445ZM298.489 40.9599C296.278 39.1297 293.873 37.8398 291.28 37.1325L290.227 40.9916C292.219 41.5347 294.121 42.5372 295.939 44.0415L298.489 40.9599ZM291.334 37.148C288.868 36.4008 286.415 36.0201 283.981 36.0201V40.0201C285.992 40.0201 288.055 40.334 290.174 40.9761L291.334 37.148ZM283.981 36.0201C280.095 36.0201 276.598 36.8064 273.55 38.4473L275.447 41.9692C277.818 40.6926 280.642 40.0201 283.981 40.0201V36.0201ZM273.531 38.4578C270.653 40.0483 268.217 42.1397 266.241 44.7244L269.418 47.1542C271.054 45.0151 273.064 43.2858 275.466 41.9587L273.531 38.4578ZM266.241 44.7244C264.288 47.2786 262.826 50.1305 261.855 53.2671L265.676 54.4498C266.512 51.7512 267.759 49.3237 269.418 47.1542L266.241 44.7244ZM261.843 53.309C260.96 56.3981 260.515 59.5005 260.515 62.6113H264.515C264.515 59.8868 264.904 57.154 265.689 54.4079L261.843 53.309ZM260.515 62.6113C260.515 66.0933 261.072 69.4722 262.185 72.7389L265.971 71.4482C265.001 68.6017 264.515 65.6592 264.515 62.6113H260.515ZM262.19 72.7523C263.302 75.9406 264.867 78.8148 266.889 81.3607L270.021 78.8732C268.292 76.6953 266.939 74.2206 265.967 71.4348L262.19 72.7523ZM266.93 81.4109C269.039 83.8968 271.533 85.8999 274.401 87.4094L276.264 83.8697C273.852 82.6005 271.761 80.9218 269.98 78.823L266.93 81.4109ZM274.456 87.4375C277.455 88.8983 280.709 89.6193 284.189 89.6193V85.6193C281.278 85.6193 278.628 85.0205 276.208 83.8415L274.456 87.4375ZM284.189 89.6193C286.707 89.6193 289.242 89.1992 291.786 88.376L290.555 84.5702C288.375 85.2753 286.256 85.6193 284.189 85.6193V89.6193ZM291.786 88.376C294.401 87.5299 296.811 86.1867 299.01 84.3669L296.46 81.2853C294.63 82.7999 292.663 83.8881 290.555 84.5702L291.786 88.376ZM299.01 84.3669C301.296 82.4752 303.043 80.0496 304.267 77.1418L300.581 75.5896C299.582 77.9613 298.203 79.8426 296.46 81.2853L299.01 84.3669ZM301.427 78.0994L313.201 84.8724L315.196 81.4051L303.421 74.6321L301.427 78.0994ZM312.339 82.402C311.022 85.7277 308.856 88.5678 305.788 90.9327L308.23 94.1008C311.831 91.3251 314.458 87.9132 316.058 83.8755L312.339 82.402ZM305.772 90.9453C302.7 93.3633 299.231 95.1985 295.351 96.4482L296.577 100.256C300.893 98.8657 304.788 96.8107 308.246 94.0882L305.772 90.9453ZM295.351 96.4482C291.437 97.7087 287.579 98.3317 283.772 98.3317V102.332C288.023 102.332 292.294 101.635 296.577 100.256L295.351 96.4482ZM283.772 98.3317C278.773 98.3317 274.251 97.3144 270.171 95.307L268.405 98.8961C273.079 101.196 278.212 102.332 283.772 102.332V98.3317ZM270.194 95.3184C266.038 93.2074 262.454 90.4439 259.429 87.0236L256.433 89.6739C259.798 93.4781 263.786 96.5498 268.383 98.8847L270.194 95.3184ZM259.455 87.0543C256.47 83.5384 254.116 79.6264 252.389 75.3103L248.675 76.7959C250.561 81.5105 253.139 85.7956 256.406 89.6432L259.455 87.0543ZM252.403 75.3447C250.747 70.974 249.927 66.594 249.927 62.1945H245.927C245.927 67.1035 246.844 71.9626 248.662 76.7616L252.403 75.3447ZM340.727 98.5603L339.935 100.397L339.951 100.403L339.966 100.41L340.727 98.5603ZM331.662 92.3083L330.191 93.6633L330.2 93.6736L330.21 93.6838L331.662 92.3083ZM326.035 83.2429L327.9 82.5199L326.035 83.2429ZM326.035 61.6735L327.9 62.3965L326.035 61.6735ZM331.662 52.6081L330.21 51.2326L330.2 51.2428L330.191 51.2531L331.662 52.6081ZM340.727 46.4603L341.489 48.3096L341.504 48.3033L341.52 48.2967L340.727 46.4603ZM364.589 46.4603L363.784 48.2909L363.806 48.3005L363.828 48.3096L364.589 46.4603ZM373.655 52.6081L372.203 53.9836L373.655 52.6081ZM379.281 61.6735L377.404 62.3631L377.41 62.3799L377.417 62.3965L379.281 61.6735ZM379.281 83.2429L377.417 82.5199L377.41 82.5365L377.404 82.5533L379.281 83.2429ZM373.655 92.3083L372.203 90.9328L372.193 90.943L372.184 90.9534L373.655 92.3083ZM364.693 98.5603L365.455 100.41L365.47 100.403L365.486 100.397L364.693 98.5603ZM340.311 81.0547L338.522 81.9491L338.527 81.9593L338.532 81.9694L340.311 81.0547ZM345.416 86.7857L346.501 85.1051L345.416 86.7857ZM359.9 86.7857L360.984 88.4663L361.003 88.4541L361.022 88.4416L359.9 86.7857ZM365.006 80.9505L363.237 80.017L363.232 80.0264L363.227 80.0358L365.006 80.9505ZM365.006 63.9659L363.217 64.8603L363.227 64.88L363.237 64.8994L365.006 63.9659ZM359.9 58.1307L358.816 59.8113V59.8113L359.9 58.1307ZM345.416 58.2349L346.501 59.9155L346.52 59.9033L346.538 59.8907L345.416 58.2349ZM340.311 64.0701L342.089 64.9848L342.094 64.9747L342.099 64.9645L340.311 64.0701ZM352.71 98.7485C348.484 98.7485 344.755 98.0557 341.489 96.711L339.966 100.41C343.786 101.983 348.045 102.749 352.71 102.749V98.7485ZM341.52 96.7239C338.21 95.2963 335.417 93.364 333.114 90.9328L330.21 93.6838C332.909 96.5322 336.159 98.7678 339.935 100.397L341.52 96.7239ZM333.133 90.9534C330.874 88.501 329.131 85.6944 327.9 82.5199L324.17 83.966C325.579 87.5991 327.587 90.8362 330.191 93.6633L333.133 90.9534ZM327.9 82.5199C326.672 79.353 326.055 76.0211 326.055 72.5103H322.055C322.055 76.5019 322.759 80.3251 324.17 83.966L327.9 82.5199ZM326.055 72.5103C326.055 68.9253 326.674 65.5592 327.9 62.3965L324.17 60.9504C322.757 64.5955 322.055 68.454 322.055 72.5103H326.055ZM327.9 62.3965C329.131 59.222 330.874 56.4154 333.133 53.963L330.191 51.2531C327.587 54.0802 325.579 57.3173 324.17 60.9504L327.9 62.3965ZM333.114 53.9836C335.41 51.5597 338.193 49.6668 341.489 48.3096L339.966 44.6109C336.176 46.1713 332.915 48.377 330.21 51.2326L333.114 53.9836ZM341.52 48.2967C344.777 46.8915 348.496 46.1679 352.71 46.1679V42.1679C348.033 42.1679 343.763 42.9725 339.935 44.6238L341.52 48.2967ZM352.71 46.1679C356.926 46.1679 360.604 46.8918 363.784 48.2909L365.395 44.6296C361.628 42.9722 357.387 42.1679 352.71 42.1679V46.1679ZM363.828 48.3096C367.124 49.6668 369.906 51.5597 372.203 53.9836L375.107 51.2326C372.401 48.377 369.14 46.1713 365.351 44.6109L363.828 48.3096ZM372.203 53.9836C374.517 56.4265 376.248 59.2151 377.404 62.3631L381.159 60.9839C379.814 57.3241 377.794 54.0691 375.107 51.2326L372.203 53.9836ZM377.417 62.3965C378.643 65.5592 379.261 68.9253 379.261 72.5103H383.261C383.261 68.454 382.56 64.5955 381.146 60.9504L377.417 62.3965ZM379.261 72.5103C379.261 76.0211 378.645 79.353 377.417 82.5199L381.146 83.966C382.558 80.3251 383.261 76.5019 383.261 72.5103H379.261ZM377.404 82.5533C376.248 85.7013 374.517 88.4899 372.203 90.9328L375.107 93.6838C377.794 90.8473 379.814 87.5923 381.159 83.9326L377.404 82.5533ZM372.184 90.9534C369.956 93.3716 367.206 95.2983 363.901 96.7239L365.486 100.397C369.266 98.7659 372.49 96.5245 375.126 93.6633L372.184 90.9534ZM363.932 96.711C360.666 98.0557 356.936 98.7485 352.71 98.7485V102.749C357.376 102.749 361.635 101.983 365.455 100.41L363.932 96.711ZM336.435 72.5103C336.435 75.9717 337.114 79.1333 338.522 81.9491L342.099 80.1603C341.007 77.9745 340.435 75.4398 340.435 72.5103H336.435ZM338.532 81.9694C339.932 84.6909 341.864 86.8742 344.332 88.4663L346.501 85.1051C344.661 83.9186 343.19 82.2812 342.089 80.14L338.532 81.9694ZM344.332 88.4663C346.828 90.0763 349.64 90.8697 352.71 90.8697V86.8697C350.363 86.8697 348.312 86.2738 346.501 85.1051L344.332 88.4663ZM352.71 90.8697C355.723 90.8697 358.498 90.0707 360.984 88.4663L358.816 85.1051C356.996 86.2794 354.978 86.8697 352.71 86.8697V90.8697ZM361.022 88.4416C363.467 86.785 365.389 84.579 366.785 81.8652L363.227 80.0358C362.122 82.1847 360.64 83.8689 358.779 85.1299L361.022 88.4416ZM366.775 81.884C368.265 79.0599 368.986 75.8841 368.986 72.4061H364.986C364.986 75.319 364.386 77.8395 363.237 80.017L366.775 81.884ZM368.986 72.4061C368.986 68.9897 368.262 65.8503 366.775 63.0324L363.237 64.8994C364.39 67.0831 364.986 69.5705 364.986 72.4061H368.986ZM366.795 63.0715C365.399 60.2803 363.466 58.0511 360.984 56.4501L358.816 59.8113C360.641 60.9889 362.112 62.6499 363.217 64.8603L366.795 63.0715ZM360.984 56.4501C358.498 54.8457 355.723 54.0467 352.71 54.0467V58.0467C354.978 58.0467 356.996 58.637 358.816 59.8113L360.984 56.4501ZM352.71 54.0467C349.619 54.0467 346.794 54.8863 344.295 56.579L346.538 59.8907C348.346 58.6659 350.383 58.0467 352.71 58.0467V54.0467ZM344.332 56.5543C341.851 58.1553 339.917 60.3845 338.522 63.1757L342.099 64.9645C343.205 62.7541 344.675 61.0931 346.501 59.9155L344.332 56.5543ZM338.532 63.1554C337.113 65.9138 336.435 69.0504 336.435 72.5103H340.435C340.435 69.5793 341.007 67.089 342.089 64.9848L338.532 63.1554ZM480.715 99.7065V101.707H482.715V99.7065H480.715ZM466.752 99.7065H464.752V101.707H466.752V99.7065ZM464.459 59.5895L462.821 60.7364L462.843 60.7678L462.866 60.7983L464.459 59.5895ZM450.497 59.6937L451.798 61.2122L451.802 61.2092L450.497 59.6937ZM445.287 67.9255L443.374 67.3401L443.287 67.6262V67.9255H445.287ZM445.287 99.7065V101.707H447.287V99.7065H445.287ZM431.324 99.7065H429.324V101.707H431.324V99.7065ZM429.031 59.4853L427.411 60.6583L427.424 60.6763L427.438 60.6941L429.031 59.4853ZM415.068 59.5895L413.788 58.053L413.777 58.0619L413.767 58.071L415.068 59.5895ZM409.858 67.8213L407.946 67.2359L407.858 67.522V67.8213H409.858ZM409.858 99.7065V101.707H411.858V99.7065H409.858ZM395.896 99.7065H393.896V101.707H395.896V99.7065ZM395.896 45.1057V43.1057H393.896V45.1057H395.896ZM408.504 45.1057H410.504V43.1057H408.504V45.1057ZM408.504 55.2131H406.504V62.5577L410.228 56.2271L408.504 55.2131ZM416.84 47.0855L417.79 48.8453L417.804 48.838L417.817 48.8305L416.84 47.0855ZM439.347 47.5023L438.018 48.9971L438.029 49.0061L438.039 49.015L439.347 47.5023ZM444.245 55.7341L442.288 56.1503L443.354 61.1597L445.965 56.7537L444.245 55.7341ZM452.685 47.1897L453.677 48.9262L453.688 48.9197L452.685 47.1897ZM472.587 46.0435L471.558 47.7584L471.591 47.7784L471.625 47.7971L472.587 46.0435ZM477.589 50.9409L475.849 51.9269L475.856 51.9397L475.863 51.9523L477.589 50.9409ZM479.985 57.8181L478.011 58.1382L478.015 58.1641L478.02 58.1899L479.985 57.8181ZM480.715 97.7065H466.752V101.707H480.715V97.7065ZM468.752 99.7065V69.0717H464.752V99.7065H468.752ZM468.752 69.0717C468.752 64.6054 467.974 60.913 466.053 58.3807L462.866 60.7983C464.001 62.295 464.752 64.9241 464.752 69.0717H468.752ZM466.098 58.4426C464.248 55.8004 461.575 54.4635 458.312 54.4635V58.4635C460.328 58.4635 461.753 59.2106 462.821 60.7364L466.098 58.4426ZM458.312 54.4635C455.025 54.4635 451.973 55.7832 449.191 58.1782L451.802 61.2092C454.022 59.2973 456.18 58.4635 458.312 58.4635V54.4635ZM449.195 58.1752C446.444 60.533 444.514 63.6154 443.374 67.3401L447.199 68.5109C448.143 65.4279 449.686 63.0224 451.798 61.2122L449.195 58.1752ZM443.287 67.9255V99.7065H447.287V67.9255H443.287ZM445.287 97.7065H431.324V101.707H445.287V97.7065ZM433.324 99.7065V69.0717H429.324V99.7065H433.324ZM433.324 69.0717C433.324 64.5447 432.549 60.8129 430.625 58.2765L427.438 60.6941C428.57 62.1867 429.324 64.8459 429.324 69.0717H433.324ZM430.651 58.3123C428.79 55.742 426.118 54.4635 422.884 54.4635V58.4635C424.928 58.4635 426.355 59.1995 427.411 60.6583L430.651 58.3123ZM422.884 54.4635C419.617 54.4635 416.573 55.7324 413.788 58.053L416.349 61.1259C418.566 59.2785 420.732 58.4635 422.884 58.4635V54.4635ZM413.767 58.071C411.016 60.4288 409.086 63.5112 407.946 67.2359L411.771 68.4067C412.715 65.3237 414.258 62.9182 416.37 61.108L413.767 58.071ZM407.858 67.8213V99.7065H411.858V67.8213H407.858ZM409.858 97.7065H395.896V101.707H409.858V97.7065ZM397.896 99.7065V45.1057H393.896V99.7065H397.896ZM395.896 47.1057H408.504V43.1057H395.896V47.1057ZM406.504 45.1057V55.2131H410.504V45.1057H406.504ZM410.228 56.2271C412.135 52.9852 414.652 50.5402 417.79 48.8453L415.89 45.3257C412.082 47.382 409.041 50.3553 406.78 54.199L410.228 56.2271ZM417.817 48.8305C420.954 47.074 424.603 46.1679 428.823 46.1679V42.1679C424.012 42.1679 419.673 43.2068 415.863 45.3405L417.817 48.8305ZM428.823 46.1679C433.021 46.1679 435.995 47.1986 438.018 48.9971L440.676 46.0075C437.698 43.36 433.655 42.1679 428.823 42.1679V46.1679ZM438.039 49.015C440.286 50.9583 441.686 53.3199 442.288 56.1503L446.201 55.3179C445.414 51.6184 443.549 48.4921 440.655 45.9895L438.039 49.015ZM445.965 56.7537C448.032 53.2663 450.607 50.6807 453.677 48.9262L451.692 45.4532C447.955 47.5888 444.903 50.6995 442.524 54.7145L445.965 56.7537ZM453.688 48.9197C456.835 47.0948 460.374 46.1679 464.355 46.1679V42.1679C459.722 42.1679 455.482 43.2554 451.681 45.4596L453.688 48.9197ZM464.355 46.1679C467.535 46.1679 469.885 46.7548 471.558 47.7584L473.616 44.3285C471.121 42.8313 467.983 42.1679 464.355 42.1679V46.1679ZM471.625 47.7971C473.462 48.8042 474.856 50.1746 475.849 51.9269L479.329 49.9548C477.96 47.5391 476.019 45.6446 473.549 44.2898L471.625 47.7971ZM475.863 51.9523C476.906 53.7306 477.629 55.7838 478.011 58.1382L481.959 57.4979C481.508 54.7118 480.633 52.1802 479.314 49.9294L475.863 51.9523ZM478.02 58.1899C478.483 60.6365 478.715 63.117 478.715 65.6331H482.715C482.715 62.8698 482.46 60.1403 481.95 57.4463L478.02 58.1899ZM478.715 65.6331V99.7065H482.715V65.6331H478.715ZM517.983 97.9351L516.987 99.6693L517.983 97.9351ZM510.272 90.2243L512.007 89.2281L508.272 82.7278V90.2243H510.272ZM510.272 99.7065V101.707H512.272V99.7065H510.272ZM498.081 99.7065H496.081V101.707H498.081V99.7065ZM498.081 23.6404V21.6404H496.081V23.6404H498.081ZM512.044 23.6404H514.044V21.6404H512.044V23.6404ZM512.044 54.6921H510.044V61.957L513.762 55.7157L512.044 54.6921ZM519.65 46.9813L518.638 45.2564L518.63 45.2613L518.621 45.2663L519.65 46.9813ZM540.49 46.4603L539.562 48.2319L539.579 48.2407L539.596 48.2491L540.49 46.4603ZM547.993 52.6081L546.423 53.8474L546.433 53.8599L546.443 53.8723L547.993 52.6081ZM552.89 61.6735L550.989 62.2943L550.995 62.3117L551.001 62.329L552.89 61.6735ZM552.682 83.5555L550.817 82.8325L550.811 82.8491L550.805 82.8659L552.682 83.5555ZM547.368 92.6209L548.86 93.9522L548.869 93.9423L548.878 93.9323L547.368 92.6209ZM539.24 98.6645L540.068 100.485L540.077 100.481L540.086 100.477L539.24 98.6645ZM531.321 87.6193L532.159 89.4352L532.174 89.4284L532.188 89.4213L531.321 87.6193ZM536.114 84.0765L534.666 82.6972L534.648 82.7157L534.631 82.7347L536.114 84.0765ZM539.24 78.9707L537.37 78.2614L537.363 78.2797L537.357 78.298L539.24 78.9707ZM538.511 64.4869L536.693 65.3219L536.707 65.3518L536.722 65.3813L538.511 64.4869ZM533.509 58.3391L532.326 59.9519L532.339 59.9611L532.352 59.9701L533.509 58.3391ZM520.276 57.5055L521.17 59.2943L521.183 59.2878L521.196 59.281L520.276 57.5055ZM515.378 61.2567L513.901 59.9081L513.885 59.926L513.869 59.9443L515.378 61.2567ZM512.044 66.6751L510.196 65.9104L510.044 66.2776V66.6751H512.044ZM512.044 79.7001H510.044V79.9937L510.128 80.2748L512.044 79.7001ZM514.024 83.4513L512.471 84.7125L512.494 84.7408L512.518 84.7683L514.024 83.4513ZM517.358 86.3689L516.249 88.033L516.281 88.0549L516.315 88.0755L517.358 86.3689ZM521.213 88.2445L520.522 90.1212L520.58 90.1425L520.639 90.1602L521.213 88.2445ZM529.133 98.7485C525.276 98.7485 521.91 97.8842 518.979 96.2009L516.987 99.6693C520.587 101.737 524.653 102.749 529.133 102.749V98.7485ZM518.979 96.2009C516.022 94.5017 513.706 92.1861 512.007 89.2281L508.538 91.2206C510.59 94.7925 513.415 97.6174 516.987 99.6693L518.979 96.2009ZM508.272 90.2243V99.7065H512.272V90.2243H508.272ZM510.272 97.7065H498.081V101.707H510.272V97.7065ZM500.081 99.7065V23.6404H496.081V99.7065H500.081ZM498.081 25.6404H512.044V21.6404H498.081V25.6404ZM510.044 23.6404V54.6921H514.044V23.6404H510.044ZM513.762 55.7157C515.545 52.7221 517.849 50.3945 520.679 48.6963L518.621 45.2663C515.2 47.3192 512.432 50.1322 510.326 53.6685L513.762 55.7157ZM520.663 48.7061C523.509 47.0353 526.866 46.1679 530.8 46.1679V42.1679C526.258 42.1679 522.182 43.176 518.638 45.2564L520.663 48.7061ZM530.8 46.1679C534.044 46.1679 536.953 46.8649 539.562 48.2319L541.418 44.6886C538.193 42.9991 534.641 42.1679 530.8 42.1679V46.1679ZM539.596 48.2491C542.243 49.5724 544.515 51.4308 546.423 53.8474L549.563 51.3688C547.302 48.5059 544.573 46.2657 541.385 44.6714L539.596 48.2491ZM546.443 53.8723C548.433 56.3114 549.95 59.1126 550.989 62.2943L554.792 61.0527C553.607 57.4266 551.86 54.1842 549.543 51.3438L546.443 53.8723ZM551.001 62.329C552.103 65.5059 552.662 68.9297 552.662 72.6145H556.662C556.662 68.519 556.039 64.6488 554.78 61.0179L551.001 62.329ZM552.662 72.6145C552.662 76.2737 552.042 79.674 550.817 82.8325L554.547 84.2786C555.962 80.6293 556.662 76.7356 556.662 72.6145H552.662ZM550.805 82.8659C549.635 86.0506 547.985 88.8599 545.858 91.3096L548.878 93.9323C551.335 91.1025 553.228 87.8682 554.559 84.2452L550.805 82.8659ZM545.875 91.2897C543.764 93.657 541.275 95.508 538.394 96.8522L540.086 100.477C543.457 98.9035 546.387 96.7254 548.86 93.9522L545.875 91.2897ZM538.412 96.8438C535.64 98.104 532.557 98.7485 529.133 98.7485V102.749C533.072 102.749 536.727 102.004 540.068 100.485L538.412 96.8438ZM525.277 90.8697C527.755 90.8697 530.061 90.4037 532.159 89.4352L530.483 85.8034C528.969 86.5022 527.245 86.8697 525.277 86.8697V90.8697ZM532.188 89.4213C534.283 88.4127 536.094 87.0799 537.597 85.4184L534.631 82.7347C533.495 83.9908 532.11 85.0198 530.453 85.8173L532.188 89.4213ZM537.562 85.4558C539.149 83.7893 540.337 81.845 541.124 79.6434L537.357 78.298C536.754 79.9866 535.857 81.4461 534.666 82.6972L537.562 85.4558ZM541.11 79.68C541.96 77.439 542.386 75.1147 542.386 72.7187H538.386C538.386 74.6297 538.048 76.4734 537.37 78.2614L541.11 79.68ZM542.386 72.7187C542.386 69.4429 541.698 66.3898 540.299 63.5925L536.722 65.3813C537.824 67.5856 538.386 70.0204 538.386 72.7187H542.386ZM540.328 63.6519C539.011 60.7865 537.126 58.4537 534.667 56.7081L532.352 59.9701C534.199 61.281 535.648 63.0468 536.693 65.3219L540.328 63.6519ZM534.692 56.7263C532.23 54.9207 529.339 54.0467 526.111 54.0467V58.0467C528.579 58.0467 530.62 58.7009 532.326 59.9519L534.692 56.7263ZM526.111 54.0467C523.76 54.0467 521.501 54.6174 519.355 55.73L521.196 59.281C522.802 58.4485 524.432 58.0467 526.111 58.0467V54.0467ZM519.381 55.7166C517.34 56.7371 515.514 58.1422 513.901 59.9081L516.855 62.6052C518.16 61.1757 519.599 60.08 521.17 59.2943L519.381 55.7166ZM513.869 59.9443C512.334 61.7099 511.11 63.7022 510.196 65.9104L513.892 67.4398C514.645 65.6189 515.644 63.9989 516.887 62.569L513.869 59.9443ZM510.044 66.6751V79.7001H514.044V66.6751H510.044ZM510.128 80.2748C510.619 81.9112 511.401 83.3955 512.471 84.7125L515.576 82.1901C514.84 81.2842 514.302 80.2677 513.959 79.1254L510.128 80.2748ZM512.518 84.7683C513.609 86.0148 514.854 87.1034 516.249 88.033L518.467 84.7048C517.361 83.9672 516.383 83.1108 515.529 82.1343L512.518 84.7683ZM516.315 88.0755C517.672 88.9048 519.075 89.588 520.522 90.1212L521.905 86.3678C520.712 85.9285 519.545 85.3613 518.401 84.6624L516.315 88.0755ZM520.639 90.1602C522.196 90.6274 523.745 90.8697 525.277 90.8697V86.8697C524.17 86.8697 523.009 86.6952 521.788 86.3289L520.639 90.1602ZM582.565 98.5603L581.773 100.397L581.788 100.403L581.804 100.41L582.565 98.5603ZM573.5 92.3083L572.029 93.6633L572.038 93.6736L572.048 93.6838L573.5 92.3083ZM567.873 83.2429L569.738 82.5199L567.873 83.2429ZM567.873 61.6735L569.738 62.3965L567.873 61.6735ZM573.5 52.6081L572.048 51.2326L572.038 51.2428L572.029 51.2531L573.5 52.6081ZM582.565 46.4603L583.327 48.3096L583.342 48.3033L583.358 48.2967L582.565 46.4603ZM606.427 46.4603L605.622 48.2909L605.644 48.3005L605.666 48.3096L606.427 46.4603ZM615.493 52.6081L614.041 53.9836L615.493 52.6081ZM621.119 61.6735L619.242 62.3631L619.248 62.3799L619.255 62.3965L621.119 61.6735ZM621.119 83.2429L619.255 82.5199L619.248 82.5365L619.242 82.5533L621.119 83.2429ZM615.493 92.3083L614.041 90.9328L614.031 90.943L614.021 90.9534L615.493 92.3083ZM606.531 98.5603L607.293 100.41L607.308 100.403L607.324 100.397L606.531 98.5603ZM582.149 81.0547L580.36 81.9491L580.365 81.9593L580.37 81.9694L582.149 81.0547ZM587.254 86.7857L588.339 85.1051L587.254 86.7857ZM601.738 86.7857L602.822 88.4663L602.841 88.4541L602.86 88.4416L601.738 86.7857ZM606.844 80.9505L605.075 80.017L605.07 80.0264L605.065 80.0358L606.844 80.9505ZM606.844 63.9659L605.055 64.8603L605.065 64.88L605.075 64.8994L606.844 63.9659ZM601.738 58.1307L600.654 59.8113V59.8113L601.738 58.1307ZM587.254 58.2349L588.339 59.9155L588.357 59.9033L588.376 59.8907L587.254 58.2349ZM582.149 64.0701L583.927 64.9848L583.932 64.9747L583.937 64.9645L582.149 64.0701ZM594.548 98.7485C590.322 98.7485 586.593 98.0557 583.327 96.711L581.804 100.41C585.624 101.983 589.883 102.749 594.548 102.749V98.7485ZM583.358 96.7239C580.048 95.2963 577.255 93.364 574.952 90.9328L572.048 93.6838C574.746 96.5322 577.997 98.7678 581.773 100.397L583.358 96.7239ZM574.971 90.9534C572.712 88.501 570.969 85.6944 569.738 82.5199L566.008 83.966C567.417 87.5991 569.425 90.8362 572.029 93.6633L574.971 90.9534ZM569.738 82.5199C568.51 79.353 567.893 76.0211 567.893 72.5103H563.893C563.893 76.5019 564.597 80.3251 566.008 83.966L569.738 82.5199ZM567.893 72.5103C567.893 68.9253 568.511 65.5592 569.738 62.3965L566.008 60.9504C564.595 64.5955 563.893 68.454 563.893 72.5103H567.893ZM569.738 62.3965C570.969 59.222 572.712 56.4154 574.971 53.963L572.029 51.2531C569.425 54.0802 567.417 57.3173 566.008 60.9504L569.738 62.3965ZM574.952 53.9836C577.248 51.5597 580.031 49.6668 583.327 48.3096L581.804 44.6109C578.014 46.1713 574.753 48.377 572.048 51.2326L574.952 53.9836ZM583.358 48.2967C586.615 46.8915 590.334 46.1679 594.548 46.1679V42.1679C589.871 42.1679 585.601 42.9725 581.773 44.6238L583.358 48.2967ZM594.548 46.1679C598.764 46.1679 602.442 46.8918 605.622 48.2909L607.233 44.6296C603.466 42.9722 599.224 42.1679 594.548 42.1679V46.1679ZM605.666 48.3096C608.962 49.6668 611.744 51.5597 614.041 53.9836L616.944 51.2326C614.239 48.377 610.978 46.1713 607.189 44.6109L605.666 48.3096ZM614.041 53.9836C616.355 56.4265 618.086 59.2151 619.242 62.3631L622.997 60.9839C621.652 57.3241 619.632 54.0691 616.944 51.2326L614.041 53.9836ZM619.255 62.3965C620.481 65.5592 621.099 68.9253 621.099 72.5103H625.099C625.099 68.454 624.398 64.5955 622.984 60.9504L619.255 62.3965ZM621.099 72.5103C621.099 76.0211 620.483 79.353 619.255 82.5199L622.984 83.966C624.396 80.3251 625.099 76.5019 625.099 72.5103H621.099ZM619.242 82.5533C618.086 85.7013 616.355 88.4899 614.041 90.9328L616.944 93.6838C619.632 90.8473 621.652 87.5923 622.997 83.9326L619.242 82.5533ZM614.021 90.9534C611.794 93.3716 609.044 95.2983 605.739 96.7239L607.324 100.397C611.104 98.7659 614.328 96.5245 616.964 93.6633L614.021 90.9534ZM605.77 96.711C602.504 98.0557 598.774 98.7485 594.548 98.7485V102.749C599.214 102.749 603.473 101.983 607.293 100.41L605.77 96.711ZM578.273 72.5103C578.273 75.9717 578.952 79.1333 580.36 81.9491L583.937 80.1603C582.844 77.9745 582.273 75.4398 582.273 72.5103H578.273ZM580.37 81.9694C581.77 84.6909 583.702 86.8742 586.17 88.4663L588.339 85.1051C586.499 83.9186 585.028 82.2812 583.927 80.14L580.37 81.9694ZM586.17 88.4663C588.666 90.0763 591.478 90.8697 594.548 90.8697V86.8697C592.201 86.8697 590.15 86.2738 588.339 85.1051L586.17 88.4663ZM594.548 90.8697C597.56 90.8697 600.336 90.0707 602.822 88.4663L600.654 85.1051C598.834 86.2794 596.816 86.8697 594.548 86.8697V90.8697ZM602.86 88.4416C605.305 86.785 607.227 84.579 608.623 81.8652L605.065 80.0358C603.96 82.1847 602.478 83.8689 600.616 85.1299L602.86 88.4416ZM608.613 81.884C610.103 79.0599 610.824 75.8841 610.824 72.4061H606.824C606.824 75.319 606.224 77.8395 605.075 80.017L608.613 81.884ZM610.824 72.4061C610.824 68.9897 610.1 65.8503 608.613 63.0324L605.075 64.8994C606.228 67.0831 606.824 69.5705 606.824 72.4061H610.824ZM608.633 63.0715C607.237 60.2803 605.304 58.0511 602.822 56.4501L600.654 59.8113C602.479 60.9889 603.95 62.6499 605.055 64.8603L608.633 63.0715ZM602.822 56.4501C600.336 54.8457 597.56 54.0467 594.548 54.0467V58.0467C596.816 58.0467 598.834 58.637 600.654 59.8113L602.822 56.4501ZM594.548 54.0467C591.457 54.0467 588.631 54.8863 586.133 56.579L588.376 59.8907C590.184 58.6659 592.221 58.0467 594.548 58.0467V54.0467ZM586.17 56.5543C583.689 58.1553 581.755 60.3845 580.36 63.1757L583.937 64.9645C585.043 62.7541 586.513 61.0931 588.339 59.9155L586.17 56.5543ZM580.37 63.1554C578.951 65.9138 578.273 69.0504 578.273 72.5103H582.273C582.273 69.5793 582.845 67.089 583.927 64.9848L580.37 63.1554ZM669.122 73.3439L667.165 72.9306L666.656 75.3439H669.122V73.3439ZM679.334 24.995V22.995H677.712L677.377 24.5817L679.334 24.995ZM690.796 24.995L692.753 25.4083L693.262 22.995H690.796V24.995ZM680.584 73.3439V75.3439H682.206L682.541 73.7572L680.584 73.3439ZM663.495 99.7065L661.539 99.2924L661.028 101.707H663.495V99.7065ZM666.517 85.4311V83.4311H664.896L664.561 85.0169L666.517 85.4311ZM677.979 85.4311L679.936 85.8453L680.447 83.4311H677.979V85.4311ZM674.958 99.7065V101.707H676.578L676.914 100.121L674.958 99.7065ZM671.079 73.7572L681.291 25.4083L677.377 24.5817L667.165 72.9306L671.079 73.7572ZM679.334 26.995H690.796V22.995H679.334V26.995ZM688.839 24.5817L678.627 72.9306L682.541 73.7572L692.753 25.4083L688.839 24.5817ZM680.584 71.3439H669.122V75.3439H680.584V71.3439ZM665.452 100.121L668.474 85.8453L664.561 85.0169L661.539 99.2924L665.452 100.121ZM666.517 87.4311H677.979V83.4311H666.517V87.4311ZM676.023 85.0169L673.001 99.2924L676.914 100.121L679.936 85.8453L676.023 85.0169ZM674.958 97.7065H663.495V101.707H674.958V97.7065Z" fill="white"/>
<path d="M16.0244 99.9526V25.9705H65.7279V38.5787H30.404V57.6473H59.7885V69.3177H30.404V99.9526H16.0244Z" fill="url(#paint1_linear_155_3554)"/>
<path d="M76.9538 79.5294V45.3517H90.9166V76.5075C90.9166 80.6756 91.6808 83.8363 93.209 85.9898C94.7373 88.0738 96.995 89.1158 99.9821 89.1158C101.788 89.1158 103.56 88.7684 105.296 88.0738C107.102 87.3096 108.735 86.1982 110.194 84.7394C111.722 83.2806 113.007 81.4397 114.049 79.2167V45.3517H128.012V84.3226C128.012 85.7814 128.255 86.8234 128.741 87.4486C129.297 88.0738 130.165 88.4558 131.346 88.5948V99.9526C129.957 100.161 128.776 100.3 127.803 100.369C126.9 100.508 126.067 100.578 125.303 100.578C122.802 100.578 120.753 100.022 119.155 98.9106C117.627 97.7296 116.724 96.1319 116.446 94.1174L116.133 89.741C113.702 93.4227 110.576 96.2361 106.755 98.1812C102.934 100.057 98.7317 100.995 94.1469 100.995C88.52 100.995 84.2478 99.1884 81.3302 95.5762C78.4126 91.8944 76.9538 86.5455 76.9538 79.5294Z" fill="url(#paint2_linear_155_3554)"/>
<path d="M146.993 23.8865H160.956V82.447C160.956 84.9478 161.373 86.6497 162.207 87.5528C163.04 88.3864 164.186 88.8032 165.645 88.8032C166.757 88.8032 167.903 88.6642 169.084 88.3864C170.265 88.1085 171.307 87.7612 172.21 87.3444L174.085 97.9728C172.21 98.8758 170.022 99.5705 167.521 100.057C165.02 100.543 162.762 100.786 160.748 100.786C156.371 100.786 152.968 99.64 150.536 97.3476C148.174 94.9857 146.993 91.6513 146.993 87.3444V23.8865Z" fill="url(#paint3_linear_155_3554)"/>
<path d="M185.275 23.8865H199.238V82.447C199.238 84.9478 199.654 86.6497 200.488 87.5528C201.322 88.3864 202.468 88.8032 203.927 88.8032C205.038 88.8032 206.184 88.6642 207.365 88.3864C208.546 88.1085 209.588 87.7612 210.491 87.3444L212.367 97.9728C210.491 98.8758 208.303 99.5705 205.802 100.057C203.301 100.543 201.044 100.786 199.029 100.786C194.653 100.786 191.249 99.64 188.818 97.3476C186.456 94.9857 185.275 91.6513 185.275 87.3444V23.8865Z" fill="url(#paint4_linear_155_3554)"/>
<path d="M247.928 62.4405C247.928 57.9252 248.726 53.514 250.324 49.2071C251.991 44.8307 254.388 40.8711 257.514 37.3283C260.64 33.716 264.461 30.8679 268.976 28.7839C273.491 26.6304 278.632 25.5537 284.398 25.5537C291.205 25.5537 297.075 27.0472 302.007 30.0343C307.009 33.0214 310.725 36.9115 313.157 41.7047L302.112 49.3113C300.861 46.5326 299.229 44.3444 297.214 42.7467C295.2 41.0795 293.046 39.9333 290.754 39.3081C288.461 38.6134 286.204 38.2661 283.981 38.2661C280.369 38.2661 277.208 38.9955 274.499 40.4543C271.859 41.9131 269.636 43.8234 267.83 46.1853C266.024 48.5472 264.669 51.1869 263.766 54.1045C262.932 57.0221 262.516 59.9397 262.516 62.8573C262.516 66.1223 263.037 69.283 264.079 72.3395C265.121 75.3266 266.579 78.0011 268.455 80.3629C270.4 82.6554 272.692 84.4962 275.332 85.8856C278.041 87.2054 280.994 87.8654 284.189 87.8654C286.482 87.8654 288.809 87.4833 291.171 86.7192C293.532 85.955 295.721 84.7394 297.735 83.0722C299.75 81.405 301.313 79.2515 302.424 76.6117L314.199 83.3848C312.74 87.0665 310.343 90.1925 307.009 92.7628C303.744 95.333 300.062 97.2781 295.964 98.598C291.865 99.9178 287.801 100.578 283.772 100.578C278.493 100.578 273.665 99.501 269.289 97.3476C264.912 95.1246 261.126 92.207 257.931 88.5948C254.805 84.913 252.339 80.8145 250.533 76.2991C248.796 71.7143 247.928 67.0948 247.928 62.4405Z" fill="url(#paint5_linear_155_3554)"/>
<path d="M352.711 100.995C348.265 100.995 344.27 100.265 340.728 98.8064C337.185 97.2781 334.163 95.1941 331.662 92.5544C329.231 89.9146 327.355 86.8928 326.035 83.489C324.715 80.0851 324.055 76.5075 324.055 72.7563C324.055 68.9357 324.715 65.3234 326.035 61.9195C327.355 58.5157 329.231 55.4939 331.662 52.8541C334.163 50.2144 337.185 48.1651 340.728 46.7063C344.27 45.178 348.265 44.4139 352.711 44.4139C357.156 44.4139 361.116 45.178 364.589 46.7063C368.132 48.1651 371.154 50.2144 373.655 52.8541C376.156 55.4939 378.031 58.5157 379.282 61.9195C380.601 65.3234 381.261 68.9357 381.261 72.7563C381.261 76.5075 380.601 80.0851 379.282 83.489C378.031 86.8928 376.156 89.9146 373.655 92.5544C371.223 95.1941 368.236 97.2781 364.694 98.8064C361.151 100.265 357.156 100.995 352.711 100.995ZM338.435 72.7563C338.435 75.9518 339.06 78.8 340.311 81.3008C341.561 83.7321 343.263 85.6424 345.417 87.0318C347.57 88.4211 350.001 89.1158 352.711 89.1158C355.35 89.1158 357.747 88.4211 359.9 87.0318C362.054 85.573 363.756 83.6279 365.006 81.1966C366.326 78.6957 366.986 75.8476 366.986 72.6521C366.986 69.5261 366.326 66.7127 365.006 64.2119C363.756 61.7111 362.054 59.7661 359.9 58.3767C357.747 56.9874 355.35 56.2927 352.711 56.2927C350.001 56.2927 347.57 57.0221 345.417 58.4809C343.263 59.8703 341.561 61.8153 340.311 64.3161C339.06 66.7475 338.435 69.5609 338.435 72.7563Z" fill="url(#paint6_linear_155_3554)"/>
<path d="M480.715 99.9526H466.752V69.3177C466.752 65.0108 465.988 61.8501 464.459 59.8355C463.001 57.7515 460.951 56.7095 458.312 56.7095C455.602 56.7095 452.997 57.7863 450.497 59.9397C448.065 62.0237 446.329 64.7677 445.287 68.1715V99.9526H431.324V69.3177C431.324 64.9413 430.56 61.7459 429.031 59.7313C427.573 57.7168 425.523 56.7095 422.884 56.7095C420.174 56.7095 417.569 57.7515 415.069 59.8355C412.637 61.9195 410.901 64.6635 409.859 68.0673V99.9526H395.896V45.3517H408.504V55.4591C410.588 51.9163 413.367 49.2071 416.84 47.3315C420.313 45.3864 424.308 44.4139 428.823 44.4139C433.338 44.4139 436.846 45.5254 439.347 47.7483C441.918 49.9712 443.55 52.7152 444.245 55.9801C446.468 52.2289 449.281 49.3808 452.685 47.4357C456.158 45.4212 460.048 44.4139 464.355 44.4139C467.759 44.4139 470.503 45.0391 472.587 46.2895C474.741 47.4704 476.408 49.1029 477.589 51.1869C478.77 53.2014 479.569 55.4939 479.985 58.0641C480.472 60.6344 480.715 63.2394 480.715 65.8791V99.9526Z" fill="url(#paint7_linear_155_3554)"/>
<path d="M529.133 100.995C524.965 100.995 521.248 100.057 517.983 98.1812C514.718 96.3056 512.148 93.7353 510.273 90.4704V99.9526H498.081V23.8865H512.044V54.9381C513.989 51.6732 516.525 49.1029 519.651 47.2273C522.846 45.3517 526.563 44.4139 530.8 44.4139C534.343 44.4139 537.573 45.178 540.491 46.7063C543.408 48.1651 545.909 50.2144 547.993 52.8541C550.146 55.4939 551.779 58.5157 552.89 61.9195C554.071 65.3234 554.662 68.9704 554.662 72.8605C554.662 76.7507 554.002 80.3977 552.682 83.8016C551.432 87.2054 549.66 90.2272 547.368 92.867C545.075 95.4372 542.366 97.4518 539.24 98.9106C536.184 100.3 532.814 100.995 529.133 100.995ZM525.277 89.1158C527.5 89.1158 529.515 88.699 531.321 87.8654C533.197 86.9623 534.794 85.7814 536.114 84.3226C537.504 82.8638 538.546 81.1618 539.24 79.2167C540.004 77.2022 540.386 75.1182 540.386 72.9647C540.386 69.9777 539.761 67.2337 538.511 64.7329C537.33 62.1627 535.663 60.1134 533.509 58.5851C531.425 57.0569 528.959 56.2927 526.111 56.2927C524.096 56.2927 522.151 56.779 520.276 57.7515C518.47 58.6546 516.837 59.905 515.378 61.5027C513.989 63.1005 512.878 64.9066 512.044 66.9211V79.9462C512.461 81.3355 513.121 82.5859 514.024 83.6974C514.996 84.8088 516.108 85.7814 517.358 86.615C518.609 87.3791 519.894 88.0043 521.214 88.4906C522.603 88.9074 523.957 89.1158 525.277 89.1158Z" fill="url(#paint8_linear_155_3554)"/>
<path d="M594.548 100.995C590.103 100.995 586.108 100.265 582.565 98.8064C579.023 97.2781 576.001 95.1941 573.5 92.5544C571.069 89.9146 569.193 86.8928 567.873 83.489C566.553 80.0851 565.893 76.5075 565.893 72.7563C565.893 68.9357 566.553 65.3234 567.873 61.9195C569.193 58.5157 571.069 55.4939 573.5 52.8541C576.001 50.2144 579.023 48.1651 582.565 46.7063C586.108 45.178 590.103 44.4139 594.548 44.4139C598.994 44.4139 602.954 45.178 606.427 46.7063C609.97 48.1651 612.992 50.2144 615.493 52.8541C617.993 55.4939 619.869 58.5157 621.12 61.9195C622.439 65.3234 623.099 68.9357 623.099 72.7563C623.099 76.5075 622.439 80.0851 621.12 83.489C619.869 86.8928 617.993 89.9146 615.493 92.5544C613.061 95.1941 610.074 97.2781 606.531 98.8064C602.989 100.265 598.994 100.995 594.548 100.995ZM580.273 72.7563C580.273 75.9518 580.898 78.8 582.149 81.3008C583.399 83.7321 585.101 85.6424 587.254 87.0318C589.408 88.4211 591.839 89.1158 594.548 89.1158C597.188 89.1158 599.585 88.4211 601.738 87.0318C603.892 85.573 605.594 83.6279 606.844 81.1966C608.164 78.6957 608.824 75.8476 608.824 72.6521C608.824 69.5261 608.164 66.7127 606.844 64.2119C605.594 61.7111 603.892 59.7661 601.738 58.3767C599.585 56.9874 597.188 56.2927 594.548 56.2927C591.839 56.2927 589.408 57.0221 587.254 58.4809C585.101 59.8703 583.399 61.8153 582.149 64.3161C580.898 66.7475 580.273 69.5609 580.273 72.7563Z" fill="url(#paint9_linear_155_3554)"/>
<path d="M669.122 73.5899L679.334 25.2411H690.796L680.584 73.5899H669.122ZM663.496 99.9526L666.517 85.6772H677.979L674.958 99.9526H663.496Z" fill="url(#paint10_linear_155_3554)"/>
<path fill-rule="evenodd" clip-rule="evenodd" d="M14.0244 101.953V23.9705H67.7279V40.5787H32.404V55.6473H61.7885V71.3177H32.404V101.953H14.0244ZM30.404 69.3177H59.7885V57.6473H30.404V38.5787H65.7279V25.9705H16.0244V99.9526H30.404V69.3177ZM74.9538 43.3517H92.9166V76.5075C92.9166 80.4728 93.6507 83.1481 94.8311 84.8196C95.9201 86.2969 97.5256 87.1158 99.9821 87.1158C101.518 87.1158 103.032 86.8228 104.535 86.2241C106.085 85.5657 107.498 84.6064 108.779 83.3251L108.796 83.3087L108.813 83.2926C110.049 82.1124 111.134 80.6132 112.049 78.7608V43.3517H130.012V84.3226C130.012 85.5042 130.201 86.0131 130.29 86.1738C130.443 86.3109 130.794 86.516 131.58 86.6085L133.346 86.8163V101.675L131.643 101.93C130.259 102.138 129.051 102.282 128.027 102.358C127.071 102.502 126.162 102.578 125.303 102.578C122.51 102.578 120.03 101.956 118.013 100.552L117.972 100.524L117.932 100.493C116.101 99.0783 114.973 97.1776 114.547 94.9019C112.55 96.954 110.254 98.6441 107.662 99.9635L107.649 99.9701L107.636 99.9765C103.521 101.997 99.0131 102.995 94.1469 102.995C88.0573 102.995 83.1525 101.015 79.7743 96.8328L79.7685 96.8256L79.7627 96.8183C76.4564 92.646 74.9538 86.7831 74.9538 79.5294V43.3517ZM114.303 92.1936C114.952 91.424 115.562 90.6065 116.133 89.741L116.446 94.1174C116.724 96.1319 117.627 97.7296 119.155 98.9106C120.753 100.022 122.802 100.578 125.303 100.578C126.067 100.578 126.9 100.508 127.803 100.369C128.776 100.3 129.957 100.161 131.346 99.9526V88.5948C130.165 88.4558 129.297 88.0738 128.741 87.4486C128.255 86.8234 128.012 85.7814 128.012 84.3226V45.3517H114.049V79.2167C113.007 81.4397 111.722 83.2806 110.194 84.7394C108.735 86.1982 107.102 87.3096 105.296 88.0738C103.56 88.7684 101.788 89.1158 99.9821 89.1158C96.995 89.1158 94.7373 88.0738 93.209 85.9898C91.6808 83.8363 90.9166 80.6756 90.9166 76.5075V45.3517H76.9538V79.5294C76.9538 86.5455 78.4126 91.8944 81.3302 95.5762C84.2478 99.1884 88.52 100.995 94.1469 100.995C98.7317 100.995 102.934 100.057 106.755 98.1812C109.678 96.6934 112.194 94.6975 114.303 92.1936ZM144.993 21.8865H162.956V82.447C162.956 84.8229 163.374 85.8391 163.654 86.1706C164.029 86.5287 164.614 86.8032 165.645 86.8032C166.589 86.8032 167.581 86.6853 168.626 86.4395C169.703 86.186 170.614 85.8783 171.372 85.5284L173.728 84.4408L176.318 99.1174L174.953 99.7748C172.893 100.767 170.536 101.508 167.903 102.02C165.307 102.525 162.919 102.786 160.748 102.786C156.024 102.786 152.07 101.543 149.164 98.8027L149.143 98.7826L149.122 98.7618C146.285 95.9249 144.993 92.0213 144.993 87.3444V21.8865ZM162.207 87.5528C161.373 86.6497 160.956 84.9478 160.956 82.447V23.8865H146.993V87.3444C146.993 91.6513 148.174 94.9857 150.536 97.3476C152.968 99.64 156.371 100.786 160.748 100.786C162.762 100.786 165.02 100.543 167.521 100.057C170.022 99.5705 172.21 98.8758 174.085 97.9728L172.21 87.3444C171.632 87.6111 170.997 87.8494 170.305 88.0593C169.916 88.1773 169.509 88.2863 169.084 88.3864C167.903 88.6642 166.757 88.8032 165.645 88.8032C164.186 88.8032 163.04 88.3864 162.207 87.5528ZM183.275 21.8865H201.238V82.447C201.238 84.8229 201.655 85.8391 201.935 86.1706C202.31 86.5287 202.895 86.8032 203.927 86.8032C204.87 86.8032 205.863 86.6853 206.907 86.4395C207.985 86.186 208.895 85.8783 209.653 85.5284L212.01 84.4408L214.6 99.1174L213.234 99.7748C211.175 100.767 208.817 101.508 206.184 102.02C203.589 102.525 201.2 102.786 199.029 102.786C194.305 102.786 190.352 101.543 187.446 98.8027L187.424 98.7826L187.403 98.7618C184.566 95.9249 183.275 92.0213 183.275 87.3444V21.8865ZM200.488 87.5528C199.654 86.6497 199.238 84.9478 199.238 82.447V23.8865H185.275V87.3444C185.275 91.6513 186.456 94.9857 188.818 97.3476C191.249 99.64 194.653 100.786 199.029 100.786C201.044 100.786 203.301 100.543 205.802 100.057C208.303 99.5705 210.491 98.8758 212.367 97.9728L210.491 87.3444C209.913 87.6111 209.278 87.8494 208.586 88.0593C208.197 88.1773 207.79 88.2863 207.365 88.3864C206.184 88.6642 205.038 88.8032 203.927 88.8032C202.468 88.8032 201.322 88.3864 200.488 87.5528ZM248.452 48.5033L248.455 48.4951C250.207 43.8955 252.728 39.7317 256.008 36.0125C259.324 32.1827 263.372 29.1696 268.127 26.9732C272.946 24.6769 278.384 23.5537 284.398 23.5537C291.502 23.5537 297.742 25.1145 303.038 28.3205C308.333 31.484 312.325 35.6433 314.94 40.7999L315.732 42.3598L301.272 52.3182L300.288 50.132C299.144 47.5912 297.693 45.6791 295.971 44.3137L295.955 44.3008L295.939 44.2875C294.121 42.7833 292.219 41.7807 290.228 41.2376L290.201 41.2303L290.174 41.2221C288.055 40.5801 285.993 40.2661 283.981 40.2661C280.646 40.2661 277.825 40.9369 275.456 42.2103C273.059 43.5367 271.052 45.264 269.418 47.4002C267.764 49.5641 266.518 51.9846 265.683 54.6748C264.902 57.4139 264.516 60.1398 264.516 62.8573C264.516 65.9023 265 68.8422 265.969 71.6861C266.937 74.459 268.282 76.9237 270.001 79.0941C271.771 81.1731 273.846 82.8387 276.236 84.101C278.648 85.2711 281.29 85.8654 284.189 85.8654C286.256 85.8654 288.375 85.5214 290.555 84.8163C292.663 84.1341 294.63 83.046 296.46 81.5314C298.203 80.0887 299.582 78.2073 300.581 75.8356L301.459 73.7495L316.695 82.5135L316.058 84.1215C314.46 88.156 311.835 91.5656 308.239 94.34C304.782 97.0597 300.89 99.1127 296.577 100.502C292.294 101.881 288.023 102.578 283.772 102.578C278.212 102.578 273.079 101.442 268.406 99.1421L268.394 99.1365L268.383 99.1307C263.786 96.7958 259.798 93.7242 256.433 89.9199L256.419 89.9047L256.406 89.8892C253.139 86.0416 250.561 81.7565 248.676 77.0419L248.669 77.0248L248.662 77.0076C246.844 72.2087 245.928 67.3496 245.928 62.4405C245.928 57.6836 246.77 53.0371 248.449 48.5115L248.452 48.5033ZM275.332 85.8856C272.692 84.4962 270.4 82.6554 268.455 80.3629C266.579 78.0011 265.121 75.3266 264.079 72.3395C263.037 69.283 262.516 66.1223 262.516 62.8573C262.516 59.9397 262.932 57.0221 263.766 54.1045C264.669 51.1869 266.024 48.5472 267.83 46.1853C269.636 43.8234 271.859 41.9131 274.499 40.4543C277.208 38.9955 280.368 38.2661 283.981 38.2661C286.204 38.2661 288.461 38.6134 290.754 39.3081C293.046 39.9333 295.2 41.0795 297.214 42.7467C298.771 43.9817 300.1 45.5695 301.201 47.5101C301.524 48.0801 301.828 48.6805 302.112 49.3113L313.157 41.7047C310.725 36.9115 307.009 33.0214 302.007 30.0343C297.075 27.0472 291.205 25.5537 284.398 25.5537C278.632 25.5537 273.491 26.6304 268.976 28.7839C264.461 30.8679 260.64 33.716 257.514 37.3283C254.388 40.8711 251.991 44.8307 250.324 49.2071C248.726 53.514 247.928 57.9252 247.928 62.4405C247.928 67.0948 248.796 71.7143 250.533 76.2991C252.339 80.8145 254.805 84.913 257.931 88.5948C261.126 92.207 264.912 95.1246 269.289 97.3476C273.665 99.5011 278.493 100.578 283.772 100.578C287.801 100.578 291.865 99.9178 295.964 98.598C300.062 97.2781 303.744 95.333 307.009 92.7628C310.343 90.1925 312.74 87.0665 314.199 83.3848L302.424 76.6117C302.159 77.2413 301.868 77.8431 301.552 78.4173C300.542 80.2509 299.269 81.8025 297.735 83.0722C295.721 84.7394 293.532 85.955 291.171 86.7192C288.809 87.4833 286.482 87.8654 284.189 87.8654C280.994 87.8654 278.041 87.2054 275.332 85.8856ZM330.201 93.9197L330.191 93.9093C327.587 91.0822 325.579 87.8452 324.171 84.212C322.759 80.5712 322.055 76.7479 322.055 72.7563C322.055 68.7 322.757 64.8416 324.171 61.1965C325.579 57.5633 327.587 54.3263 330.191 51.4992L330.201 51.4888L330.21 51.4786C332.912 48.6269 336.168 46.4232 339.951 44.8632C343.775 43.2163 348.04 42.4139 352.711 42.4139C357.378 42.4139 361.611 43.2151 365.373 44.8661C369.153 46.4259 372.407 48.6286 375.107 51.4786C377.79 54.3111 379.809 57.5608 381.153 61.2141C382.562 64.854 383.261 68.7065 383.261 72.7563C383.261 76.7415 382.56 80.5589 381.153 84.1945C379.81 87.8433 377.795 91.0893 375.117 93.9193C372.483 96.7757 369.262 99.0138 365.486 100.643L365.47 100.649L365.455 100.656C361.635 102.229 357.376 102.995 352.711 102.995C348.045 102.995 343.786 102.229 339.966 100.656L339.951 100.649L339.935 100.643C336.159 99.0138 332.909 96.7782 330.21 93.9299L330.201 93.9197ZM373.655 92.5544C376.156 89.9146 378.031 86.8928 379.282 83.489C380.601 80.0851 381.261 76.5075 381.261 72.7563C381.261 68.9357 380.601 65.3234 379.282 61.9195C378.031 58.5157 376.156 55.4939 373.655 52.8541C371.154 50.2144 368.132 48.1651 364.589 46.7063C361.116 45.178 357.156 44.4139 352.711 44.4139C348.265 44.4139 344.27 45.178 340.728 46.7063C337.185 48.1651 334.163 50.2144 331.662 52.8541C329.231 55.4939 327.355 58.5157 326.035 61.9195C324.715 65.3234 324.055 68.9357 324.055 72.7563C324.055 76.5075 324.715 80.0851 326.035 83.489C327.355 86.8928 329.231 89.9146 331.662 92.5544C334.163 95.1941 337.185 97.2781 340.728 98.8064C344.27 100.265 348.265 100.995 352.711 100.995C357.156 100.995 361.151 100.265 364.694 98.8064C368.236 97.2781 371.223 95.1941 373.655 92.5544ZM363.232 80.2724L363.237 80.263C364.387 78.0856 364.986 75.5651 364.986 72.6521C364.986 69.8165 364.39 67.3291 363.237 65.1454L363.227 65.126L363.217 65.1064C362.112 62.8959 360.641 61.235 358.816 60.0573C356.996 58.883 354.978 58.2927 352.711 58.2927C350.384 58.2927 348.346 58.9119 346.538 60.1368L346.52 60.1493L346.501 60.1615C344.675 61.3392 343.205 63.0001 342.1 65.2106L342.094 65.2207L342.089 65.2308C341.007 67.335 340.435 69.8254 340.435 72.7563C340.435 75.6807 341.005 78.2115 342.094 80.3947C343.194 82.5316 344.664 84.1662 346.501 85.3512C348.312 86.5198 350.363 87.1158 352.711 87.1158C354.97 87.1158 356.982 86.5295 358.797 85.3633C360.65 84.1037 362.126 82.4236 363.228 80.2819L363.232 80.2724ZM359.9 87.0318C357.747 88.4211 355.35 89.1158 352.711 89.1158C350.001 89.1158 347.57 88.4211 345.417 87.0318C343.263 85.6424 341.561 83.7321 340.311 81.3008C339.06 78.8 338.435 75.9518 338.435 72.7563C338.435 69.5609 339.06 66.7475 340.311 64.3161C341.561 61.8153 343.263 59.8703 345.417 58.4809C347.57 57.0221 350.001 56.2927 352.711 56.2927C355.35 56.2927 357.747 56.9874 359.9 58.3767C362.054 59.7661 363.756 61.7111 365.006 64.2119C366.326 66.7127 366.986 69.5261 366.986 72.6521C366.986 75.8476 366.326 78.6958 365.006 81.1966C363.756 83.6279 362.054 85.573 359.9 87.0318ZM482.715 101.953H464.752V69.3177C464.752 65.1702 464.002 62.541 462.866 61.0443L462.843 61.0138L462.821 60.9824C461.753 59.4566 460.328 58.7095 458.312 58.7095C456.18 58.7095 454.022 59.5433 451.802 61.4553L451.798 61.4582C449.75 63.2135 448.237 65.5285 447.287 68.4781V101.953H429.324V69.3177C429.324 65.0919 428.57 62.4328 427.438 60.9401L427.425 60.9224L427.412 60.9043C426.355 59.4455 424.928 58.7095 422.884 58.7095C420.735 58.7095 418.573 59.522 416.359 61.3632C414.317 63.1173 412.807 65.4294 411.859 68.3738V101.953H393.896V43.3517H410.504V49.5865C412.081 48.0007 413.873 46.6625 415.877 45.5786C419.684 43.4502 424.018 42.4139 428.823 42.4139C433.649 42.4139 437.688 43.6032 440.665 46.244C442.456 47.7945 443.851 49.5841 444.841 51.6009C446.79 49.1731 449.07 47.199 451.686 45.7029C455.485 43.5005 459.724 42.4139 464.355 42.4139C467.967 42.4139 471.093 43.0714 473.582 44.5543C476.033 45.9055 477.959 47.7894 479.321 50.1881C480.633 52.4289 481.503 54.9478 481.955 57.7188C482.462 60.4042 482.715 63.1248 482.715 65.8791V101.953ZM477.589 51.1869C476.408 49.1029 474.741 47.4704 472.587 46.2895C470.503 45.0391 467.759 44.4139 464.355 44.4139C460.048 44.4139 456.158 45.4212 452.685 47.4357C449.991 48.9748 447.668 51.0794 445.714 53.7495C445.198 54.4537 444.709 55.1972 444.245 55.9801C444.057 55.0997 443.802 54.2572 443.478 53.4525C442.601 51.2732 441.224 49.3718 439.347 47.7483C436.846 45.5254 433.338 44.4139 428.823 44.4139C424.308 44.4139 420.313 45.3864 416.84 47.3315C414.379 48.6603 412.267 50.4074 410.504 52.5729C409.778 53.4641 409.112 54.4262 408.504 55.4591V45.3517H395.896V99.9526H409.859V68.0673C410.901 64.6635 412.637 61.9195 415.069 59.8355C417.569 57.7515 420.174 56.7095 422.884 56.7095C425.523 56.7095 427.573 57.7168 429.031 59.7313C430.56 61.7459 431.324 64.9413 431.324 69.3177V99.9526H445.287V68.1715C446.329 64.7677 448.065 62.0237 450.497 59.9397C452.997 57.7863 455.602 56.7095 458.312 56.7095C460.951 56.7095 463.001 57.7515 464.459 59.8355C465.988 61.8501 466.752 65.0108 466.752 69.3177V99.9526H480.715V65.8791C480.715 63.2394 480.472 60.6344 479.985 58.0641C479.569 55.4939 478.77 53.2014 477.589 51.1869ZM512.273 101.953H496.081V21.8865H514.044V49.0932C515.411 47.7182 516.937 46.5231 518.622 45.5123L518.63 45.5074L518.638 45.5025C522.183 43.4221 526.259 42.4139 530.8 42.4139C534.634 42.4139 538.181 43.2422 541.402 44.9257C544.578 46.5171 547.298 48.7499 549.552 51.6016C551.861 54.4349 553.604 57.6679 554.786 61.2824C556.042 64.908 556.662 68.7719 556.662 72.8605C556.662 76.9762 555.964 80.8652 554.552 84.5103C553.222 88.1257 551.331 91.3535 548.878 94.1783L548.869 94.1883L548.86 94.1982C546.387 96.9714 543.458 99.1495 540.086 100.723L540.077 100.727L540.068 100.731C536.727 102.25 533.072 102.995 529.133 102.995C524.654 102.995 520.587 101.983 516.987 99.9154C515.235 98.9087 513.662 97.7161 512.273 96.3404V101.953ZM510.273 90.4704C510.869 91.5086 511.536 92.4766 512.273 93.3743C513.853 95.2997 515.757 96.902 517.983 98.1812C521.248 100.057 524.965 100.995 529.133 100.995C532.815 100.995 536.184 100.3 539.24 98.9106C542.366 97.4518 545.075 95.4372 547.368 92.867C549.66 90.2272 551.432 87.2054 552.682 83.8016C554.002 80.3977 554.662 76.7507 554.662 72.8605C554.662 68.9704 554.071 65.3234 552.89 61.9195C551.779 58.5157 550.146 55.4939 547.993 52.8541C545.909 50.2144 543.408 48.1651 540.491 46.7063C537.573 45.178 534.343 44.4139 530.8 44.4139C526.562 44.4139 522.846 45.3517 519.651 47.2273C517.503 48.5158 515.634 50.1322 514.044 52.0765C513.319 52.9623 512.653 53.9162 512.044 54.9381V23.8865H498.081V99.9526H510.273V90.4704ZM534.648 82.9618L534.666 82.9432C535.857 81.6922 536.754 80.2326 537.357 78.5441L537.363 78.5257L537.37 78.5074C538.048 76.7194 538.386 74.8757 538.386 72.9647C538.386 70.2664 537.824 67.8316 536.722 65.6274L536.707 65.5979L536.693 65.5679C535.648 63.2928 534.199 61.5271 532.352 60.2161L532.339 60.2071L532.326 60.1979C530.621 58.947 528.579 58.2927 526.111 58.2927C524.433 58.2927 522.802 58.6946 521.196 59.527L521.183 59.5338L521.17 59.5404C519.606 60.3227 518.173 61.4124 516.872 62.833C515.718 64.1643 514.775 65.66 514.044 67.3289V79.6383C514.384 80.6613 514.886 81.5808 515.554 82.4084C516.394 83.3637 517.353 84.2035 518.435 84.9291C519.549 85.6072 520.686 86.1604 521.847 86.5923C523.047 86.9468 524.188 87.1158 525.277 87.1158C527.239 87.1158 528.958 86.7505 530.469 86.0559C532.118 85.2595 533.498 84.2328 534.631 82.9807L534.648 82.9618ZM521.214 88.4906C519.894 88.0043 518.609 87.3791 517.358 86.615C516.108 85.7814 514.996 84.8088 514.024 83.6974C513.121 82.5859 512.461 81.3355 512.044 79.9462V66.9211C512.878 64.9066 513.989 63.1005 515.378 61.5027C516.837 59.905 518.47 58.6546 520.276 57.7515C522.151 56.779 524.096 56.2927 526.111 56.2927C528.959 56.2927 531.425 57.0569 533.509 58.5851C535.663 60.1134 537.33 62.1627 538.511 64.7329C539.761 67.2337 540.386 69.9777 540.386 72.9647C540.386 75.1182 540.004 77.2022 539.24 79.2167C538.546 81.1618 537.504 82.8638 536.114 84.3226C534.794 85.7814 533.197 86.9623 531.321 87.8654C529.515 88.699 527.5 89.1158 525.277 89.1158C523.958 89.1158 522.603 88.9074 521.214 88.4906ZM572.038 51.4888L572.048 51.4786C574.75 48.627 578.005 46.4234 581.788 44.8634C585.613 43.2163 589.877 42.4139 594.548 42.4139C599.216 42.4139 603.45 43.2152 607.211 44.8663C610.991 46.4261 614.245 48.6287 616.945 51.4786C619.627 54.3102 621.646 57.5589 622.99 61.2109C624.4 64.8518 625.099 68.7053 625.099 72.7563C625.099 76.7427 624.398 80.5611 622.99 84.1976C621.647 87.8446 619.633 91.0893 616.956 93.9182C614.322 96.7753 611.101 99.0135 607.324 100.643L607.308 100.649L607.293 100.656C603.473 102.229 599.214 102.995 594.548 102.995C589.883 102.995 585.624 102.229 581.804 100.656L581.789 100.649L581.773 100.643C577.997 99.0138 574.747 96.7782 572.048 93.9299L572.038 93.9197L572.029 93.9093C569.425 91.0822 567.417 87.8452 566.008 84.212C564.597 80.5712 563.893 76.7479 563.893 72.7563C563.893 68.7 564.595 64.8416 566.008 61.1965C567.417 57.5633 569.425 54.3263 572.029 51.4992L572.038 51.4888ZM615.493 92.5544C617.994 89.9146 619.869 86.8928 621.12 83.489C622.439 80.0851 623.099 76.5075 623.099 72.7563C623.099 68.9357 622.439 65.3234 621.12 61.9195C619.869 58.5157 617.994 55.4939 615.493 52.8541C612.992 50.2144 609.97 48.1651 606.427 46.7063C602.954 45.178 598.994 44.4139 594.548 44.4139C590.103 44.4139 586.108 45.178 582.565 46.7063C579.023 48.1651 576.001 50.2144 573.5 52.8541C571.069 55.4939 569.193 58.5157 567.873 61.9195C566.553 65.3234 565.893 68.9357 565.893 72.7563C565.893 76.5075 566.553 80.0851 567.873 83.489C569.193 86.8928 571.069 89.9146 573.5 92.5544C576.001 95.1941 579.023 97.2781 582.565 98.8064C586.108 100.265 590.103 100.995 594.548 100.995C598.994 100.995 602.989 100.265 606.531 98.8064C610.074 97.2781 613.061 95.1941 615.493 92.5544ZM605.07 80.2724L605.075 80.263C606.225 78.0856 606.824 75.5651 606.824 72.6521C606.824 69.8165 606.228 67.3291 605.075 65.1454L605.065 65.126L605.055 65.1064C603.95 62.8959 602.479 61.235 600.654 60.0573C598.834 58.883 596.816 58.2927 594.548 58.2927C592.222 58.2927 590.184 58.9119 588.376 60.1368L588.358 60.1493L588.339 60.1615C586.513 61.3392 585.043 63.0001 583.938 65.2106L583.932 65.2207L583.927 65.2308C582.845 67.335 582.273 69.8254 582.273 72.7563C582.273 75.6807 582.843 78.2116 583.932 80.3947C585.032 82.5316 586.502 84.1662 588.339 85.3512C590.15 86.5198 592.201 87.1158 594.548 87.1158C596.808 87.1158 598.82 86.5297 600.635 85.3637C602.488 84.104 603.964 82.4238 605.065 80.2819L605.07 80.2724ZM601.738 87.0318C599.585 88.4211 597.188 89.1158 594.548 89.1158C591.839 89.1158 589.408 88.4211 587.254 87.0318C585.101 85.6424 583.399 83.7321 582.149 81.3008C580.898 78.8 580.273 75.9518 580.273 72.7563C580.273 69.5609 580.898 66.7475 582.149 64.3161C583.399 61.8153 585.101 59.8703 587.254 58.4809C589.408 57.0221 591.839 56.2927 594.548 56.2927C597.188 56.2927 599.585 56.9874 601.738 58.3767C603.892 59.7661 605.594 61.7111 606.844 64.2119C608.164 66.7127 608.824 69.5261 608.824 72.6521C608.824 75.8476 608.164 78.6958 606.844 81.1966C605.594 83.6279 603.892 85.573 601.738 87.0318ZM666.656 75.5899L677.712 23.2411H693.263L682.206 75.5899H666.656ZM661.028 101.953L664.896 83.6772H680.447L676.579 101.953H661.028ZM669.122 73.5899H680.584L690.796 25.2411H679.334L669.122 73.5899ZM663.496 99.9526H674.958L677.979 85.6772H666.517L663.496 99.9526Z" fill="white"/>
<mask id="path-5-outside-1_155_3554" maskUnits="userSpaceOnUse" x="321.453" y="41.2886" width="63" height="63" fill="black">
<rect fill="white" x="321.453" y="41.2886" width="63" height="63"/>
<path fill-rule="evenodd" clip-rule="evenodd" d="M352.687 101.756C368.832 101.756 381.921 88.6679 381.921 72.5225C381.921 56.377 368.832 43.2886 352.687 43.2886C336.542 43.2886 323.453 56.377 323.453 72.5225C323.453 88.6679 336.542 101.756 352.687 101.756ZM356.377 67.4443L352.686 59.4976L348.996 67.4443L340.298 68.4985L346.715 74.4641L345.03 83.0624L352.686 78.8026L360.343 83.0624L358.658 74.4641L365.075 68.4985L356.377 67.4443Z"/>
</mask>
<path fill-rule="evenodd" clip-rule="evenodd" d="M352.687 101.756C368.832 101.756 381.921 88.6679 381.921 72.5225C381.921 56.377 368.832 43.2886 352.687 43.2886C336.542 43.2886 323.453 56.377 323.453 72.5225C323.453 88.6679 336.542 101.756 352.687 101.756ZM356.377 67.4443L352.686 59.4976L348.996 67.4443L340.298 68.4985L346.715 74.4641L345.03 83.0624L352.686 78.8026L360.343 83.0624L358.658 74.4641L365.075 68.4985L356.377 67.4443Z" fill="url(#paint11_linear_155_3554)"/>
<path d="M352.686 59.4976L354.5 58.6552L352.686 54.7492L350.873 58.6552L352.686 59.4976ZM356.377 67.4443L354.563 68.2867L355.032 69.2959L356.136 69.4298L356.377 67.4443ZM348.996 67.4443L349.237 69.4298L350.341 69.2959L350.81 68.2867L348.996 67.4443ZM340.298 68.4985L340.057 66.5131L335.782 67.0312L338.936 69.9634L340.298 68.4985ZM346.715 74.4641L348.678 74.8488L348.892 73.7569L348.077 72.9993L346.715 74.4641ZM345.03 83.0624L343.067 82.6777L342.239 86.9039L346.002 84.8101L345.03 83.0624ZM352.686 78.8026L353.659 77.0548L352.686 76.5139L351.714 77.0548L352.686 78.8026ZM360.343 83.0624L359.371 84.8101L363.134 86.9039L362.306 82.6777L360.343 83.0624ZM358.658 74.4641L357.296 72.9993L356.481 73.7569L356.695 74.8488L358.658 74.4641ZM365.075 68.4985L366.437 69.9634L369.591 67.0312L365.316 66.5131L365.075 68.4985ZM379.921 72.5225C379.921 87.5633 367.728 99.7564 352.687 99.7564V103.756C369.937 103.756 383.921 89.7725 383.921 72.5225H379.921ZM352.687 45.2886C367.728 45.2886 379.921 57.4816 379.921 72.5225H383.921C383.921 55.2725 369.937 41.2886 352.687 41.2886V45.2886ZM325.453 72.5225C325.453 57.4816 337.646 45.2886 352.687 45.2886V41.2886C335.437 41.2886 321.453 55.2725 321.453 72.5225H325.453ZM352.687 99.7564C337.646 99.7564 325.453 87.5633 325.453 72.5225H321.453C321.453 89.7725 335.437 103.756 352.687 103.756V99.7564ZM350.873 60.34L354.563 68.2867L358.191 66.6019L354.5 58.6552L350.873 60.34ZM350.81 68.2867L354.5 60.34L350.873 58.6552L347.182 66.6019L350.81 68.2867ZM340.538 70.484L349.237 69.4298L348.755 65.4588L340.057 66.5131L340.538 70.484ZM348.077 72.9993L341.659 67.0337L338.936 69.9634L345.353 75.9289L348.077 72.9993ZM346.992 83.4471L348.678 74.8488L344.752 74.0794L343.067 82.6777L346.992 83.4471ZM351.714 77.0548L344.057 81.3147L346.002 84.8101L353.659 80.5503L351.714 77.0548ZM361.316 81.3147L353.659 77.0548L351.714 80.5503L359.371 84.8101L361.316 81.3147ZM356.695 74.8488L358.381 83.4471L362.306 82.6777L360.621 74.0794L356.695 74.8488ZM363.714 67.0337L357.296 72.9993L360.02 75.9289L366.437 69.9634L363.714 67.0337ZM356.136 69.4298L364.835 70.484L365.316 66.5131L356.618 65.4588L356.136 69.4298Z" fill="white" mask="url(#path-5-outside-1_155_3554)"/>
<mask id="path-7-outside-2_155_3554" maskUnits="userSpaceOnUse" x="564.252" y="41.2886" width="63" height="63" fill="black">
<rect fill="white" x="564.252" y="41.2886" width="63" height="63"/>
<path fill-rule="evenodd" clip-rule="evenodd" d="M595.486 101.756C611.631 101.756 624.72 88.6679 624.72 72.5225C624.72 56.377 611.631 43.2886 595.486 43.2886C579.34 43.2886 566.252 56.377 566.252 72.5225C566.252 88.6679 579.34 101.756 595.486 101.756ZM599.176 67.4443L595.485 59.4976L591.795 67.4443L583.097 68.4985L589.514 74.4641L587.829 83.0624L595.485 78.8026L603.142 83.0624L601.457 74.4641L607.874 68.4985L599.176 67.4443Z"/>
</mask>
<path fill-rule="evenodd" clip-rule="evenodd" d="M595.486 101.756C611.631 101.756 624.72 88.6679 624.72 72.5225C624.72 56.377 611.631 43.2886 595.486 43.2886C579.34 43.2886 566.252 56.377 566.252 72.5225C566.252 88.6679 579.34 101.756 595.486 101.756ZM599.176 67.4443L595.485 59.4976L591.795 67.4443L583.097 68.4985L589.514 74.4641L587.829 83.0624L595.485 78.8026L603.142 83.0624L601.457 74.4641L607.874 68.4985L599.176 67.4443Z" fill="url(#paint12_linear_155_3554)"/>
<path d="M595.485 59.4976L597.299 58.6552L595.485 54.7492L593.671 58.6552L595.485 59.4976ZM599.176 67.4443L597.362 68.2867L597.831 69.2959L598.935 69.4298L599.176 67.4443ZM591.795 67.4443L592.035 69.4298L593.14 69.2959L593.609 68.2867L591.795 67.4443ZM583.097 68.4985L582.856 66.5131L578.581 67.0312L581.735 69.9634L583.097 68.4985ZM589.514 74.4641L591.477 74.8488L591.691 73.7569L590.876 72.9993L589.514 74.4641ZM587.829 83.0624L585.866 82.6777L585.038 86.9039L588.801 84.8101L587.829 83.0624ZM595.485 78.8026L596.458 77.0548L595.485 76.5139L594.513 77.0548L595.485 78.8026ZM603.142 83.0624L602.17 84.8101L605.933 86.9039L605.105 82.6777L603.142 83.0624ZM601.457 74.4641L600.095 72.9993L599.28 73.7569L599.494 74.8488L601.457 74.4641ZM607.874 68.4985L609.236 69.9634L612.39 67.0312L608.115 66.5131L607.874 68.4985ZM622.72 72.5225C622.72 87.5633 610.527 99.7564 595.486 99.7564V103.756C612.736 103.756 626.72 89.7725 626.72 72.5225H622.72ZM595.486 45.2886C610.527 45.2886 622.72 57.4816 622.72 72.5225H626.72C626.72 55.2725 612.736 41.2886 595.486 41.2886V45.2886ZM568.252 72.5225C568.252 57.4816 580.445 45.2886 595.486 45.2886V41.2886C578.236 41.2886 564.252 55.2725 564.252 72.5225H568.252ZM595.486 99.7564C580.445 99.7564 568.252 87.5633 568.252 72.5225H564.252C564.252 89.7725 578.236 103.756 595.486 103.756V99.7564ZM593.671 60.34L597.362 68.2867L600.99 66.6019L597.299 58.6552L593.671 60.34ZM593.609 68.2867L597.299 60.34L593.671 58.6552L589.981 66.6019L593.609 68.2867ZM583.337 70.484L592.035 69.4298L591.554 65.4588L582.856 66.5131L583.337 70.484ZM590.876 72.9993L584.458 67.0337L581.735 69.9634L588.152 75.9289L590.876 72.9993ZM589.791 83.4471L591.477 74.8488L587.551 74.0794L585.866 82.6777L589.791 83.4471ZM594.513 77.0548L586.856 81.3147L588.801 84.8101L596.458 80.5503L594.513 77.0548ZM604.114 81.3147L596.458 77.0548L594.513 80.5503L602.17 84.8101L604.114 81.3147ZM599.494 74.8488L601.179 83.4471L605.105 82.6777L603.419 74.0794L599.494 74.8488ZM606.512 67.0337L600.095 72.9993L602.818 75.9289L609.236 69.9634L606.512 67.0337ZM598.935 69.4298L607.633 70.484L608.115 66.5131L599.416 65.4588L598.935 69.4298Z" fill="white" mask="url(#path-7-outside-2_155_3554)"/>
</g>
<defs>
<filter id="filter0_d_155_3554" x="2.02441" y="9.88647" width="703.238" height="105.87" filterUnits="userSpaceOnUse" color-interpolation-filters="sRGB">
<feFlood flood-opacity="0" result="BackgroundImageFix"/>
<feColorMatrix in="SourceAlpha" type="matrix" values="0 0 0 0 0 0 0 0 0 0 0 0 0 0 0 0 0 0 127 0" result="hardAlpha"/>
<feOffset/>
<feGaussianBlur stdDeviation="6"/>
<feComposite in2="hardAlpha" operator="out"/>
<feColorMatrix type="matrix" values="0 0 0 0 1 0 0 0 0 1 0 0 0 0 1 0 0 0 1 0"/>
<feBlend mode="overlay" in2="BackgroundImageFix" result="effect1_dropShadow_155_3554"/>
<feBlend mode="normal" in="SourceGraphic" in2="effect1_dropShadow_155_3554" result="shape"/>
</filter>
<linearGradient id="paint0_linear_155_3554" x1="223.03" y1="20.6198" x2="223.03" y2="99.144" gradientUnits="userSpaceOnUse">
<stop stop-color="#5B39F4"/>
<stop offset="0.489583" stop-color="#BD8FE1"/>
<stop offset="1" stop-color="#FFBD31"/>
</linearGradient>
<linearGradient id="paint1_linear_155_3554" x1="223.03" y1="20.8659" x2="223.03" y2="99.3901" gradientUnits="userSpaceOnUse">
<stop stop-color="#5B39F4"/>
<stop offset="0.489583" stop-color="#BD8FE1"/>
<stop offset="1" stop-color="#FFBD31"/>
</linearGradient>
<linearGradient id="paint2_linear_155_3554" x1="223.03" y1="20.8659" x2="223.03" y2="99.3901" gradientUnits="userSpaceOnUse">
<stop stop-color="#5B39F4"/>
<stop offset="0.489583" stop-color="#BD8FE1"/>
<stop offset="1" stop-color="#FFBD31"/>
</linearGradient>
<linearGradient id="paint3_linear_155_3554" x1="223.03" y1="20.8659" x2="223.03" y2="99.3901" gradientUnits="userSpaceOnUse">
<stop stop-color="#5B39F4"/>
<stop offset="0.489583" stop-color="#BD8FE1"/>
<stop offset="1" stop-color="#FFBD31"/>
</linearGradient>
<linearGradient id="paint4_linear_155_3554" x1="223.03" y1="20.8659" x2="223.03" y2="99.3901" gradientUnits="userSpaceOnUse">
<stop stop-color="#5B39F4"/>
<stop offset="0.489583" stop-color="#BD8FE1"/>
<stop offset="1" stop-color="#FFBD31"/>
</linearGradient>
<linearGradient id="paint5_linear_155_3554" x1="223.03" y1="20.8659" x2="223.03" y2="99.3901" gradientUnits="userSpaceOnUse">
<stop stop-color="#5B39F4"/>
<stop offset="0.489583" stop-color="#BD8FE1"/>
<stop offset="1" stop-color="#FFBD31"/>
</linearGradient>
<linearGradient id="paint6_linear_155_3554" x1="223.03" y1="20.8659" x2="223.03" y2="99.3901" gradientUnits="userSpaceOnUse">
<stop stop-color="#5B39F4"/>
<stop offset="0.489583" stop-color="#BD8FE1"/>
<stop offset="1" stop-color="#FFBD31"/>
</linearGradient>
<linearGradient id="paint7_linear_155_3554" x1="223.03" y1="20.8659" x2="223.03" y2="99.3901" gradientUnits="userSpaceOnUse">
<stop stop-color="#5B39F4"/>
<stop offset="0.489583" stop-color="#BD8FE1"/>
<stop offset="1" stop-color="#FFBD31"/>
</linearGradient>
<linearGradient id="paint8_linear_155_3554" x1="223.03" y1="20.8659" x2="223.03" y2="99.3901" gradientUnits="userSpaceOnUse">
<stop stop-color="#5B39F4"/>
<stop offset="0.489583" stop-color="#BD8FE1"/>
<stop offset="1" stop-color="#FFBD31"/>
</linearGradient>
<linearGradient id="paint9_linear_155_3554" x1="223.03" y1="20.8659" x2="223.03" y2="99.3901" gradientUnits="userSpaceOnUse">
<stop stop-color="#5B39F4"/>
<stop offset="0.489583" stop-color="#BD8FE1"/>
<stop offset="1" stop-color="#FFBD31"/>
</linearGradient>
<linearGradient id="paint10_linear_155_3554" x1="223.03" y1="20.8659" x2="223.03" y2="99.3901" gradientUnits="userSpaceOnUse">
<stop stop-color="#5B39F4"/>
<stop offset="0.489583" stop-color="#BD8FE1"/>
<stop offset="1" stop-color="#FFBD31"/>
</linearGradient>
<linearGradient id="paint11_linear_155_3554" x1="341.861" y1="52.6028" x2="341.861" y2="89.332" gradientUnits="userSpaceOnUse">
<stop stop-color="#5B39F4"/>
<stop offset="0.489583" stop-color="#BD8FE1"/>
<stop offset="1" stop-color="#FFBD31"/>
</linearGradient>
<linearGradient id="paint12_linear_155_3554" x1="584.66" y1="52.6028" x2="584.66" y2="89.332" gradientUnits="userSpaceOnUse">
<stop stop-color="#5B39F4"/>
<stop offset="0.489583" stop-color="#BD8FE1"/>
<stop offset="1" stop-color="#FFBD31"/>
</linearGradient>
</defs>
</svg>
