<svg width="139" height="28" viewBox="0 0 139 28" fill="none" xmlns="http://www.w3.org/2000/svg">
<g clip-path="url(#clip0_464_770)">
<path d="M53.5247 1H64.0001C65.657 1 67.0001 2.34315 67.0001 4V4.70559C67.0001 6.36244 65.657 7.70559 64.0001 7.70559H58.5487C57.9964 7.70559 57.5487 8.1533 57.5487 8.70559V9.27851V10.5464C57.5487 11.0986 57.9964 11.5464 58.5487 11.5464H63.0188C64.6757 11.5464 66.0188 12.8895 66.0188 14.5464V14.6674C66.0188 16.3242 64.6757 17.6674 63.0188 17.6674H58.5487C57.9964 17.6674 57.5487 18.1151 57.5487 18.6674V19.8444C57.5487 20.3967 57.9964 20.8444 58.5487 20.8444H63.6167C65.2736 20.8444 66.6167 22.1875 66.6167 23.8444V24C66.6167 25.6569 65.2736 27 63.6167 27H53.5247C51.8678 27 50.5247 25.6569 50.5247 24V4C50.5247 2.34315 51.8678 1 53.5247 1Z" fill="#2D3F58"/>
<path d="M26.3606 24V4C26.3606 2.34315 27.7037 1 29.3606 1H30.6047C32.2616 1 33.6047 2.34315 33.6047 4V10.1019C33.6047 10.6542 34.0524 11.1019 34.6047 11.1019H38.2642C38.8165 11.1019 39.2642 10.6542 39.2642 10.1019V4C39.2642 2.34315 40.6073 1 42.2642 1H43.131C44.7879 1 46.131 2.34315 46.131 4V24C46.131 25.6569 44.7879 27 43.131 27H42.2642C40.6073 27 39.2642 25.6569 39.2642 24V19.3885C39.2642 18.8363 38.8165 18.3885 38.2642 18.3885H34.6047C34.0524 18.3885 33.6047 18.8363 33.6047 19.3885V24C33.6047 25.6569 32.2616 27 30.6047 27H29.3606C27.7037 27 26.3606 25.6569 26.3606 24Z" fill="#2D3F58"/>
<path d="M21.4012 1H3C1.34315 1 0 2.34315 0 4V4.96494C0 6.62179 1.34315 7.96494 3 7.96494H7.78689C8.33917 7.96494 8.78689 8.41265 8.78689 8.96494V24C8.78689 25.6569 10.13 27 11.7869 27H12.377C14.0339 27 15.377 25.6569 15.377 24V8.96494C15.377 8.41265 15.8248 7.96494 16.3771 7.96494H21.4012C23.0581 7.96494 24.4012 6.62179 24.4012 4.96494V4C24.4012 2.34315 23.0581 1 21.4012 1Z" fill="#2D3F58"/>
<path d="M125.878 0.636475H135.553C137.457 0.636475 139 2.17956 139 4.08305C139 5.98654 137.457 7.52963 135.553 7.52963H129.715C128.822 7.52963 128.098 8.25355 128.098 9.14655V10.0821C128.098 10.8529 128.723 11.4778 129.494 11.4778H134.722C136.46 11.4778 137.868 12.8864 137.868 14.6239C137.868 16.3615 136.46 17.7701 134.722 17.7701H129.494C128.723 17.7701 128.098 18.3949 128.098 19.1658V19.8054C128.098 20.485 128.649 21.0359 129.329 21.0359H135.394C137.141 21.0359 138.558 22.4524 138.558 24.1998C138.558 25.9472 137.141 27.3637 135.394 27.3637H124.404C122.319 27.3637 120.63 25.6739 120.63 23.5894V5.88515C120.63 2.98639 122.98 0.636475 125.878 0.636475Z" fill="#2D3F58"/>
<path d="M99.7318 8.5162L98.6821 4.66723C98.5726 4.26576 98.7261 3.83344 99.0709 3.60042C107.77 -2.27891 114.552 2.77388 115.443 5.56198C117.5 12 114.387 18.4808 110.5 21.3779H115.037C115.589 21.3779 116.037 21.8256 116.037 22.3779V26.5C116.037 27.0523 115.589 27.5 115.037 27.5H102.135C101.583 27.5 101.135 27.0523 101.135 26.5V21.9155C101.135 21.5798 101.307 21.2661 101.583 21.0764C104.899 18.804 105.936 17.1482 106.514 15.9021L106.539 15.8484C107.125 14.5857 107.746 13.246 107.712 11.857C107.607 7.597 103.529 8.47438 100.976 9.21093C100.438 9.36615 99.8791 9.05641 99.7318 8.5162Z" fill="#2D3F58"/>
<path d="M77 25.3636V2C77 0.895431 77.8954 0 79 0H93.2584C94.363 0 95.2584 0.895432 95.2584 2V5.31818C95.2584 6.42275 94.363 7.31818 93.2584 7.31818H85.912C85.3597 7.31818 84.912 7.7659 84.912 8.31818V11.3295C84.912 11.8818 85.3597 12.3295 85.912 12.3295H91.4325C92.5371 12.3295 93.4325 13.225 93.4325 14.3295V16.7727C93.4325 17.8773 92.5371 18.7727 91.4325 18.7727H85.912C85.3597 18.7727 84.912 19.2204 84.912 19.7727V26.3636C84.912 26.9159 84.4643 27.3636 83.912 27.3636H79C77.8954 27.3636 77 26.4682 77 25.3636Z" fill="#2D3F58"/>
</g>
<defs>
<clipPath id="clip0_464_770">
<rect width="139" height="28" fill="white"/>
</clipPath>
</defs>
</svg>
