<svg width="411" height="410" viewBox="0 0 411 410" fill="none" xmlns="http://www.w3.org/2000/svg">
<path d="M164.633 266.867H232.829C224.436 194.474 339.32 185.031 339.32 108.442C339.32 38.6718 283.714 3 207.649 3C151.518 3 105.355 28.7047 71.7812 67.524L114.797 106.868C140.502 80.1141 166.731 65.4257 198.731 65.4257C240.173 65.4257 265.353 83.2616 265.353 115.261C265.353 166.146 153.617 184.507 164.633 266.867ZM199.256 406.931C225.485 406.931 245.419 387.521 245.419 360.243C245.419 332.964 225.485 314.079 199.256 314.079C172.502 314.079 152.567 332.964 152.567 360.243C152.567 387.521 171.977 406.931 199.256 406.931Z" fill="white" fill-opacity="0.05"/>
</svg>
