<svg width="101" height="101" viewBox="0 0 101 101" fill="none" xmlns="http://www.w3.org/2000/svg">
<path d="M50.153 2.7417L52.4729 41.1556C52.5531 42.484 52.5932 43.1482 52.9669 43.4258C53.0839 43.5128 53.2185 43.5731 53.3613 43.6026C53.8172 43.6966 54.3396 43.2845 55.3845 42.4602L69.6126 31.2358L58.3881 45.4639C57.5639 46.5087 57.1518 47.0312 57.2458 47.4871C57.2753 47.6299 57.3356 47.7645 57.4226 47.8815C57.7002 48.2552 58.3644 48.2953 59.6928 48.3755L98.1067 50.6954L59.6928 53.0154C58.3644 53.0956 57.7002 53.1357 57.4226 53.5093C57.3356 53.6264 57.2753 53.761 57.2458 53.9038C57.1518 54.3597 57.5639 54.8821 58.3881 55.9269L69.6126 70.1551L55.3845 58.9306C54.3396 58.1064 53.8172 57.6942 53.3613 57.7883C53.2185 57.8177 53.0839 57.8781 52.9669 57.965C52.5932 58.2427 52.5531 58.9069 52.4729 60.2353L50.153 98.6492L47.833 60.2353C47.7528 58.9069 47.7127 58.2427 47.339 57.965C47.222 57.8781 47.0874 57.8177 46.9446 57.7883C46.4887 57.6942 45.9663 58.1064 44.9214 58.9306L30.6933 70.1551L41.9178 55.9269C42.742 54.8821 43.1541 54.3597 43.0601 53.9038C43.0306 53.761 42.9703 53.6264 42.8833 53.5093C42.6057 53.1357 41.9415 53.0956 40.6131 53.0154L2.19922 50.6954L40.6131 48.3755C41.9415 48.2953 42.6057 48.2552 42.8833 47.8815C42.9703 47.7645 43.0306 47.6299 43.0601 47.4871C43.1541 47.0312 42.742 46.5087 41.9178 45.4639L30.6933 31.2358L44.9214 42.4602C45.9663 43.2845 46.4887 43.6966 46.9446 43.6026C47.0874 43.5731 47.222 43.5128 47.339 43.4258C47.7127 43.1482 47.7528 42.484 47.833 41.1556L50.153 2.7417Z" fill="#FDB931"/>
</svg>
