<svg width="149" height="119" viewBox="0 0 149 119" fill="none" xmlns="http://www.w3.org/2000/svg">
<path d="M62.7754 104.534C45.5535 103.55 27.596 98.3578 14.5472 86.7338C0.138734 73.8987 -4.01748 57.6716 10.8188 42.8353C25.0604 28.5938 47.1325 21.5255 66.2632 17.4584C86.6281 13.1288 109.142 11.1632 129.886 14.0908C137.203 15.1234 144.761 17.2811 146.423 25.336C148.168 33.7944 146.804 43.5155 144.559 51.7353C136.601 80.8674 106.595 98.1689 78.5307 103.572C60.8822 106.969 9.7503 110.876 6.36883 83.4865C3.69459 61.8251 21.7177 38.858 40.5255 30.8083C61.1369 21.9866 98.9237 17.6181 116.175 35.7394C128.052 48.2145 128.582 68.0912 120.745 82.6446C107.142 107.908 74.3422 117.464 47.5011 117.643C37.6111 117.709 25.6054 116.831 18.5762 108.924C11.9043 101.418 9.06826 90.9591 9.37558 81.0811C10.3502 49.7535 29.496 27.4849 57.243 14.9327C77.5697 5.73728 114.44 -7.91962 133.735 10.8435C144.79 21.5942 145.637 41.9031 139.989 55.5839C130.695 78.0921 102.409 91.0625 80.5753 97.077C71.6169 99.5448 57.6467 103.593 48.7038 99.1216" stroke="#D96EE9" stroke-width="2" stroke-linecap="round"/>
</svg>
