<svg width="24" height="25" viewBox="0 0 24 25" fill="none" xmlns="http://www.w3.org/2000/svg">
<g clip-path="url(#clip0_28_2331)">
<circle cx="4.8" cy="19.7" r="4.3" stroke="white"/>
<path d="M18.2299 15.3122L5.81317 18.6157L9.11671 6.19899C9.88575 3.30846 12.4776 1.27781 15.4682 1.22277L23.3512 1.07768L23.2061 8.96074C23.1511 11.9513 21.1205 14.5432 18.2299 15.3122Z" stroke="white"/>
<path fill-rule="evenodd" clip-rule="evenodd" d="M13.5936 8.12012C14.3434 7.37032 15.5591 7.37032 16.3089 8.12012C17.0587 8.86993 17.0587 10.0856 16.3089 10.8354C15.6461 11.4982 14.6192 11.5751 13.872 11.0661L5.87196 19.0661C5.73137 19.2067 5.50343 19.2067 5.36285 19.0661C5.22226 18.9255 5.22226 18.6976 5.36285 18.557L13.3628 10.557C12.8539 9.80975 12.9308 8.78292 13.5936 8.12012Z" fill="white"/>
</g>
<defs>
<clipPath id="clip0_28_2331">
<rect width="24" height="24" fill="white" transform="translate(0 0.5)"/>
</clipPath>
</defs>
</svg>
