<svg width="402" height="42" viewBox="0 0 402 42" fill="none" xmlns="http://www.w3.org/2000/svg">
<path d="M2.74121 34.8699V26.3499H8.33321V27.0939H3.58121V30.2259H7.58921V30.9219H3.58121V34.8699H2.74121Z" fill="#6340F3"/>
<path d="M11.9412 34.9899C11.4932 34.9899 11.0772 34.9059 10.6932 34.7379C10.3092 34.5619 9.97718 34.3259 9.69718 34.0299C9.41718 33.7259 9.19718 33.3779 9.03718 32.9859C8.88518 32.5939 8.80918 32.1739 8.80918 31.7259C8.80918 31.1419 8.94118 30.6059 9.20518 30.1179C9.47718 29.6299 9.84918 29.2419 10.3212 28.9539C10.7932 28.6579 11.3292 28.5099 11.9292 28.5099C12.5452 28.5099 13.0812 28.6579 13.5372 28.9539C14.0012 29.2499 14.3652 29.6419 14.6292 30.1299C14.8932 30.6099 15.0252 31.1379 15.0252 31.7139C15.0252 31.7779 15.0252 31.8419 15.0252 31.9059C15.0252 31.9619 15.0212 32.0059 15.0132 32.0379H9.66118C9.70118 32.4859 9.82518 32.8859 10.0332 33.2379C10.2492 33.5819 10.5252 33.8579 10.8612 34.0659C11.2052 34.2659 11.5772 34.3659 11.9772 34.3659C12.3852 34.3659 12.7692 34.2619 13.1292 34.0539C13.4972 33.8459 13.7532 33.5739 13.8972 33.2379L14.6052 33.4299C14.4772 33.7259 14.2812 33.9939 14.0172 34.2339C13.7532 34.4739 13.4412 34.6619 13.0812 34.7979C12.7292 34.9259 12.3492 34.9899 11.9412 34.9899ZM9.63718 31.4499H14.2572C14.2252 30.9939 14.1012 30.5939 13.8852 30.2499C13.6772 29.9059 13.4012 29.6379 13.0572 29.4459C12.7212 29.2459 12.3492 29.1459 11.9412 29.1459C11.5332 29.1459 11.1612 29.2459 10.8252 29.4459C10.4892 29.6379 10.2132 29.9099 9.99718 30.2619C9.78918 30.6059 9.66918 31.0019 9.63718 31.4499Z" fill="#6340F3"/>
<path d="M17.9801 34.8699L15.4481 28.6179H16.3001L18.4361 34.0539L20.5841 28.6179H21.3881L18.8561 34.8699H17.9801Z" fill="#6340F3"/>
<path d="M25.0076 34.9899C24.5596 34.9899 24.1436 34.9059 23.7596 34.7379C23.3756 34.5619 23.0436 34.3259 22.7636 34.0299C22.4836 33.7259 22.2636 33.3779 22.1036 32.9859C21.9516 32.5939 21.8756 32.1739 21.8756 31.7259C21.8756 31.1419 22.0076 30.6059 22.2716 30.1179C22.5436 29.6299 22.9156 29.2419 23.3876 28.9539C23.8596 28.6579 24.3956 28.5099 24.9956 28.5099C25.6116 28.5099 26.1476 28.6579 26.6036 28.9539C27.0676 29.2499 27.4316 29.6419 27.6956 30.1299C27.9596 30.6099 28.0916 31.1379 28.0916 31.7139C28.0916 31.7779 28.0916 31.8419 28.0916 31.9059C28.0916 31.9619 28.0876 32.0059 28.0796 32.0379H22.7276C22.7676 32.4859 22.8916 32.8859 23.0996 33.2379C23.3156 33.5819 23.5916 33.8579 23.9276 34.0659C24.2716 34.2659 24.6436 34.3659 25.0436 34.3659C25.4516 34.3659 25.8356 34.2619 26.1956 34.0539C26.5636 33.8459 26.8196 33.5739 26.9636 33.2379L27.6716 33.4299C27.5436 33.7259 27.3476 33.9939 27.0836 34.2339C26.8196 34.4739 26.5076 34.6619 26.1476 34.7979C25.7956 34.9259 25.4156 34.9899 25.0076 34.9899ZM22.7036 31.4499H27.3236C27.2916 30.9939 27.1676 30.5939 26.9516 30.2499C26.7436 29.9059 26.4676 29.6379 26.1236 29.4459C25.7876 29.2459 25.4156 29.1459 25.0076 29.1459C24.5996 29.1459 24.2276 29.2459 23.8916 29.4459C23.5556 29.6379 23.2796 29.9099 23.0636 30.2619C22.8556 30.6059 22.7356 31.0019 22.7036 31.4499Z" fill="#6340F3"/>
<path d="M32.4706 29.3379C31.9266 29.3539 31.4466 29.5059 31.0306 29.7939C30.6226 30.0819 30.3346 30.4779 30.1666 30.9819V34.8699H29.3506V28.6179H30.1186V30.1179C30.3346 29.6779 30.6186 29.3219 30.9706 29.0499C31.3306 28.7779 31.7106 28.6259 32.1106 28.5939C32.1906 28.5859 32.2586 28.5819 32.3146 28.5819C32.3786 28.5819 32.4306 28.5859 32.4706 28.5939V29.3379Z" fill="#6340F3"/>
<path d="M3.67419 1.37378H394.156C396.824 1.37378 398.744 3.93525 397.996 6.49567L388.939 37.4891C388.441 39.1948 386.877 40.3672 385.1 40.3672H241.954C241.367 40.3672 240.787 40.238 240.256 39.9888L189.048 15.9761C188.517 15.7269 187.937 15.5977 187.35 15.5977H4.67419C3.01733 15.5977 1.67419 14.2545 1.67419 12.5977V3.37378C1.67419 2.26921 2.56961 1.37378 3.67419 1.37378Z" stroke="white" stroke-width="2" stroke-linejoin="round"/>
<g clip-path="url(#clip0_155_3562)">
<path d="M3.67419 1.37378H394.156C396.824 1.37378 398.744 3.93525 397.996 6.49567L388.939 37.4891C388.441 39.1948 386.877 40.3672 385.1 40.3672H241.954C241.367 40.3672 240.787 40.238 240.256 39.9888L189.048 15.9761C188.517 15.7269 187.937 15.5977 187.35 15.5977H4.67419C3.01733 15.5977 1.67419 14.2545 1.67419 12.5977V3.37378C1.67419 2.26921 2.56961 1.37378 3.67419 1.37378Z" fill="url(#paint0_linear_155_3562)" stroke="white" stroke-width="2" stroke-linejoin="round"/>
</g>
<defs>
<linearGradient id="paint0_linear_155_3562" x1="292.981" y1="21.8096" x2="1.67418" y2="21.8094" gradientUnits="userSpaceOnUse">
<stop stop-color="#FFBD31"/>
<stop offset="0.489583" stop-color="#BD8FE1"/>
<stop offset="1" stop-color="#5B39F4"/>
</linearGradient>
<clipPath id="clip0_155_3562">
<rect width="398" height="39" fill="white" transform="translate(1.1748 2.0437)"/>
</clipPath>
</defs>
</svg>
