<svg width="718" height="140" viewBox="0 0 718 140" fill="none" xmlns="http://www.w3.org/2000/svg">
<g filter="url(#filter0_d_155_3555)">
<mask id="path-1-outside-1_155_3555" maskUnits="userSpaceOnUse" x="11.5137" y="24.3813" width="636" height="103" fill="black">
<rect fill="white" x="11.5137" y="24.3813" width="636" height="103"/>
<path fill-rule="evenodd" clip-rule="evenodd" d="M456.299 26.3813H442.336V89.8392C442.336 94.1462 443.517 97.4806 445.879 99.8425C448.31 102.135 451.714 103.281 456.09 103.281C458.105 103.281 460.363 103.038 462.863 102.552C465.364 102.065 467.552 101.371 469.428 100.468L467.552 89.8392C466.649 90.256 465.607 90.6034 464.426 90.8812C463.245 91.1591 462.099 91.298 460.988 91.298C459.529 91.298 458.383 90.8812 457.549 90.0476C456.716 89.1446 456.299 87.4426 456.299 84.9418V26.3813ZM64.0087 47.8466C63.5225 47.3603 62.6194 46.7004 61.2995 45.8668C60.0491 45.0332 58.4861 44.2343 56.6105 43.4702C54.8044 42.706 52.8246 42.0461 50.6711 41.4904C48.5177 40.8652 46.3295 40.5526 44.1065 40.5526C40.2164 40.5526 37.264 41.282 35.2495 42.7408C33.3044 44.1996 32.3319 46.2488 32.3319 48.8886C32.3319 50.9031 32.9571 52.5008 34.2075 53.6818C35.4579 54.8627 37.3335 55.87 39.8343 56.7036C42.3351 57.5372 45.4611 58.4403 49.2123 59.4128C54.075 60.5937 58.2777 62.0525 61.8205 63.7892C65.4328 65.4564 68.1767 67.6793 70.0523 70.458C71.9974 73.1672 72.97 76.7795 72.97 81.2948C72.97 85.2544 72.2406 88.6583 70.7817 91.5064C69.3229 94.2851 67.3084 96.5428 64.7381 98.2794C62.1679 100.016 59.2503 101.301 55.9853 102.135C52.7204 102.899 49.2471 103.281 45.5653 103.281C41.8836 103.281 38.2018 102.899 34.5201 102.135C30.8384 101.371 27.2956 100.294 23.8917 98.9046C20.4878 97.4458 17.3618 95.7092 14.5137 93.6946L20.8699 81.2948C21.4951 81.92 22.6066 82.7536 24.2043 83.7956C25.802 84.7682 27.7471 85.7754 30.0395 86.8174C32.3319 87.79 34.8327 88.6236 37.5419 89.3182C40.2511 90.0129 42.995 90.3602 45.7737 90.3602C49.6639 90.3602 52.6162 89.7003 54.6307 88.3804C56.6453 87.0606 57.6525 85.185 57.6525 82.7536C57.6525 80.5307 56.8537 78.794 55.2559 77.5436C53.6582 76.2932 51.4353 75.2165 48.5871 74.3134C45.739 73.3409 42.3698 72.2989 38.4797 71.1874C33.8254 69.8675 29.9353 68.4087 26.8093 66.811C23.6833 65.1438 21.3561 63.0598 19.8279 60.559C18.2996 58.0582 17.5355 54.9322 17.5355 51.181C17.5355 46.1099 18.7164 41.8724 21.0783 38.4686C23.5096 34.9952 26.7746 32.3902 30.8731 30.6536C34.9716 28.8474 39.5217 27.9443 44.5233 27.9443C47.9967 27.9443 51.2616 28.3264 54.3181 29.0905C57.4441 29.8547 60.3617 30.862 63.0709 32.1124C65.7801 33.3628 68.2115 34.7174 70.3649 36.1762L64.0087 47.8466ZM119.189 99.634C118.008 100.12 116.584 100.676 114.917 101.301C113.25 101.926 111.444 102.413 109.499 102.76C107.623 103.177 105.713 103.385 103.768 103.385C101.197 103.385 98.8355 102.934 96.682 102.031C94.5285 101.128 92.7919 99.7035 91.472 97.7585C90.2216 95.7439 89.5964 93.1389 89.5964 89.9434V58.5792H82.4066V47.8466H89.5964V30.1326H103.559V47.8466H115.021V58.5792H103.559V85.2544C103.629 87.13 104.15 88.4846 105.122 89.3182C106.095 90.1518 107.31 90.5686 108.769 90.5686C110.228 90.5686 111.652 90.3255 113.041 89.8392C114.431 89.353 115.542 88.9362 116.376 88.5888L119.189 99.634ZM130.838 77.0226C128.893 79.6624 127.92 82.7536 127.92 86.2964C127.92 89.5614 128.719 92.5137 130.317 95.1534C131.984 97.7237 134.242 99.773 137.09 101.301C140.007 102.76 143.272 103.489 146.884 103.489C150.566 103.489 154.178 102.656 157.721 100.989C161.264 99.3214 164.216 96.9596 166.578 93.903L166.891 96.7164C167.238 98.5226 168.107 100.051 169.496 101.301C170.955 102.552 173.073 103.177 175.852 103.177C176.547 103.177 177.38 103.107 178.353 102.968C179.395 102.83 180.541 102.656 181.792 102.447V91.0896C180.611 90.9507 179.742 90.5686 179.187 89.9434C178.7 89.3182 178.457 88.2762 178.457 86.8174V69.416C178.457 62.1915 176.269 56.6341 171.893 52.744C167.586 48.8538 161.542 46.9088 153.762 46.9088C149.594 46.9088 145.599 47.4992 141.779 48.6802C138.027 49.8611 134.346 51.6325 130.733 53.9944L135.214 63.164C138.201 61.1495 141.049 59.6212 143.758 58.5792C146.468 57.5372 149.316 57.0162 152.303 57.0162C156.332 57.0162 159.354 57.954 161.368 59.8296C163.452 61.7052 164.494 64.3797 164.494 67.853V70.7706C162.758 70.0065 160.708 69.4507 158.346 69.1034C155.985 68.7561 153.658 68.5824 151.365 68.5824C146.78 68.5824 142.716 69.3118 139.174 70.7706C135.631 72.2294 132.852 74.3134 130.838 77.0226ZM218.076 102.76C214.464 102.76 211.129 102.065 208.073 100.676C205.086 99.2173 202.481 97.2027 200.258 94.6324C198.104 92.0622 196.437 89.1098 195.256 85.7754C194.075 82.441 193.485 78.8982 193.485 75.147C193.485 71.1874 194.11 67.5057 195.36 64.1018C196.611 60.6979 198.347 57.7109 200.57 55.1406C202.863 52.5009 205.537 50.4863 208.594 49.097C211.72 47.6382 215.158 46.9088 218.91 46.9088C223.147 46.9088 226.864 47.8813 230.059 49.8264C233.254 51.702 235.894 54.2375 237.978 57.433V47.8466H250.17V99.8425C250.17 105.261 248.85 109.88 246.21 113.701C243.64 117.591 240.062 120.544 235.477 122.558C230.893 124.642 225.683 125.684 219.847 125.684C213.943 125.684 208.941 124.677 204.843 122.662C200.744 120.717 197.236 117.939 194.318 114.326L201.925 106.928C204.009 109.498 206.614 111.513 209.74 112.972C212.935 114.43 216.305 115.16 219.847 115.16C222.834 115.16 225.544 114.604 227.975 113.493C230.476 112.451 232.456 110.783 233.914 108.491C235.443 106.268 236.207 103.385 236.207 99.8425V92.9652C234.401 96.0912 231.83 98.5226 228.496 100.259C225.231 101.926 221.758 102.76 218.076 102.76ZM222.765 91.6106C224.293 91.6106 225.752 91.3675 227.141 90.8812C228.531 90.395 229.816 89.735 230.997 88.9014C232.178 88.0678 233.22 87.0953 234.123 85.9838C235.026 84.8029 235.721 83.622 236.207 82.441V69.416C235.373 67.2625 234.192 65.3869 232.664 63.7892C231.205 62.1915 229.538 60.9758 227.662 60.1422C225.856 59.2391 223.946 58.7876 221.931 58.7876C219.778 58.7876 217.833 59.2391 216.096 60.1422C214.36 61.0453 212.866 62.3304 211.616 63.9976C210.365 65.5953 209.393 67.4015 208.698 69.416C208.073 71.3611 207.76 73.4103 207.76 75.5638C207.76 77.7868 208.142 79.8708 208.906 81.8158C209.67 83.7609 210.712 85.4628 212.032 86.9216C213.422 88.3804 215.019 89.5266 216.826 90.3602C218.701 91.1938 220.681 91.6106 222.765 91.6106ZM281.408 101.301C284.951 102.76 288.91 103.489 293.286 103.489C297.316 103.489 300.997 102.899 304.332 101.718C307.666 100.468 310.549 98.7657 312.98 96.6122C315.481 94.4588 317.391 91.9927 318.711 89.214L306.728 85.8796C305.825 88.1026 304.123 89.9087 301.623 91.298C299.191 92.6179 296.586 93.2778 293.807 93.2778C291.376 93.2778 289.084 92.7568 286.93 91.7148C284.846 90.6034 283.11 89.0056 281.72 86.9216C280.4 84.8376 279.602 82.4063 279.324 79.6276H321.525C321.594 79.0719 321.664 78.3772 321.733 77.5436C321.803 76.6406 321.837 75.7722 321.837 74.9386C321.837 70.0065 320.691 65.4217 318.399 61.1842C316.176 56.8773 312.946 53.4386 308.708 50.8684C304.471 48.2286 299.365 46.9088 293.391 46.9088C287.486 46.9088 282.345 48.2286 277.969 50.8684C273.662 53.4386 270.328 56.8773 267.966 61.1842C265.673 65.4911 264.527 70.2496 264.527 75.4596C264.527 79.2108 265.187 82.7884 266.507 86.1922C267.896 89.5266 269.841 92.5137 272.342 95.1534C274.843 97.7237 277.865 99.773 281.408 101.301ZM307.562 70.7706H279.011C279.289 67.9919 280.053 65.5953 281.303 63.5808C282.623 61.4968 284.291 59.8991 286.305 58.7876C288.389 57.6067 290.682 57.0162 293.182 57.0162C295.753 57.0162 298.08 57.6067 300.164 58.7876C302.248 59.8991 303.915 61.4968 305.165 63.5808C306.485 65.5953 307.284 67.9919 307.562 70.7706ZM362.67 64.9354C362.67 60.4201 363.469 56.0089 365.067 51.702C366.734 47.3256 369.13 43.366 372.256 39.8232C375.382 36.2109 379.203 33.3628 383.718 31.2788C388.234 29.1253 393.374 28.0485 399.14 28.0485C405.948 28.0485 411.818 29.5421 416.75 32.5292C421.751 35.5162 425.468 39.4064 427.899 44.1996L416.854 51.8062C415.604 49.0275 413.971 46.8393 411.957 45.2416C409.942 43.5744 407.789 42.4282 405.496 41.803C403.204 41.1083 400.946 40.761 398.723 40.761C395.111 40.761 391.95 41.4904 389.241 42.9492C386.601 44.408 384.378 46.3183 382.572 48.6802C380.766 51.042 379.411 53.6818 378.508 56.5994C377.675 59.517 377.258 62.4346 377.258 65.3522C377.258 68.6171 377.779 71.7779 378.821 74.8344C379.863 77.8215 381.322 80.496 383.197 82.8578C385.142 85.1502 387.435 86.9911 390.075 88.3804C392.784 89.7003 395.736 90.3602 398.932 90.3602C401.224 90.3602 403.551 89.9782 405.913 89.214C408.275 88.4499 410.463 87.2342 412.478 85.567C414.492 83.8998 416.055 81.7464 417.167 79.1066L428.941 85.8796C427.482 89.5614 425.086 92.6874 421.751 95.2576C418.486 97.8279 414.805 99.773 410.706 101.093C406.608 102.413 402.544 103.073 398.515 103.073C393.235 103.073 388.407 101.996 384.031 99.8425C379.655 97.6195 375.869 94.7019 372.673 91.0896C369.547 87.4079 367.081 83.3094 365.275 78.794C363.538 74.2092 362.67 69.5897 362.67 64.9354ZM506.042 103.489C501.666 103.489 497.706 102.76 494.163 101.301C490.62 99.773 487.599 97.7237 485.098 95.1534C482.597 92.5137 480.652 89.5266 479.263 86.1922C477.943 82.7884 477.283 79.2108 477.283 75.4596C477.283 70.2496 478.429 65.4911 480.721 61.1842C483.083 56.8773 486.418 53.4386 490.725 50.8684C495.101 48.2286 500.242 46.9088 506.146 46.9088C512.12 46.9088 517.226 48.2286 521.464 50.8684C525.701 53.4386 528.931 56.8773 531.154 61.1842C533.447 65.4217 534.593 70.0065 534.593 74.9386C534.593 75.7722 534.558 76.6406 534.489 77.5436C534.419 78.3772 534.35 79.0719 534.28 79.6276H492.079C492.357 82.4063 493.156 84.8376 494.476 86.9216C495.865 89.0056 497.602 90.6034 499.686 91.7148C501.839 92.7568 504.132 93.2778 506.563 93.2778C509.342 93.2778 511.947 92.6179 514.378 91.298C516.879 89.9087 518.581 88.1026 519.484 85.8796L531.467 89.214C530.147 91.9927 528.237 94.4588 525.736 96.6122C523.305 98.7657 520.422 100.468 517.087 101.718C513.753 102.899 510.071 103.489 506.042 103.489ZM491.767 70.7706H520.317C520.04 67.9919 519.241 65.5953 517.921 63.5808C516.67 61.4968 515.003 59.8991 512.919 58.7876C510.835 57.6067 508.508 57.0162 505.938 57.0162C503.437 57.0162 501.145 57.6067 499.061 58.7876C497.046 59.8991 495.379 61.4968 494.059 63.5808C492.809 65.5953 492.044 67.9919 491.767 70.7706ZM547.475 77.0226C545.53 79.6624 544.558 82.7536 544.558 86.2964C544.558 89.5614 545.357 92.5137 546.954 95.1534C548.622 97.7237 550.879 99.773 553.727 101.301C556.645 102.76 559.91 103.489 563.522 103.489C567.204 103.489 570.816 102.656 574.359 100.989C577.902 99.3214 580.854 96.9596 583.216 93.903L583.529 96.7164C583.876 98.5226 584.744 100.051 586.134 101.301C587.592 102.552 589.711 103.177 592.49 103.177C593.185 103.177 594.018 103.107 594.991 102.968C596.033 102.83 597.179 102.656 598.429 102.447V91.0896C597.248 90.9507 596.38 90.5686 595.824 89.9434C595.338 89.3182 595.095 88.2762 595.095 86.8174V69.416C595.095 62.1915 592.907 56.6341 588.53 52.744C584.223 48.8538 578.18 46.9088 570.399 46.9088C566.231 46.9088 562.237 47.4992 558.416 48.6802C554.665 49.8611 550.983 51.6325 547.371 53.9944L551.852 63.164C554.839 61.1495 557.687 59.6212 560.396 58.5792C563.105 57.5372 565.954 57.0162 568.941 57.0162C572.97 57.0162 575.992 57.954 578.006 59.8296C580.09 61.7052 581.132 64.3797 581.132 67.853V70.7706C579.395 70.0065 577.346 69.4507 574.984 69.1034C572.622 68.7561 570.295 68.5824 568.003 68.5824C563.418 68.5824 559.354 69.3118 555.811 70.7706C552.269 72.2294 549.49 74.3134 547.475 77.0226ZM645.863 59.9338C641.626 59.9338 637.84 60.7674 634.505 62.4346C631.171 64.0323 628.774 66.3595 627.315 69.416V102.447H613.353V47.8466H626.169V59.517C628.114 55.7658 630.58 52.8134 633.568 50.66C636.555 48.5065 639.715 47.3256 643.05 47.1172H644.821C645.238 47.1172 645.585 47.1519 645.863 47.2214V59.9338ZM148.908 76.8882L151.428 82.3151L157.368 83.035L152.986 87.109L154.136 92.9809L148.908 90.0718L143.679 92.9809L144.83 87.109L140.447 83.035L146.387 82.3151L148.908 76.8882ZM568.324 82.3151L565.804 76.8882L563.284 82.3151L557.344 83.035L561.726 87.109L560.575 92.9809L565.804 90.0718L571.033 92.9809L569.882 87.109L574.265 83.035L568.324 82.3151Z"/>
</mask>
<path fill-rule="evenodd" clip-rule="evenodd" d="M456.299 26.3813H442.336V89.8392C442.336 94.1462 443.517 97.4806 445.879 99.8425C448.31 102.135 451.714 103.281 456.09 103.281C458.105 103.281 460.363 103.038 462.863 102.552C465.364 102.065 467.552 101.371 469.428 100.468L467.552 89.8392C466.649 90.256 465.607 90.6034 464.426 90.8812C463.245 91.1591 462.099 91.298 460.988 91.298C459.529 91.298 458.383 90.8812 457.549 90.0476C456.716 89.1446 456.299 87.4426 456.299 84.9418V26.3813ZM64.0087 47.8466C63.5225 47.3603 62.6194 46.7004 61.2995 45.8668C60.0491 45.0332 58.4861 44.2343 56.6105 43.4702C54.8044 42.706 52.8246 42.0461 50.6711 41.4904C48.5177 40.8652 46.3295 40.5526 44.1065 40.5526C40.2164 40.5526 37.264 41.282 35.2495 42.7408C33.3044 44.1996 32.3319 46.2488 32.3319 48.8886C32.3319 50.9031 32.9571 52.5008 34.2075 53.6818C35.4579 54.8627 37.3335 55.87 39.8343 56.7036C42.3351 57.5372 45.4611 58.4403 49.2123 59.4128C54.075 60.5937 58.2777 62.0525 61.8205 63.7892C65.4328 65.4564 68.1767 67.6793 70.0523 70.458C71.9974 73.1672 72.97 76.7795 72.97 81.2948C72.97 85.2544 72.2406 88.6583 70.7817 91.5064C69.3229 94.2851 67.3084 96.5428 64.7381 98.2794C62.1679 100.016 59.2503 101.301 55.9853 102.135C52.7204 102.899 49.2471 103.281 45.5653 103.281C41.8836 103.281 38.2018 102.899 34.5201 102.135C30.8384 101.371 27.2956 100.294 23.8917 98.9046C20.4878 97.4458 17.3618 95.7092 14.5137 93.6946L20.8699 81.2948C21.4951 81.92 22.6066 82.7536 24.2043 83.7956C25.802 84.7682 27.7471 85.7754 30.0395 86.8174C32.3319 87.79 34.8327 88.6236 37.5419 89.3182C40.2511 90.0129 42.995 90.3602 45.7737 90.3602C49.6639 90.3602 52.6162 89.7003 54.6307 88.3804C56.6453 87.0606 57.6525 85.185 57.6525 82.7536C57.6525 80.5307 56.8537 78.794 55.2559 77.5436C53.6582 76.2932 51.4353 75.2165 48.5871 74.3134C45.739 73.3409 42.3698 72.2989 38.4797 71.1874C33.8254 69.8675 29.9353 68.4087 26.8093 66.811C23.6833 65.1438 21.3561 63.0598 19.8279 60.559C18.2996 58.0582 17.5355 54.9322 17.5355 51.181C17.5355 46.1099 18.7164 41.8724 21.0783 38.4686C23.5096 34.9952 26.7746 32.3902 30.8731 30.6536C34.9716 28.8474 39.5217 27.9443 44.5233 27.9443C47.9967 27.9443 51.2616 28.3264 54.3181 29.0905C57.4441 29.8547 60.3617 30.862 63.0709 32.1124C65.7801 33.3628 68.2115 34.7174 70.3649 36.1762L64.0087 47.8466ZM119.189 99.634C118.008 100.12 116.584 100.676 114.917 101.301C113.25 101.926 111.444 102.413 109.499 102.76C107.623 103.177 105.713 103.385 103.768 103.385C101.197 103.385 98.8355 102.934 96.682 102.031C94.5285 101.128 92.7919 99.7035 91.472 97.7585C90.2216 95.7439 89.5964 93.1389 89.5964 89.9434V58.5792H82.4066V47.8466H89.5964V30.1326H103.559V47.8466H115.021V58.5792H103.559V85.2544C103.629 87.13 104.15 88.4846 105.122 89.3182C106.095 90.1518 107.31 90.5686 108.769 90.5686C110.228 90.5686 111.652 90.3255 113.041 89.8392C114.431 89.353 115.542 88.9362 116.376 88.5888L119.189 99.634ZM130.838 77.0226C128.893 79.6624 127.92 82.7536 127.92 86.2964C127.92 89.5614 128.719 92.5137 130.317 95.1534C131.984 97.7237 134.242 99.773 137.09 101.301C140.007 102.76 143.272 103.489 146.884 103.489C150.566 103.489 154.178 102.656 157.721 100.989C161.264 99.3214 164.216 96.9596 166.578 93.903L166.891 96.7164C167.238 98.5226 168.107 100.051 169.496 101.301C170.955 102.552 173.073 103.177 175.852 103.177C176.547 103.177 177.38 103.107 178.353 102.968C179.395 102.83 180.541 102.656 181.792 102.447V91.0896C180.611 90.9507 179.742 90.5686 179.187 89.9434C178.7 89.3182 178.457 88.2762 178.457 86.8174V69.416C178.457 62.1915 176.269 56.6341 171.893 52.744C167.586 48.8538 161.542 46.9088 153.762 46.9088C149.594 46.9088 145.599 47.4992 141.779 48.6802C138.027 49.8611 134.346 51.6325 130.733 53.9944L135.214 63.164C138.201 61.1495 141.049 59.6212 143.758 58.5792C146.468 57.5372 149.316 57.0162 152.303 57.0162C156.332 57.0162 159.354 57.954 161.368 59.8296C163.452 61.7052 164.494 64.3797 164.494 67.853V70.7706C162.758 70.0065 160.708 69.4507 158.346 69.1034C155.985 68.7561 153.658 68.5824 151.365 68.5824C146.78 68.5824 142.716 69.3118 139.174 70.7706C135.631 72.2294 132.852 74.3134 130.838 77.0226ZM218.076 102.76C214.464 102.76 211.129 102.065 208.073 100.676C205.086 99.2173 202.481 97.2027 200.258 94.6324C198.104 92.0622 196.437 89.1098 195.256 85.7754C194.075 82.441 193.485 78.8982 193.485 75.147C193.485 71.1874 194.11 67.5057 195.36 64.1018C196.611 60.6979 198.347 57.7109 200.57 55.1406C202.863 52.5009 205.537 50.4863 208.594 49.097C211.72 47.6382 215.158 46.9088 218.91 46.9088C223.147 46.9088 226.864 47.8813 230.059 49.8264C233.254 51.702 235.894 54.2375 237.978 57.433V47.8466H250.17V99.8425C250.17 105.261 248.85 109.88 246.21 113.701C243.64 117.591 240.062 120.544 235.477 122.558C230.893 124.642 225.683 125.684 219.847 125.684C213.943 125.684 208.941 124.677 204.843 122.662C200.744 120.717 197.236 117.939 194.318 114.326L201.925 106.928C204.009 109.498 206.614 111.513 209.74 112.972C212.935 114.43 216.305 115.16 219.847 115.16C222.834 115.16 225.544 114.604 227.975 113.493C230.476 112.451 232.456 110.783 233.914 108.491C235.443 106.268 236.207 103.385 236.207 99.8425V92.9652C234.401 96.0912 231.83 98.5226 228.496 100.259C225.231 101.926 221.758 102.76 218.076 102.76ZM222.765 91.6106C224.293 91.6106 225.752 91.3675 227.141 90.8812C228.531 90.395 229.816 89.735 230.997 88.9014C232.178 88.0678 233.22 87.0953 234.123 85.9838C235.026 84.8029 235.721 83.622 236.207 82.441V69.416C235.373 67.2625 234.192 65.3869 232.664 63.7892C231.205 62.1915 229.538 60.9758 227.662 60.1422C225.856 59.2391 223.946 58.7876 221.931 58.7876C219.778 58.7876 217.833 59.2391 216.096 60.1422C214.36 61.0453 212.866 62.3304 211.616 63.9976C210.365 65.5953 209.393 67.4015 208.698 69.416C208.073 71.3611 207.76 73.4103 207.76 75.5638C207.76 77.7868 208.142 79.8708 208.906 81.8158C209.67 83.7609 210.712 85.4628 212.032 86.9216C213.422 88.3804 215.019 89.5266 216.826 90.3602C218.701 91.1938 220.681 91.6106 222.765 91.6106ZM281.408 101.301C284.951 102.76 288.91 103.489 293.286 103.489C297.316 103.489 300.997 102.899 304.332 101.718C307.666 100.468 310.549 98.7657 312.98 96.6122C315.481 94.4588 317.391 91.9927 318.711 89.214L306.728 85.8796C305.825 88.1026 304.123 89.9087 301.623 91.298C299.191 92.6179 296.586 93.2778 293.807 93.2778C291.376 93.2778 289.084 92.7568 286.93 91.7148C284.846 90.6034 283.11 89.0056 281.72 86.9216C280.4 84.8376 279.602 82.4063 279.324 79.6276H321.525C321.594 79.0719 321.664 78.3772 321.733 77.5436C321.803 76.6406 321.837 75.7722 321.837 74.9386C321.837 70.0065 320.691 65.4217 318.399 61.1842C316.176 56.8773 312.946 53.4386 308.708 50.8684C304.471 48.2286 299.365 46.9088 293.391 46.9088C287.486 46.9088 282.345 48.2286 277.969 50.8684C273.662 53.4386 270.328 56.8773 267.966 61.1842C265.673 65.4911 264.527 70.2496 264.527 75.4596C264.527 79.2108 265.187 82.7884 266.507 86.1922C267.896 89.5266 269.841 92.5137 272.342 95.1534C274.843 97.7237 277.865 99.773 281.408 101.301ZM307.562 70.7706H279.011C279.289 67.9919 280.053 65.5953 281.303 63.5808C282.623 61.4968 284.291 59.8991 286.305 58.7876C288.389 57.6067 290.682 57.0162 293.182 57.0162C295.753 57.0162 298.08 57.6067 300.164 58.7876C302.248 59.8991 303.915 61.4968 305.165 63.5808C306.485 65.5953 307.284 67.9919 307.562 70.7706ZM362.67 64.9354C362.67 60.4201 363.469 56.0089 365.067 51.702C366.734 47.3256 369.13 43.366 372.256 39.8232C375.382 36.2109 379.203 33.3628 383.718 31.2788C388.234 29.1253 393.374 28.0485 399.14 28.0485C405.948 28.0485 411.818 29.5421 416.75 32.5292C421.751 35.5162 425.468 39.4064 427.899 44.1996L416.854 51.8062C415.604 49.0275 413.971 46.8393 411.957 45.2416C409.942 43.5744 407.789 42.4282 405.496 41.803C403.204 41.1083 400.946 40.761 398.723 40.761C395.111 40.761 391.95 41.4904 389.241 42.9492C386.601 44.408 384.378 46.3183 382.572 48.6802C380.766 51.042 379.411 53.6818 378.508 56.5994C377.675 59.517 377.258 62.4346 377.258 65.3522C377.258 68.6171 377.779 71.7779 378.821 74.8344C379.863 77.8215 381.322 80.496 383.197 82.8578C385.142 85.1502 387.435 86.9911 390.075 88.3804C392.784 89.7003 395.736 90.3602 398.932 90.3602C401.224 90.3602 403.551 89.9782 405.913 89.214C408.275 88.4499 410.463 87.2342 412.478 85.567C414.492 83.8998 416.055 81.7464 417.167 79.1066L428.941 85.8796C427.482 89.5614 425.086 92.6874 421.751 95.2576C418.486 97.8279 414.805 99.773 410.706 101.093C406.608 102.413 402.544 103.073 398.515 103.073C393.235 103.073 388.407 101.996 384.031 99.8425C379.655 97.6195 375.869 94.7019 372.673 91.0896C369.547 87.4079 367.081 83.3094 365.275 78.794C363.538 74.2092 362.67 69.5897 362.67 64.9354ZM506.042 103.489C501.666 103.489 497.706 102.76 494.163 101.301C490.62 99.773 487.599 97.7237 485.098 95.1534C482.597 92.5137 480.652 89.5266 479.263 86.1922C477.943 82.7884 477.283 79.2108 477.283 75.4596C477.283 70.2496 478.429 65.4911 480.721 61.1842C483.083 56.8773 486.418 53.4386 490.725 50.8684C495.101 48.2286 500.242 46.9088 506.146 46.9088C512.12 46.9088 517.226 48.2286 521.464 50.8684C525.701 53.4386 528.931 56.8773 531.154 61.1842C533.447 65.4217 534.593 70.0065 534.593 74.9386C534.593 75.7722 534.558 76.6406 534.489 77.5436C534.419 78.3772 534.35 79.0719 534.28 79.6276H492.079C492.357 82.4063 493.156 84.8376 494.476 86.9216C495.865 89.0056 497.602 90.6034 499.686 91.7148C501.839 92.7568 504.132 93.2778 506.563 93.2778C509.342 93.2778 511.947 92.6179 514.378 91.298C516.879 89.9087 518.581 88.1026 519.484 85.8796L531.467 89.214C530.147 91.9927 528.237 94.4588 525.736 96.6122C523.305 98.7657 520.422 100.468 517.087 101.718C513.753 102.899 510.071 103.489 506.042 103.489ZM491.767 70.7706H520.317C520.04 67.9919 519.241 65.5953 517.921 63.5808C516.67 61.4968 515.003 59.8991 512.919 58.7876C510.835 57.6067 508.508 57.0162 505.938 57.0162C503.437 57.0162 501.145 57.6067 499.061 58.7876C497.046 59.8991 495.379 61.4968 494.059 63.5808C492.809 65.5953 492.044 67.9919 491.767 70.7706ZM547.475 77.0226C545.53 79.6624 544.558 82.7536 544.558 86.2964C544.558 89.5614 545.357 92.5137 546.954 95.1534C548.622 97.7237 550.879 99.773 553.727 101.301C556.645 102.76 559.91 103.489 563.522 103.489C567.204 103.489 570.816 102.656 574.359 100.989C577.902 99.3214 580.854 96.9596 583.216 93.903L583.529 96.7164C583.876 98.5226 584.744 100.051 586.134 101.301C587.592 102.552 589.711 103.177 592.49 103.177C593.185 103.177 594.018 103.107 594.991 102.968C596.033 102.83 597.179 102.656 598.429 102.447V91.0896C597.248 90.9507 596.38 90.5686 595.824 89.9434C595.338 89.3182 595.095 88.2762 595.095 86.8174V69.416C595.095 62.1915 592.907 56.6341 588.53 52.744C584.223 48.8538 578.18 46.9088 570.399 46.9088C566.231 46.9088 562.237 47.4992 558.416 48.6802C554.665 49.8611 550.983 51.6325 547.371 53.9944L551.852 63.164C554.839 61.1495 557.687 59.6212 560.396 58.5792C563.105 57.5372 565.954 57.0162 568.941 57.0162C572.97 57.0162 575.992 57.954 578.006 59.8296C580.09 61.7052 581.132 64.3797 581.132 67.853V70.7706C579.395 70.0065 577.346 69.4507 574.984 69.1034C572.622 68.7561 570.295 68.5824 568.003 68.5824C563.418 68.5824 559.354 69.3118 555.811 70.7706C552.269 72.2294 549.49 74.3134 547.475 77.0226ZM645.863 59.9338C641.626 59.9338 637.84 60.7674 634.505 62.4346C631.171 64.0323 628.774 66.3595 627.315 69.416V102.447H613.353V47.8466H626.169V59.517C628.114 55.7658 630.58 52.8134 633.568 50.66C636.555 48.5065 639.715 47.3256 643.05 47.1172H644.821C645.238 47.1172 645.585 47.1519 645.863 47.2214V59.9338ZM148.908 76.8882L151.428 82.3151L157.368 83.035L152.986 87.109L154.136 92.9809L148.908 90.0718L143.679 92.9809L144.83 87.109L140.447 83.035L146.387 82.3151L148.908 76.8882ZM568.324 82.3151L565.804 76.8882L563.284 82.3151L557.344 83.035L561.726 87.109L560.575 92.9809L565.804 90.0718L571.033 92.9809L569.882 87.109L574.265 83.035L568.324 82.3151Z" fill="url(#paint0_linear_155_3555)"/>
<path d="M442.336 26.3813V24.8158H440.77V26.3813H442.336ZM456.299 26.3813H457.864V24.8158H456.299V26.3813ZM445.879 99.8425L444.772 100.949L444.788 100.966L444.805 100.982L445.879 99.8425ZM469.428 100.468L470.107 101.878L471.176 101.364L470.97 100.196L469.428 100.468ZM467.552 89.8392L469.094 89.5672L468.741 87.5664L466.896 88.4178L467.552 89.8392ZM457.549 90.0476L456.399 91.1095L456.42 91.1325L456.442 91.1546L457.549 90.0476ZM61.2995 45.8668L60.4311 47.1694L60.4472 47.1801L60.4636 47.1904L61.2995 45.8668ZM64.0087 47.8466L62.9018 48.9536L64.3822 50.434L65.3836 48.5954L64.0087 47.8466ZM56.6105 43.4702L56.0005 44.912L56.0102 44.916L56.0199 44.92L56.6105 43.4702ZM50.6711 41.4904L50.2346 42.9938L50.2572 43.0004L50.2799 43.0062L50.6711 41.4904ZM35.2495 42.7408L34.3313 41.4728L34.3207 41.4805L34.3102 41.4884L35.2495 42.7408ZM39.8343 56.7036L39.3392 58.1888H39.3392L39.8343 56.7036ZM49.2123 59.4128L48.8194 60.9282L48.8311 60.9312L48.8429 60.9341L49.2123 59.4128ZM61.8205 63.7892L61.1315 65.1949L61.1479 65.203L61.1645 65.2106L61.8205 63.7892ZM70.0523 70.458L68.7548 71.3339L68.7674 71.3526L68.7806 71.371L70.0523 70.458ZM70.7817 91.5064L72.1679 92.2341L72.1715 92.2271L72.1751 92.2201L70.7817 91.5064ZM55.9853 102.135L56.3421 103.659L56.3574 103.656L56.3726 103.652L55.9853 102.135ZM23.8917 98.9046L23.275 100.344L23.2875 100.349L23.3001 100.354L23.8917 98.9046ZM14.5137 93.6946L13.1205 92.9805L12.5012 94.1887L13.6096 94.9728L14.5137 93.6946ZM20.8699 81.2948L21.9769 80.1878L20.4571 78.6681L19.4767 80.5807L20.8699 81.2948ZM24.2043 83.7956L23.3491 85.1069L23.3695 85.1202L23.3903 85.1329L24.2043 83.7956ZM30.0395 86.8174L29.3917 88.2426L29.4098 88.2509L29.4281 88.2586L30.0395 86.8174ZM54.6307 88.3804L53.7728 87.0709L54.6307 88.3804ZM48.5871 74.3134L48.0812 75.7949L48.0975 75.8005L48.1139 75.8057L48.5871 74.3134ZM38.4797 71.1874L38.9098 69.6821L38.9068 69.6813L38.4797 71.1874ZM26.8093 66.811L26.0726 68.1923L26.0846 68.1988L26.0968 68.205L26.8093 66.811ZM19.8279 60.559L18.492 61.3753H18.492L19.8279 60.559ZM21.0783 38.4686L19.7957 37.5708L19.7921 37.5761L21.0783 38.4686ZM30.8731 30.6536L31.4839 32.095L31.4942 32.0906L31.5044 32.0861L30.8731 30.6536ZM54.3181 29.0905L53.9384 30.6093L53.9464 30.6113L54.3181 29.0905ZM63.0709 32.1124L63.727 30.6909V30.6909L63.0709 32.1124ZM70.3649 36.1762L71.7398 36.925L72.4195 35.677L71.243 34.88L70.3649 36.1762ZM114.917 101.301L115.467 102.767L114.917 101.301ZM119.189 99.634L119.785 101.082L121.042 100.564L120.706 99.2476L119.189 99.634ZM109.499 102.76L109.223 101.219L109.191 101.225L109.159 101.232L109.499 102.76ZM91.472 97.7585L90.1419 98.5841L90.1587 98.6111L90.1766 98.6375L91.472 97.7585ZM89.5964 58.5792H91.1619V57.0137H89.5964V58.5792ZM82.4066 58.5792H80.8411V60.1447H82.4066V58.5792ZM82.4066 47.8466V46.2811H80.8411V47.8466H82.4066ZM89.5964 47.8466V49.4121H91.1619V47.8466H89.5964ZM89.5964 30.1326V28.567H88.0309V30.1326H89.5964ZM103.559 30.1326H105.125V28.567H103.559V30.1326ZM103.559 47.8466H101.994V49.4121H103.559V47.8466ZM115.021 47.8466H116.587V46.2811H115.021V47.8466ZM115.021 58.5792V60.1447H116.587V58.5792H115.021ZM103.559 58.5792V57.0137H101.994V58.5792H103.559ZM103.559 85.2544H101.994V85.2834L101.995 85.3124L103.559 85.2544ZM105.122 89.3182L104.103 90.5069L105.122 89.3182ZM116.376 88.5888L117.893 88.2024L117.446 86.447L115.774 87.1437L116.376 88.5888ZM130.838 77.0226L129.581 76.0885L129.577 76.094L130.838 77.0226ZM130.317 95.1534L128.977 95.9641L128.99 95.9849L129.003 96.0054L130.317 95.1534ZM137.09 101.301L136.349 102.681L136.369 102.691L136.39 102.701L137.09 101.301ZM166.578 93.903L168.134 93.7302L167.707 89.8824L165.34 92.9458L166.578 93.903ZM166.891 96.7164L165.335 96.8893L165.342 96.9511L165.354 97.0121L166.891 96.7164ZM169.496 101.301L168.449 102.465L168.463 102.478L168.477 102.49L169.496 101.301ZM178.353 102.968L178.146 101.417L178.139 101.418L178.132 101.419L178.353 102.968ZM181.792 102.447L182.049 103.992L183.357 103.774V102.447H181.792ZM181.792 91.0896H183.357V89.6975L181.974 89.5348L181.792 91.0896ZM179.187 89.9434L177.951 90.9046L177.982 90.9451L178.016 90.9835L179.187 89.9434ZM171.893 52.744L170.843 53.9058L170.852 53.9141L171.893 52.744ZM141.779 48.6802L141.316 47.1845L141.309 47.1869L141.779 48.6802ZM130.733 53.9944L129.877 52.6841L128.72 53.4402L129.327 54.6817L130.733 53.9944ZM135.214 63.164L133.807 63.8513L134.598 65.4681L136.089 64.4619L135.214 63.164ZM143.758 58.5792L143.196 57.118L143.758 58.5792ZM161.368 59.8296L160.302 60.9754L160.311 60.9844L160.321 60.9932L161.368 59.8296ZM164.494 70.7706L163.864 72.2036L166.06 73.1698V70.7706H164.494ZM158.346 69.1034L158.119 70.6523L158.346 69.1034ZM208.073 100.676L207.386 102.083L207.405 102.092L207.425 102.101L208.073 100.676ZM200.258 94.6324L199.058 95.6379L199.066 95.6473L199.074 95.6565L200.258 94.6324ZM195.36 64.1018L193.891 63.562L195.36 64.1018ZM200.57 55.1406L199.388 54.1141L199.386 54.1165L200.57 55.1406ZM208.594 49.097L209.242 50.5222L209.249 50.5189L209.256 50.5156L208.594 49.097ZM230.059 49.8264L229.245 51.1636L229.256 51.1702L229.267 51.1765L230.059 49.8264ZM237.978 57.433L236.667 58.2882L239.544 62.6993V57.433H237.978ZM237.978 47.8466V46.2811H236.413V47.8466H237.978ZM250.17 47.8466H251.735V46.2811H250.17V47.8466ZM246.21 113.701L244.922 112.811L244.913 112.825L244.904 112.838L246.21 113.701ZM235.477 122.558L234.848 121.125L234.839 121.129L234.83 121.133L235.477 122.558ZM204.843 122.662L205.533 121.257L205.523 121.253L205.514 121.248L204.843 122.662ZM194.318 114.326L193.227 113.204L192.203 114.199L193.1 115.31L194.318 114.326ZM201.925 106.928L203.141 105.942L202.062 104.611L200.833 105.806L201.925 106.928ZM209.74 112.972L209.078 114.39L209.09 114.396L209.74 112.972ZM227.975 113.493L227.373 112.048L227.348 112.058L227.324 112.069L227.975 113.493ZM233.914 108.491L232.624 107.604L232.609 107.627L232.594 107.651L233.914 108.491ZM236.207 92.9652H237.772V87.1264L234.851 92.182L236.207 92.9652ZM228.496 100.259L229.208 101.654L229.219 101.648L228.496 100.259ZM230.997 88.9014L230.094 87.6224V87.6225L230.997 88.9014ZM234.123 85.9838L235.338 86.971L235.352 86.9531L235.366 86.9348L234.123 85.9838ZM236.207 82.441L237.654 83.0371L237.772 82.7507V82.441H236.207ZM236.207 69.416H237.772V69.1236L237.667 68.8509L236.207 69.416ZM232.664 63.7892L231.508 64.8448L231.52 64.8582L231.533 64.8713L232.664 63.7892ZM227.662 60.1422L226.962 61.5424L226.994 61.5583L227.027 61.5728L227.662 60.1422ZM211.616 63.9976L212.848 64.9624L212.858 64.9498L212.868 64.9369L211.616 63.9976ZM208.698 69.416L207.218 68.9057L207.213 68.9212L207.208 68.9369L208.698 69.416ZM212.032 86.9216L210.871 87.972L210.885 87.9868L210.899 88.0013L212.032 86.9216ZM216.826 90.3602L216.17 91.7817L216.18 91.7863L216.19 91.7908L216.826 90.3602ZM281.408 101.301L280.788 102.739L280.8 102.744L280.812 102.749L281.408 101.301ZM304.332 101.718L304.854 103.194L304.868 103.189L304.881 103.184L304.332 101.718ZM312.98 96.6122L311.959 95.4259L311.951 95.4331L311.942 95.4403L312.98 96.6122ZM318.711 89.214L320.125 89.8857L320.924 88.2047L319.131 87.7058L318.711 89.214ZM306.728 85.8796L307.148 84.3714L305.803 83.9972L305.278 85.2904L306.728 85.8796ZM301.623 91.298L302.369 92.6739L302.376 92.6703L302.383 92.6665L301.623 91.298ZM286.93 91.7148L286.194 93.0962L286.221 93.1107L286.248 93.1241L286.93 91.7148ZM281.72 86.9216L280.398 87.7593L280.408 87.7748L280.418 87.79L281.72 86.9216ZM279.324 79.6276V78.0621H277.594L277.766 79.7834L279.324 79.6276ZM321.525 79.6276V81.1931H322.907L323.078 79.8218L321.525 79.6276ZM321.733 77.5436L323.293 77.6736L323.294 77.6637L321.733 77.5436ZM318.399 61.1842L317.008 61.9022L317.015 61.9157L317.022 61.9291L318.399 61.1842ZM308.708 50.8684L307.88 52.1972L307.888 52.2021L307.896 52.2069L308.708 50.8684ZM277.969 50.8684L278.771 52.2127L278.778 52.2089L277.969 50.8684ZM267.966 61.1842L266.593 60.4314L266.589 60.44L266.584 60.4486L267.966 61.1842ZM266.507 86.1922L265.047 86.7582L265.054 86.7764L265.062 86.7943L266.507 86.1922ZM272.342 95.1534L271.206 96.2301L271.213 96.2377L271.22 96.2452L272.342 95.1534ZM279.011 70.7706L277.453 70.6148L277.281 72.3361H279.011V70.7706ZM307.562 70.7706V72.3361H309.292L309.12 70.6148L307.562 70.7706ZM281.303 63.5808L279.981 62.7432L279.977 62.7492L279.973 62.7552L281.303 63.5808ZM286.305 58.7876L287.061 60.1583L287.069 60.154L287.077 60.1496L286.305 58.7876ZM300.164 58.7876L299.392 60.1496L299.409 60.1595L299.427 60.1689L300.164 58.7876ZM305.165 63.5808L303.823 64.3862L303.839 64.4128L303.856 64.4387L305.165 63.5808ZM365.067 51.702L363.604 51.1446L363.599 51.1575L365.067 51.702ZM372.256 39.8232L373.43 40.8589L373.435 40.8533L373.44 40.8476L372.256 39.8232ZM383.718 31.2788L384.374 32.7002L384.383 32.696L384.392 32.6918L383.718 31.2788ZM416.75 32.5292L415.939 33.8683L415.947 33.8732L416.75 32.5292ZM427.899 44.1996L428.787 45.4889L429.915 44.7124L429.295 43.4914L427.899 44.1996ZM416.854 51.8062L415.426 52.4486L416.196 54.1599L417.742 53.0955L416.854 51.8062ZM411.957 45.2416L410.958 46.4476L410.971 46.458L410.984 46.4682L411.957 45.2416ZM405.496 41.803L405.042 43.3012L405.063 43.3076L405.084 43.3133L405.496 41.803ZM389.241 42.9492L388.499 41.5708L388.491 41.5748L388.484 41.579L389.241 42.9492ZM382.572 48.6802L381.329 47.7292L382.572 48.6802ZM378.508 56.5994L377.013 56.1365L377.008 56.1528L377.003 56.1693L378.508 56.5994ZM378.821 74.8344L377.339 75.3396L377.343 75.3501L378.821 74.8344ZM383.197 82.8578L381.971 83.8314L381.987 83.8513L382.004 83.8707L383.197 82.8578ZM390.075 88.3804L389.345 89.7658L389.367 89.7771L389.389 89.7878L390.075 88.3804ZM417.167 79.1066L417.947 77.7496L416.411 76.8661L415.724 78.4991L417.167 79.1066ZM428.941 85.8796L430.397 86.4563L430.895 85.1977L429.722 84.5226L428.941 85.8796ZM421.751 95.2576L420.796 94.0177L420.789 94.0226L420.783 94.0275L421.751 95.2576ZM384.031 99.8425L383.322 101.238L383.331 101.243L383.34 101.247L384.031 99.8425ZM372.673 91.0896L371.48 92.1029L371.49 92.115L371.501 92.1269L372.673 91.0896ZM365.275 78.794L363.811 79.3486L363.816 79.362L363.821 79.3754L365.275 78.794ZM494.163 101.301L493.543 102.739L493.555 102.744L493.567 102.749L494.163 101.301ZM485.098 95.1534L483.961 96.2301L483.968 96.2377L483.976 96.2452L485.098 95.1534ZM479.263 86.1922L477.803 86.7582L477.81 86.7764L477.818 86.7944L479.263 86.1922ZM480.721 61.1842L479.349 60.4314L479.344 60.44L479.339 60.4486L480.721 61.1842ZM490.725 50.8684L491.527 52.2127L491.533 52.2089L490.725 50.8684ZM521.464 50.8684L520.636 52.1972L520.644 52.2021L520.652 52.2069L521.464 50.8684ZM531.154 61.1842L529.763 61.9022L529.77 61.9157L529.777 61.9291L531.154 61.1842ZM534.489 77.5436L536.049 77.6736L536.05 77.6637L534.489 77.5436ZM534.28 79.6276V81.1931H535.662L535.834 79.8218L534.28 79.6276ZM492.079 79.6276V78.0621H490.349L490.521 79.7834L492.079 79.6276ZM494.476 86.9216L493.153 87.7593L493.163 87.7748L493.173 87.79L494.476 86.9216ZM499.686 91.7148L498.949 93.0962L498.976 93.1107L499.004 93.1241L499.686 91.7148ZM514.378 91.298L515.125 92.6739L515.132 92.6703L515.138 92.6665L514.378 91.298ZM519.484 85.8796L519.904 84.3714L518.559 83.9972L518.033 85.2904L519.484 85.8796ZM531.467 89.214L532.881 89.8857L533.679 88.2047L531.887 87.7058L531.467 89.214ZM525.736 96.6122L524.714 95.4259L524.706 95.4331L524.698 95.4403L525.736 96.6122ZM517.087 101.718L517.61 103.194L517.623 103.189L517.637 103.184L517.087 101.718ZM520.317 70.7706V72.3361H522.047L521.875 70.6148L520.317 70.7706ZM491.767 70.7706L490.209 70.6148L490.037 72.3361H491.767V70.7706ZM517.921 63.5808L516.578 64.3862L516.594 64.4128L516.611 64.4387L517.921 63.5808ZM512.919 58.7876L512.147 60.1496L512.165 60.1595L512.183 60.1689L512.919 58.7876ZM499.061 58.7876L499.817 60.1583L499.825 60.154L499.832 60.1496L499.061 58.7876ZM494.059 63.5808L492.736 62.7432L492.733 62.7492L492.729 62.7552L494.059 63.5808ZM547.475 77.0226L546.219 76.0885L546.215 76.094L547.475 77.0226ZM546.954 95.1534L545.615 95.9641L545.628 95.9849L545.641 96.0054L546.954 95.1534ZM553.727 101.301L552.987 102.681L553.007 102.691L553.027 102.701L553.727 101.301ZM583.216 93.903L584.772 93.7301L584.344 89.8824L581.977 92.9458L583.216 93.903ZM583.529 96.7164L581.973 96.8893L581.98 96.9511L581.991 97.0121L583.529 96.7164ZM586.134 101.301L585.086 102.465L585.1 102.478L585.115 102.49L586.134 101.301ZM594.991 102.968L594.784 101.417L594.777 101.418L594.769 101.419L594.991 102.968ZM598.429 102.447L598.687 103.992L599.995 103.774V102.447H598.429ZM598.429 91.0896H599.995V89.6975L598.612 89.5348L598.429 91.0896ZM595.824 89.9434L594.589 90.9046L594.62 90.9451L594.654 90.9835L595.824 89.9434ZM588.53 52.744L587.481 53.9058L587.49 53.9141L588.53 52.744ZM558.416 48.6802L557.954 47.1845L557.946 47.1869L558.416 48.6802ZM547.371 53.9944L546.514 52.6841L545.358 53.4402L545.965 54.6817L547.371 53.9944ZM551.852 63.164L550.445 63.8513L551.235 65.4681L552.727 64.4619L551.852 63.164ZM560.396 58.5792L559.834 57.118L560.396 58.5792ZM578.006 59.8296L576.939 60.9754L576.949 60.9844L576.959 60.9932L578.006 59.8296ZM581.132 70.7706L580.502 72.2036L582.698 73.1698V70.7706H581.132ZM634.505 62.4346L635.182 63.8464L635.194 63.8407L635.205 63.8348L634.505 62.4346ZM645.863 59.9338V61.4993H647.429V59.9338H645.863ZM627.315 69.416L625.903 68.7417L625.75 69.0616V69.416H627.315ZM627.315 102.447V104.013H628.881V102.447H627.315ZM613.353 102.447H611.787V104.013H613.353V102.447ZM613.353 47.8466V46.2811H611.787V47.8466H613.353ZM626.169 47.8466H627.735V46.2811H626.169V47.8466ZM626.169 59.517H624.604L627.559 60.2376L626.169 59.517ZM643.05 47.1172V45.5517H643.001L642.952 45.5547L643.05 47.1172ZM645.863 47.2214H647.429V45.999L646.243 45.7026L645.863 47.2214ZM151.428 82.3151L150.008 82.9745L150.375 83.7645L151.24 83.8693L151.428 82.3151ZM148.908 76.8882L150.328 76.2288L148.908 73.1714L147.488 76.2288L148.908 76.8882ZM157.368 83.035L158.434 84.1817L160.903 81.8865L157.556 81.4809L157.368 83.035ZM152.986 87.109L151.92 85.9624L151.282 86.5554L151.449 87.4101L152.986 87.109ZM154.136 92.9809L153.375 94.3489L156.321 95.9878L155.673 92.6797L154.136 92.9809ZM148.908 90.0718L149.669 88.7037L148.908 88.2803L148.147 88.7037L148.908 90.0718ZM143.679 92.9809L142.143 92.6797L141.494 95.9878L144.44 94.3489L143.679 92.9809ZM144.83 87.109L146.366 87.4101L146.534 86.5554L145.896 85.9624L144.83 87.109ZM140.447 83.035L140.259 81.4809L136.912 81.8865L139.381 84.1817L140.447 83.035ZM146.387 82.3151L146.576 83.8693L147.44 83.7645L147.807 82.9745L146.387 82.3151ZM565.804 76.8882L567.224 76.2288L565.804 73.1714L564.384 76.2288L565.804 76.8882ZM568.324 82.3151L566.905 82.9745L567.271 83.7645L568.136 83.8693L568.324 82.3151ZM563.284 82.3151L563.472 83.8693L564.337 83.7645L564.704 82.9745L563.284 82.3151ZM557.344 83.035L557.155 81.4809L553.809 81.8865L556.278 84.1817L557.344 83.035ZM561.726 87.109L563.263 87.4101L563.43 86.5554L562.792 85.9624L561.726 87.109ZM560.575 92.9809L559.039 92.6797L558.391 95.9878L561.336 94.3489L560.575 92.9809ZM565.804 90.0718L566.565 88.7037L565.804 88.2803L565.043 88.7037L565.804 90.0718ZM571.033 92.9809L570.272 94.3489L573.218 95.9878L572.569 92.6797L571.033 92.9809ZM569.882 87.109L568.816 85.9624L568.178 86.5554L568.346 87.4101L569.882 87.109ZM574.265 83.035L575.33 84.1816L577.799 81.8865L574.453 81.4809L574.265 83.035ZM442.336 27.9469H456.299V24.8158H442.336V27.9469ZM443.901 89.8392V26.3813H440.77V89.8392H443.901ZM446.986 98.7355C444.996 96.7455 443.901 93.8566 443.901 89.8392H440.77C440.77 94.4358 442.038 98.2157 444.772 100.949L446.986 98.7355ZM456.09 101.716C451.986 101.716 449.012 100.645 446.953 98.7034L444.805 100.982C447.608 103.624 451.442 104.847 456.09 104.847V101.716ZM462.565 101.015C460.138 101.487 457.982 101.716 456.09 101.716V104.847C458.227 104.847 460.587 104.589 463.162 104.088L462.565 101.015ZM468.749 99.0571C467.017 99.8907 464.962 100.549 462.565 101.015L463.162 104.088C465.766 103.582 468.087 102.851 470.107 101.878L468.749 99.0571ZM466.011 90.1113L467.886 100.74L470.97 100.196L469.094 89.5672L466.011 90.1113ZM464.785 92.4051C466.047 92.1082 467.192 91.7299 468.208 91.2607L466.896 88.4178C466.107 88.7822 465.168 89.0985 464.068 89.3573L464.785 92.4051ZM460.988 92.8636C462.23 92.8636 463.497 92.7082 464.785 92.4051L464.068 89.3573C462.994 89.6101 461.968 89.7325 460.988 89.7325V92.8636ZM456.442 91.1546C457.636 92.3483 459.218 92.8636 460.988 92.8636V89.7325C459.84 89.7325 459.13 89.4142 458.656 88.9407L456.442 91.1546ZM454.733 84.9418C454.733 87.4898 455.131 89.7366 456.399 91.1095L458.699 88.9858C458.3 88.5526 457.864 87.3955 457.864 84.9418H454.733ZM454.733 26.3813V84.9418H457.864V26.3813H454.733ZM60.4636 47.1904C61.7771 48.02 62.5493 48.6011 62.9018 48.9536L65.1157 46.7396C64.4956 46.1195 63.4617 45.3808 62.1355 44.5431L60.4636 47.1904ZM56.0199 44.92C57.8294 45.6572 59.2923 46.4101 60.4311 47.1694L62.1679 44.5642C60.806 43.6562 59.1429 42.8114 57.2012 42.0204L56.0199 44.92ZM50.2799 43.0062C52.3685 43.5452 54.2741 44.1815 56.0005 44.912L57.2205 42.0284C55.3347 41.2305 53.2807 40.547 51.0623 39.9745L50.2799 43.0062ZM44.1065 42.1181C46.1805 42.1181 48.2218 42.4094 50.2346 42.9938L51.1076 39.9869C48.8136 39.3209 46.4784 38.987 44.1065 38.987V42.1181ZM36.1677 44.0087C37.8027 42.8248 40.373 42.1181 44.1065 42.1181V38.987C40.0598 38.987 36.7254 39.7391 34.3313 41.4728L36.1677 44.0087ZM33.8974 48.8886C33.8974 46.6927 34.6755 45.1282 36.1888 43.9932L34.3102 41.4884C31.9333 43.271 30.7664 45.805 30.7664 48.8886H33.8974ZM35.2824 52.5436C34.3991 51.7094 33.8974 50.5527 33.8974 48.8886H30.7664C30.7664 51.2535 31.5151 53.2923 33.1326 54.8199L35.2824 52.5436ZM40.3294 55.2184C37.9407 54.4222 36.3025 53.5071 35.2824 52.5436L33.1326 54.8199C34.6133 56.2184 36.7263 57.3178 39.3392 58.1888L40.3294 55.2184ZM49.6052 57.8974C45.874 56.93 42.7849 56.0369 40.3294 55.2184L39.3392 58.1888C41.8854 59.0375 45.0482 59.9505 48.8194 60.9282L49.6052 57.8974ZM62.5096 62.3835C58.8419 60.5856 54.527 59.0925 49.5818 57.8915L48.8429 60.9341C53.623 62.095 57.7136 63.5195 61.1315 65.1949L62.5096 62.3835ZM71.3499 69.5821C69.2867 66.5254 66.2996 64.1322 62.4766 62.3678L61.1645 65.2106C64.566 66.7806 67.0668 68.8332 68.7548 71.3339L71.3499 69.5821ZM74.5355 81.2948C74.5355 76.5658 73.5173 72.5999 71.3241 69.545L68.7806 71.371C70.4775 73.7345 71.4044 76.9932 71.4044 81.2948H74.5355ZM72.1751 92.2201C73.7708 89.1048 74.5355 85.4448 74.5355 81.2948H71.4044C71.4044 85.0641 70.7103 88.2118 69.3884 90.7928L72.1751 92.2201ZM65.6146 99.5766C68.4018 97.6934 70.5903 95.239 72.1679 92.2341L69.3956 90.7787C68.0556 93.3312 66.215 95.3922 63.8617 96.9823L65.6146 99.5766ZM56.3726 103.652C59.797 102.777 62.8828 101.422 65.6146 99.5766L63.8617 96.9823C61.453 98.6098 58.7036 99.8251 55.598 100.618L56.3726 103.652ZM45.5653 104.847C49.3556 104.847 52.9494 104.453 56.3421 103.659L55.6286 100.611C52.4914 101.345 49.1385 101.716 45.5653 101.716V104.847ZM34.202 103.668C37.9861 104.453 41.7744 104.847 45.5653 104.847V101.716C41.9927 101.716 38.4176 101.345 34.8382 100.602L34.202 103.668ZM23.3001 100.354C26.7944 101.78 30.4288 102.885 34.202 103.668L34.8382 100.602C31.2479 99.8568 27.7968 98.8076 24.4833 97.4552L23.3001 100.354ZM13.6096 94.9728C16.553 97.0546 19.7761 98.8441 23.275 100.344L24.5084 97.4657C21.1995 96.0476 18.1707 94.3637 15.4177 92.4165L13.6096 94.9728ZM19.4767 80.5807L13.1205 92.9805L15.9068 94.4088L22.263 82.009L19.4767 80.5807ZM25.0595 82.4843C23.4732 81.4498 22.4792 80.6902 21.9769 80.1878L19.7629 82.4018C20.511 83.1499 21.7399 84.0575 23.3491 85.1069L25.0595 82.4843ZM30.6873 85.3922C28.4339 84.3679 26.5477 83.3893 25.0183 82.4584L23.3903 85.1329C25.0563 86.147 27.0603 87.1829 29.3917 88.2426L30.6873 85.3922ZM37.9307 87.8018C35.2884 87.1242 32.8629 86.3147 30.6509 85.3762L29.4281 88.2586C31.8009 89.2653 34.377 90.1229 37.1531 90.8347L37.9307 87.8018ZM45.7737 88.7947C43.1271 88.7947 40.5137 88.4641 37.9307 87.8018L37.1531 90.8347C39.9885 91.5617 42.863 91.9258 45.7737 91.9258V88.7947ZM53.7728 87.0709C52.1258 88.15 49.5295 88.7947 45.7737 88.7947V91.9258C49.7982 91.9258 53.1066 91.2506 55.4887 89.6899L53.7728 87.0709ZM56.087 82.7536C56.087 84.6632 55.3407 86.0437 53.7728 87.0709L55.4887 89.6899C57.9498 88.0775 59.2181 85.7067 59.2181 82.7536H56.087ZM54.2911 78.7765C55.4699 79.6991 56.087 80.9593 56.087 82.7536H59.2181C59.2181 80.102 58.2374 77.889 56.2208 76.3108L54.2911 78.7765ZM48.1139 75.8057C50.8604 76.6765 52.8925 77.682 54.2911 78.7765L56.2208 76.3108C54.4239 74.9045 52.0101 73.7564 49.0603 72.8211L48.1139 75.8057ZM38.0496 72.6927C41.9223 73.7992 45.265 74.8333 48.0812 75.7949L49.093 72.8319C46.213 71.8485 42.8174 70.7986 38.9098 69.6821L38.0496 72.6927ZM26.0968 68.205C29.3409 69.8631 33.3338 71.3554 38.0526 72.6935L38.9068 69.6813C34.317 68.3797 30.5297 66.9544 27.5218 65.417L26.0968 68.205ZM18.492 61.3753C20.1937 64.1599 22.7515 66.4211 26.0726 68.1923L27.546 65.4297C24.615 63.8665 22.5186 61.9597 21.1637 59.7427L18.492 61.3753ZM15.97 51.181C15.97 55.1408 16.7769 58.5688 18.492 61.3753L21.1637 59.7427C19.8223 57.5476 19.101 54.7236 19.101 51.181H15.97ZM19.7921 37.5761C17.211 41.2958 15.97 45.8633 15.97 51.181H19.101C19.101 46.3565 20.2218 42.4491 22.3645 39.361L19.7921 37.5761ZM30.2623 29.2121C25.9074 31.0574 22.4042 33.8445 19.7958 37.5708L22.3608 39.3663C24.6151 36.1459 27.6417 33.7231 31.4839 32.095L30.2623 29.2121ZM44.5233 26.3788C39.3298 26.3788 34.5613 27.3175 30.2418 29.221L31.5044 32.0861C35.382 30.3774 39.7136 29.5099 44.5233 29.5099V26.3788ZM54.6978 27.5718C51.5052 26.7736 48.1117 26.3788 44.5233 26.3788V29.5099C47.8816 29.5099 51.018 29.8792 53.9384 30.6093L54.6978 27.5718ZM63.727 30.6909C60.9196 29.3952 57.906 28.356 54.6899 27.5698L53.9464 30.6113C56.9822 31.3534 59.8039 32.3287 62.4149 33.5338L63.727 30.6909ZM71.243 34.88C69.0097 33.3672 66.5025 31.9719 63.727 30.6909L62.4149 33.5338C65.0578 34.7536 67.4133 36.0676 69.4869 37.4723L71.243 34.88ZM65.3836 48.5954L71.7398 36.925L68.9901 35.4274L62.6339 47.0978L65.3836 48.5954ZM115.467 102.767C117.144 102.138 118.584 101.576 119.785 101.082L118.593 98.1864C117.432 98.6645 116.025 99.214 114.367 99.8354L115.467 102.767ZM109.774 104.301C111.802 103.939 113.701 103.429 115.467 102.767L114.367 99.8354C112.798 100.424 111.085 100.886 109.223 101.219L109.774 104.301ZM103.768 104.951C105.825 104.951 107.85 104.73 109.838 104.288L109.159 101.232C107.396 101.624 105.6 101.82 103.768 101.82V104.951ZM96.0766 103.474C98.4402 104.466 101.01 104.951 103.768 104.951V101.82C101.384 101.82 99.2307 101.402 97.2874 100.587L96.0766 103.474ZM90.1766 98.6375C91.6656 100.832 93.6413 102.453 96.0766 103.474L97.2874 100.587C95.4158 99.8021 93.9181 98.5751 92.7674 96.8794L90.1766 98.6375ZM88.0309 89.9434C88.0309 93.3323 88.6929 96.2496 90.1419 98.5841L92.8021 96.9329C91.7503 95.2383 91.1619 92.9455 91.1619 89.9434H88.0309ZM88.0309 58.5792V89.9434H91.1619V58.5792H88.0309ZM82.4066 60.1447H89.5964V57.0137H82.4066V60.1447ZM80.8411 47.8466V58.5792H83.9721V47.8466H80.8411ZM89.5964 46.2811H82.4066V49.4121H89.5964V46.2811ZM88.0309 30.1326V47.8466H91.1619V30.1326H88.0309ZM103.559 28.567H89.5964V31.6981H103.559V28.567ZM105.125 47.8466V30.1326H101.994V47.8466H105.125ZM115.021 46.2811H103.559V49.4121H115.021V46.2811ZM116.587 58.5792V47.8466H113.456V58.5792H116.587ZM103.559 60.1447H115.021V57.0137H103.559V60.1447ZM105.125 85.2544V58.5792H101.994V85.2544H105.125ZM106.141 88.1296C105.629 87.6908 105.185 86.8407 105.124 85.1965L101.995 85.3124C102.073 87.4194 102.67 89.2784 104.103 90.5069L106.141 88.1296ZM108.769 89.0031C107.629 89.0031 106.791 88.6863 106.141 88.1296L104.103 90.5069C105.399 91.6173 106.992 92.1342 108.769 92.1342V89.0031ZM112.524 88.3616C111.3 88.7902 110.05 89.0031 108.769 89.0031V92.1342C110.406 92.1342 112.005 91.8608 113.559 91.3169L112.524 88.3616ZM115.774 87.1437C114.98 87.4745 113.9 87.88 112.524 88.3616L113.559 91.3169C114.961 90.826 116.105 90.3979 116.978 90.0339L115.774 87.1437ZM120.706 99.2476L117.893 88.2024L114.859 88.9753L117.672 100.02L120.706 99.2476ZM129.486 86.2964C129.486 83.0594 130.367 80.2999 132.098 77.9513L129.577 76.094C127.418 79.0248 126.355 82.4479 126.355 86.2964H129.486ZM131.656 94.3428C130.215 91.962 129.486 89.2929 129.486 86.2964H126.355C126.355 89.8298 127.223 93.0654 128.977 95.9641L131.656 94.3428ZM137.83 99.9218C135.201 98.5111 133.146 96.6382 131.63 94.3015L129.003 96.0054C130.822 98.8093 133.282 101.035 136.349 102.681L137.83 99.9218ZM146.884 101.924C143.489 101.924 140.468 101.24 137.79 99.901L136.39 102.701C139.547 104.28 143.056 105.055 146.884 105.055V101.924ZM157.055 99.5721C153.707 101.148 150.321 101.924 146.884 101.924V105.055C150.811 105.055 154.65 104.164 158.388 102.405L157.055 99.5721ZM165.34 92.9458C163.131 95.8033 160.376 98.009 157.055 99.5721L158.388 102.405C162.152 100.634 165.301 98.1158 167.817 94.8603L165.34 92.9458ZM168.447 96.5436L168.134 93.7302L165.022 94.0759L165.335 96.8893L168.447 96.5436ZM170.543 100.138C169.403 99.1114 168.71 97.8861 168.428 96.4208L165.354 97.0121C165.766 99.1591 166.81 100.99 168.449 102.465L170.543 100.138ZM175.852 101.611C173.284 101.611 171.586 101.031 170.515 100.113L168.477 102.49C170.323 104.072 172.863 104.742 175.852 104.742V101.611ZM178.132 101.419C177.205 101.551 176.449 101.611 175.852 101.611V104.742C176.644 104.742 177.556 104.664 178.574 104.518L178.132 101.419ZM181.534 100.903C180.297 101.109 179.168 101.28 178.146 101.417L178.56 104.52C179.622 104.379 180.785 104.202 182.049 103.992L181.534 100.903ZM180.226 91.0896V102.447H183.357V91.0896H180.226ZM178.016 90.9835C178.917 91.9961 180.206 92.4794 181.609 92.6444L181.974 89.5348C181.015 89.422 180.568 89.1411 180.357 88.9034L178.016 90.9835ZM176.892 86.8174C176.892 88.3683 177.134 89.8544 177.951 90.9046L180.422 88.9823C180.267 88.782 180.023 88.1842 180.023 86.8174H176.892ZM176.892 69.416V86.8174H180.023V69.416H176.892ZM170.852 53.9141C174.819 57.4395 176.892 62.5256 176.892 69.416H180.023C180.023 61.8573 177.719 55.8288 172.933 51.5739L170.852 53.9141ZM153.762 48.4743C161.288 48.4743 166.91 50.3532 170.843 53.9058L172.942 51.5822C168.261 47.3545 161.796 45.3433 153.762 45.3433V48.4743ZM142.241 50.1759C145.906 49.0432 149.744 48.4743 153.762 48.4743V45.3433C149.444 45.3433 145.293 45.9553 141.316 47.1845L142.241 50.1759ZM131.59 55.3047C135.094 53.0136 138.647 51.3074 142.249 50.1734L141.309 47.1869C137.408 48.4148 133.597 50.2514 129.877 52.6841L131.59 55.3047ZM136.621 62.4767L132.14 53.3071L129.327 54.6817L133.807 63.8513L136.621 62.4767ZM143.196 57.118C140.354 58.2112 137.401 59.8006 134.339 61.8661L136.089 64.4619C139.001 62.4983 141.744 61.0312 144.32 60.0404L143.196 57.118ZM152.303 55.4507C149.129 55.4507 146.09 56.005 143.196 57.118L144.32 60.0404C146.845 59.0694 149.502 58.5817 152.303 58.5817V55.4507ZM162.435 58.6838C160.021 56.4362 156.547 55.4507 152.303 55.4507V58.5817C156.117 58.5817 158.687 59.4718 160.302 60.9754L162.435 58.6838ZM166.06 67.853C166.06 64.0501 164.906 60.9071 162.416 58.666L160.321 60.9932C161.999 62.5033 162.929 64.7093 162.929 67.853H166.06ZM166.06 70.7706V67.853H162.929V70.7706H166.06ZM158.119 70.6523C160.376 70.9842 162.284 71.5083 163.864 72.2036L165.125 69.3377C163.232 68.5047 161.041 67.9173 158.574 67.5545L158.119 70.6523ZM151.365 70.1479C153.578 70.1479 155.829 70.3156 158.119 70.6523L158.574 67.5545C156.14 67.1966 153.737 67.0169 151.365 67.0169V70.1479ZM139.77 72.2182C143.09 70.851 146.945 70.1479 151.365 70.1479V67.0169C146.615 67.0169 142.343 67.7726 138.578 69.323L139.77 72.2182ZM132.094 77.9568C133.917 75.5049 136.453 73.5838 139.77 72.2182L138.578 69.323C134.808 70.875 131.787 73.1219 129.581 76.0885L132.094 77.9568ZM207.425 102.101C210.7 103.59 214.257 104.326 218.076 104.326V101.195C214.67 101.195 211.559 100.541 208.721 99.2509L207.425 102.101ZM199.074 95.6565C201.432 98.3829 204.205 100.529 207.386 102.083L208.76 99.2693C205.967 97.9053 203.53 96.0225 201.442 93.6084L199.074 95.6565ZM193.78 86.2981C195.02 89.7988 196.778 92.9167 199.058 95.6379L201.458 93.627C199.431 91.2077 197.854 88.4209 196.732 85.2528L193.78 86.2981ZM191.919 75.147C191.919 79.0654 192.537 82.7859 193.78 86.2981L196.732 85.2528C195.614 82.0961 195.05 78.731 195.05 75.147H191.919ZM193.891 63.562C192.571 67.154 191.919 71.0202 191.919 75.147H195.05C195.05 71.3547 195.649 67.8574 196.83 64.6416L193.891 63.562ZM199.386 54.1165C197.032 56.839 195.202 59.9928 193.891 63.562L196.83 64.6416C198.02 61.4031 199.663 58.5827 201.754 56.1647L199.386 54.1165ZM207.946 47.6718C204.676 49.158 201.822 51.3118 199.388 54.1141L201.752 56.1671C203.904 53.6899 206.398 51.8146 209.242 50.5222L207.946 47.6718ZM218.91 45.3433C214.95 45.3433 211.283 46.1146 207.932 47.6783L209.256 50.5156C212.157 49.1618 215.367 48.4743 218.91 48.4743V45.3433ZM230.873 48.4891C227.401 46.3757 223.395 45.3433 218.91 45.3433V48.4743C222.899 48.4743 226.326 49.3869 229.245 51.1636L230.873 48.4891ZM239.289 56.5778C237.077 53.1856 234.262 50.4782 230.851 48.4763L229.267 51.1765C232.247 52.9258 234.711 55.2894 236.667 58.2882L239.289 56.5778ZM236.413 47.8466V57.433H239.544V47.8466H236.413ZM250.17 46.2811H237.978V49.4121H250.17V46.2811ZM251.735 99.8425V47.8466H248.604V99.8425H251.735ZM247.498 114.591C250.347 110.467 251.735 105.524 251.735 99.8425H248.604C248.604 104.997 247.352 109.294 244.922 112.811L247.498 114.591ZM236.107 123.991C240.946 121.865 244.768 118.724 247.516 114.564L244.904 112.838C242.512 116.458 239.178 119.222 234.848 121.125L236.107 123.991ZM219.847 127.25C225.871 127.25 231.307 126.173 236.125 123.983L234.83 121.133C230.478 123.111 225.494 124.119 219.847 124.119V127.25ZM204.152 124.067C208.519 126.214 213.771 127.25 219.847 127.25V124.119C214.114 124.119 209.363 123.14 205.533 121.257L204.152 124.067ZM193.1 115.31C196.162 119.101 199.855 122.028 204.171 124.077L205.514 121.248C201.633 119.406 198.31 116.777 195.536 113.343L193.1 115.31ZM200.833 105.806L193.227 113.204L195.41 115.449L203.016 108.05L200.833 105.806ZM210.402 111.553C207.482 110.19 205.069 108.32 203.141 105.942L200.709 107.914C202.949 110.677 205.746 112.836 209.078 114.39L210.402 111.553ZM219.847 113.594C216.527 113.594 213.38 112.912 210.39 111.548L209.09 114.396C212.491 115.949 216.082 116.725 219.847 116.725V113.594ZM227.324 112.069C225.12 113.077 222.636 113.594 219.847 113.594V116.725C223.033 116.725 225.967 116.132 228.626 114.916L227.324 112.069ZM232.594 107.651C231.306 109.674 229.577 111.129 227.373 112.048L228.577 114.938C231.375 113.772 233.605 111.893 235.235 109.332L232.594 107.651ZM234.641 99.8425C234.641 103.167 233.925 105.713 232.624 107.604L235.204 109.378C236.961 106.823 237.772 103.604 237.772 99.8425H234.641ZM234.641 92.9652V99.8425H237.772V92.9652H234.641ZM229.219 101.648C232.806 99.7795 235.601 97.1432 237.562 93.7484L234.851 92.182C233.2 95.0393 230.855 97.2656 227.773 98.8708L229.219 101.648ZM218.076 104.326C222.004 104.326 225.722 103.434 229.208 101.654L227.784 98.865C224.741 100.419 221.511 101.195 218.076 101.195V104.326ZM226.624 89.4036C225.407 89.8295 224.124 90.0451 222.765 90.0451V93.1762C224.463 93.1762 226.097 92.9055 227.659 92.3589L226.624 89.4036ZM230.094 87.6225C229.034 88.3707 227.879 88.9645 226.624 89.4036L227.659 92.3589C229.183 91.8255 230.598 91.0993 231.9 90.1804L230.094 87.6225ZM232.908 84.9966C232.096 85.996 231.159 86.8706 230.094 87.6224L231.9 90.1804C233.196 89.2651 234.344 88.1946 235.338 86.971L232.908 84.9966ZM234.759 81.845C234.333 82.8805 233.712 83.9434 232.879 85.0328L235.366 86.9348C236.339 85.6624 237.108 84.3635 237.654 83.0371L234.759 81.845ZM234.641 69.416V82.441H237.772V69.416H234.641ZM231.533 64.8713C232.912 66.3135 233.984 68.0113 234.747 69.9811L237.667 68.8509C236.762 66.5138 235.472 64.4604 233.795 62.7071L231.533 64.8713ZM227.027 61.5728C228.694 62.3139 230.187 63.3978 231.508 64.8448L233.82 62.7336C232.224 60.9851 230.382 59.6377 228.298 58.7116L227.027 61.5728ZM221.931 60.3531C223.702 60.3531 225.373 60.7478 226.962 61.5424L228.363 58.7419C226.34 57.7305 224.19 57.2221 221.931 57.2221V60.3531ZM216.818 61.5311C218.31 60.7554 220.004 60.3531 221.931 60.3531V57.2221C219.552 57.2221 217.355 57.7229 215.374 58.7532L216.818 61.5311ZM212.868 64.9369C213.987 63.445 215.303 62.319 216.818 61.5311L215.374 58.7532C213.416 59.7715 211.745 61.2158 210.363 63.0583L212.868 64.9369ZM210.178 69.9264C210.819 68.0676 211.71 66.4167 212.848 64.9624L210.383 63.0328C209.02 64.774 207.966 66.7353 207.218 68.9057L210.178 69.9264ZM209.326 75.5638C209.326 73.5641 209.616 71.6771 210.188 69.8951L207.208 68.9369C206.53 71.045 206.195 73.2566 206.195 75.5638H209.326ZM210.363 81.2434C209.675 79.4921 209.326 77.6035 209.326 75.5638H206.195C206.195 77.9701 206.609 80.2495 207.449 82.3883L210.363 81.2434ZM213.193 85.8713C212.008 84.5612 211.063 83.0236 210.363 81.2434L207.449 82.3883C208.278 84.4981 209.417 86.3645 210.871 87.972L213.193 85.8713ZM217.482 88.9388C215.857 88.189 214.421 87.1596 213.166 85.842L210.899 88.0013C212.423 89.6013 214.182 90.8642 216.17 91.7817L217.482 88.9388ZM222.765 90.0451C220.897 90.0451 219.134 89.6729 217.461 88.9296L216.19 91.7908C218.269 92.7148 220.465 93.1762 222.765 93.1762V90.0451ZM293.286 101.924C289.086 101.924 285.332 101.224 282.004 99.8537L280.812 102.749C284.569 104.296 288.734 105.055 293.286 105.055V101.924ZM303.809 100.242C300.664 101.356 297.162 101.924 293.286 101.924V105.055C297.469 105.055 301.331 104.442 304.854 103.194L303.809 100.242ZM311.942 95.4403C309.668 97.455 306.954 99.0626 303.782 100.252L304.881 103.184C308.378 101.873 311.43 100.076 314.018 97.7842L311.942 95.4403ZM317.297 88.5423C316.078 91.1099 314.307 93.4043 311.959 95.4259L314.002 97.7985C316.656 95.5133 318.705 92.8755 320.125 89.8857L317.297 88.5423ZM306.309 87.3878L318.292 90.7223L319.131 87.7058L307.148 84.3714L306.309 87.3878ZM302.383 92.6665C305.133 91.1385 307.117 89.0833 308.179 86.4689L305.278 85.2904C304.534 87.1219 303.113 88.679 300.862 89.9295L302.383 92.6665ZM293.807 94.8434C296.846 94.8434 299.708 94.1188 302.369 92.6739L300.876 89.9222C298.675 91.117 296.326 91.7123 293.807 91.7123V94.8434ZM286.248 93.1241C288.618 94.2707 291.144 94.8434 293.807 94.8434V91.7123C291.608 91.7123 289.549 91.243 287.612 90.3056L286.248 93.1241ZM280.418 87.79C281.941 90.0757 283.868 91.8557 286.194 93.0962L287.667 90.3335C285.825 89.351 284.278 87.9356 283.023 86.0532L280.418 87.79ZM277.766 79.7834C278.065 82.7723 278.931 85.4436 280.398 87.7593L283.043 86.084C281.87 84.2316 281.138 82.0403 280.881 79.4718L277.766 79.7834ZM321.525 78.0621H279.324V81.1931H321.525V78.0621ZM320.173 77.4136C320.105 78.2351 320.037 78.9067 319.971 79.4335L323.078 79.8218C323.151 79.2371 323.223 78.5194 323.293 77.6736L320.173 77.4136ZM320.272 74.9386C320.272 75.7289 320.239 76.5571 320.172 77.4236L323.294 77.6637C323.366 76.724 323.403 75.8155 323.403 74.9386H320.272ZM317.022 61.9291C319.187 65.9322 320.272 70.2602 320.272 74.9386H323.403C323.403 69.7528 322.195 64.9111 319.776 60.4393L317.022 61.9291ZM307.896 52.2069C311.893 54.6312 314.92 57.8575 317.008 61.9022L319.79 60.4662C317.432 55.897 313.998 52.2461 309.52 49.5298L307.896 52.2069ZM293.391 48.4743C299.13 48.4743 303.936 49.7402 307.88 52.1972L309.536 49.5396C305.005 46.7171 299.599 45.3433 293.391 45.3433V48.4743ZM278.778 52.2089C282.874 49.738 287.726 48.4743 293.391 48.4743V45.3433C287.246 45.3433 281.817 46.7193 277.16 49.5278L278.778 52.2089ZM269.339 61.9369C271.563 57.8798 274.699 54.6433 278.771 52.2127L277.167 49.524C272.626 52.234 269.092 55.8747 266.593 60.4314L269.339 61.9369ZM266.093 75.4596C266.093 70.4882 267.184 65.985 269.348 61.9198L266.584 60.4486C264.163 64.9973 262.962 70.011 262.962 75.4596H266.093ZM267.967 85.6262C266.719 82.4079 266.093 79.0227 266.093 75.4596H262.962C262.962 79.399 263.656 83.1688 265.047 86.7582L267.967 85.6262ZM273.479 94.0768C271.108 91.5742 269.268 88.7477 267.952 85.5901L265.062 86.7943C266.525 90.3056 268.575 93.4532 271.206 96.2301L273.479 94.0768ZM282.028 99.8638C278.659 98.4105 275.811 96.4741 273.464 94.0617L271.22 96.2452C273.875 98.9733 277.071 101.135 280.788 102.739L282.028 99.8638ZM279.011 72.3361H307.562V69.2051H279.011V72.3361ZM279.973 62.7552C278.576 65.0058 277.751 67.6404 277.453 70.6148L280.569 70.9264C280.827 68.3434 281.53 66.1849 282.634 64.4064L279.973 62.7552ZM285.549 57.4169C283.287 58.6647 281.431 60.4532 279.981 62.7432L282.626 64.4184C283.815 62.5404 285.294 61.1334 287.061 60.1583L285.549 57.4169ZM293.182 55.4507C290.423 55.4507 287.863 56.1053 285.533 57.4256L287.077 60.1496C288.915 59.108 290.94 58.5817 293.182 58.5817V55.4507ZM300.936 57.4256C298.599 56.1015 296.003 55.4507 293.182 55.4507V58.5817C295.502 58.5817 297.56 59.1118 299.392 60.1496L300.936 57.4256ZM306.508 62.7753C305.116 60.4554 303.242 58.6553 300.9 57.4062L299.427 60.1689C301.253 61.1429 302.714 62.5381 303.823 64.3862L306.508 62.7753ZM309.12 70.6148C308.821 67.6256 307.953 64.9794 306.475 62.7229L303.856 64.4387C305.017 66.2113 305.747 68.3582 306.004 70.9264L309.12 70.6148ZM363.599 51.1575C361.938 55.6356 361.104 60.2309 361.104 64.9354H364.235C364.235 60.6092 365 56.3822 366.534 52.2465L363.599 51.1575ZM371.082 38.7874C367.833 42.4698 365.338 46.5911 363.604 51.1447L366.53 52.2593C368.129 48.06 370.427 44.2622 373.43 40.8589L371.082 38.7874ZM383.062 29.8573C378.353 32.0307 374.35 35.0112 371.073 38.7987L373.44 40.8476C376.414 37.4106 380.053 34.6948 384.374 32.7002L383.062 29.8573ZM399.14 26.483C393.177 26.483 387.8 27.5976 383.044 29.8657L384.392 32.6918C388.667 30.653 393.572 29.6141 399.14 29.6141V26.483ZM417.561 31.1901C412.343 28.03 406.182 26.483 399.14 26.483V29.6141C405.714 29.6141 411.292 31.0542 415.939 33.8682L417.561 31.1901ZM429.295 43.4914C426.719 38.4123 422.786 34.3106 417.553 31.1851L415.947 33.8732C420.717 36.7219 424.217 40.4004 426.503 44.9078L429.295 43.4914ZM417.742 53.0955L428.787 45.4889L427.011 42.9102L415.966 50.5168L417.742 53.0955ZM410.984 46.4682C412.769 47.884 414.26 49.8561 415.426 52.4486L418.282 51.1637C416.947 48.1989 415.173 45.7946 412.929 44.015L410.984 46.4682ZM405.084 43.3133C407.141 43.8743 409.098 44.908 410.958 46.4476L412.955 44.0355C410.786 42.2407 408.436 40.9821 405.908 40.2926L405.084 43.3133ZM398.723 42.3265C400.781 42.3265 402.886 42.6477 405.042 43.3012L405.95 40.3047C403.522 39.5689 401.111 39.1954 398.723 39.1954V42.3265ZM389.983 44.3276C392.428 43.0114 395.325 42.3265 398.723 42.3265V39.1954C394.897 39.1954 391.473 39.9694 388.499 41.5708L389.983 44.3276ZM383.816 49.6311C385.489 47.4437 387.545 45.6751 389.998 44.3194L388.484 41.579C385.658 43.1409 383.268 45.193 381.329 47.7292L383.816 49.6311ZM380.004 57.0623C380.854 54.3161 382.125 51.8424 383.816 49.6311L381.329 47.7292C379.407 50.2416 377.969 53.0475 377.013 56.1365L380.004 57.0623ZM378.824 65.3522C378.824 62.5858 379.218 59.8128 380.014 57.0295L377.003 56.1693C376.131 59.2212 375.692 62.2834 375.692 65.3522H378.824ZM380.303 74.3293C379.317 71.4372 378.824 68.4472 378.824 65.3522H375.692C375.692 68.787 376.241 72.1186 377.339 75.3396L380.303 74.3293ZM384.423 81.8843C382.662 79.6664 381.286 77.1483 380.299 74.3188L377.343 75.3501C378.44 78.4946 379.981 81.3255 381.971 83.8314L384.423 81.8843ZM390.804 86.9951C388.343 85.6998 386.208 83.9859 384.391 81.845L382.004 83.8707C384.077 86.3146 386.527 88.2824 389.345 89.7658L390.804 86.9951ZM398.932 88.7947C395.959 88.7947 393.243 88.1826 390.76 86.973L389.389 89.7878C392.325 91.218 395.513 91.9258 398.932 91.9258V88.7947ZM405.431 87.7245C403.212 88.4425 401.047 88.7947 398.932 88.7947V91.9258C401.401 91.9258 403.89 91.5139 406.395 90.7035L405.431 87.7245ZM411.479 84.361C409.609 85.9087 407.595 87.0246 405.431 87.7245L406.395 90.7035C408.955 89.8752 411.317 88.5597 413.476 86.7731L411.479 84.361ZM415.724 78.4991C414.701 80.929 413.282 82.8695 411.479 84.361L413.476 86.7731C415.703 84.9302 417.41 82.5637 418.609 79.7141L415.724 78.4991ZM429.722 84.5226L417.947 77.7496L416.386 80.4636L428.161 87.2367L429.722 84.5226ZM422.707 96.4976C426.25 93.7665 428.827 90.4167 430.397 86.4563L427.486 85.3029C426.137 88.706 423.922 91.6082 420.796 94.0177L422.707 96.4976ZM411.186 102.583C415.455 101.208 419.303 99.1772 422.72 96.4877L420.783 94.0275C417.669 96.4787 414.154 98.3377 410.226 99.6027L411.186 102.583ZM398.515 104.638C402.718 104.638 406.943 103.949 411.186 102.583L410.226 99.6027C406.272 100.876 402.37 101.507 398.515 101.507V104.638ZM383.34 101.247C387.949 103.515 393.016 104.638 398.515 104.638V101.507C393.455 101.507 388.866 100.477 384.722 98.4378L383.34 101.247ZM371.501 92.1269C374.829 95.8895 378.773 98.9277 383.322 101.238L384.74 98.4467C380.536 96.3114 376.908 93.5144 373.846 90.0524L371.501 92.1269ZM363.821 79.3754C365.69 84.0467 368.244 88.2913 371.48 92.1029L373.867 90.0764C370.851 86.5245 368.472 82.572 366.729 78.2126L363.821 79.3754ZM361.104 64.9354C361.104 69.7891 362.011 74.5961 363.811 79.3486L366.739 78.2395C365.066 73.8223 364.235 69.3902 364.235 64.9354H361.104ZM493.567 102.749C497.324 104.296 501.49 105.055 506.042 105.055V101.924C501.841 101.924 498.088 101.224 494.759 99.8537L493.567 102.749ZM483.976 96.2452C486.63 98.9733 489.826 101.135 493.543 102.739L494.783 99.8638C491.414 98.4105 488.567 96.4741 486.22 94.0617L483.976 96.2452ZM477.818 86.7944C479.281 90.3056 481.331 93.4532 483.961 96.2301L486.234 94.0768C483.863 91.5742 482.023 88.7477 480.708 85.5901L477.818 86.7944ZM475.717 75.4596C475.717 79.399 476.411 83.1689 477.803 86.7582L480.722 85.6263C479.474 82.4079 478.848 79.0227 478.848 75.4596H475.717ZM479.339 60.4486C476.918 64.9973 475.717 70.011 475.717 75.4596H478.848C478.848 70.4882 479.94 65.985 482.103 61.9197L479.339 60.4486ZM489.922 49.524C485.381 52.234 481.848 55.8747 479.349 60.4314L482.094 61.9369C484.319 57.8798 487.454 54.6433 491.527 52.2127L489.922 49.524ZM506.146 45.3433C500.002 45.3433 494.572 46.7193 489.916 49.5278L491.533 52.2089C495.63 49.738 500.482 48.4743 506.146 48.4743V45.3433ZM522.291 49.5396C517.761 46.7171 512.355 45.3433 506.146 45.3433V48.4743C511.886 48.4743 516.692 49.7402 520.636 52.1972L522.291 49.5396ZM532.545 60.4662C530.187 55.897 526.754 52.2461 522.276 49.5298L520.652 52.2069C524.649 54.6312 527.675 57.8575 529.763 61.9022L532.545 60.4662ZM536.158 74.9386C536.158 69.7528 534.95 64.9111 532.531 60.4393L529.777 61.9291C531.943 65.9322 533.027 70.2602 533.027 74.9386H536.158ZM536.05 77.6637C536.122 76.724 536.158 75.8155 536.158 74.9386H533.027C533.027 75.7289 532.994 76.5571 532.928 77.4236L536.05 77.6637ZM535.834 79.8218C535.907 79.2371 535.978 78.5193 536.049 77.6736L532.929 77.4136C532.86 78.2351 532.793 78.9067 532.727 79.4335L535.834 79.8218ZM492.079 81.1931H534.28V78.0621H492.079V81.1931ZM495.798 86.084C494.625 84.2316 493.894 82.0403 493.637 79.4718L490.521 79.7834C490.82 82.7723 491.687 85.4436 493.153 87.7593L495.798 86.084ZM500.423 90.3335C498.58 89.351 497.033 87.9356 495.778 86.0532L493.173 87.79C494.697 90.0757 496.623 91.8557 498.949 93.0962L500.423 90.3335ZM506.563 91.7123C504.364 91.7123 502.305 91.243 500.368 90.3056L499.004 93.1241C501.374 94.2707 503.9 94.8434 506.563 94.8434V91.7123ZM513.631 89.9222C511.43 91.117 509.082 91.7123 506.563 91.7123V94.8434C509.601 94.8434 512.463 94.1188 515.125 92.6739L513.631 89.9222ZM518.033 85.2904C517.289 87.1219 515.869 88.679 513.618 89.9295L515.138 92.6665C517.889 91.1385 519.872 89.0833 520.934 86.4689L518.033 85.2904ZM531.887 87.7058L519.904 84.3714L519.064 87.3878L531.047 90.7223L531.887 87.7058ZM526.757 97.7986C529.411 95.5133 531.461 92.8754 532.881 89.8857L530.053 88.5423C528.833 91.11 527.062 93.4043 524.714 95.4259L526.757 97.7986ZM517.637 103.184C521.133 101.873 524.186 100.076 526.774 97.7842L524.698 95.4403C522.423 97.455 519.71 99.0626 516.538 100.252L517.637 103.184ZM506.042 105.055C510.225 105.055 514.086 104.442 517.61 103.194L516.565 100.242C513.42 101.356 509.918 101.924 506.042 101.924V105.055ZM520.317 69.2051H491.767V72.3361H520.317V69.2051ZM516.611 64.4387C517.773 66.2113 518.503 68.3582 518.76 70.9264L521.875 70.6148C521.576 67.6256 520.709 64.9794 519.23 62.7229L516.611 64.4387ZM512.183 60.1689C514.009 61.1429 515.47 62.5382 516.578 64.3862L519.263 62.7753C517.871 60.4554 515.998 58.6552 513.656 57.4062L512.183 60.1689ZM505.938 58.5817C508.258 58.5817 510.316 59.1118 512.147 60.1496L513.691 57.4256C511.355 56.1015 508.758 55.4507 505.938 55.4507V58.5817ZM499.832 60.1496C501.671 59.108 503.695 58.5817 505.938 58.5817V55.4507C503.179 55.4507 500.619 56.1053 498.289 57.4256L499.832 60.1496ZM495.382 64.4184C496.571 62.5404 498.05 61.1334 499.817 60.1583L498.304 57.4169C496.043 58.6647 494.187 60.4532 492.736 62.7432L495.382 64.4184ZM493.324 70.9264C493.583 68.3434 494.285 66.1849 495.389 64.4064L492.729 62.7552C491.332 65.0058 490.506 67.6405 490.209 70.6148L493.324 70.9264ZM546.123 86.2964C546.123 83.0594 547.005 80.2999 548.736 77.9513L546.215 76.094C544.056 79.0248 542.992 82.4479 542.992 86.2964H546.123ZM548.294 94.3428C546.853 91.962 546.123 89.2929 546.123 86.2964H542.992C542.992 89.8298 543.861 93.0654 545.615 95.9641L548.294 94.3428ZM554.468 99.9218C551.839 98.5111 549.783 96.6382 548.268 94.3015L545.641 96.0054C547.46 98.8093 549.92 101.035 552.987 102.681L554.468 99.9218ZM563.522 101.924C560.127 101.924 557.105 101.24 554.428 99.901L553.027 102.701C556.185 104.28 559.693 105.055 563.522 105.055V101.924ZM573.692 99.5721C570.345 101.148 566.959 101.924 563.522 101.924V105.055C567.449 105.055 571.288 104.164 575.026 102.405L573.692 99.5721ZM581.977 92.9458C579.769 95.8033 577.014 98.009 573.692 99.5721L575.026 102.405C578.79 100.634 581.939 98.1158 584.455 94.8603L581.977 92.9458ZM585.085 96.5435L584.772 93.7301L581.66 94.0759L581.973 96.8893L585.085 96.5435ZM587.181 100.138C586.041 99.1114 585.348 97.8861 585.066 96.4208L581.991 97.0121C582.404 99.159 583.448 100.99 585.086 102.465L587.181 100.138ZM592.49 101.611C589.921 101.611 588.224 101.031 587.152 100.113L585.115 102.49C586.961 104.072 589.501 104.742 592.49 104.742V101.611ZM594.769 101.419C593.843 101.551 593.087 101.611 592.49 101.611V104.742C593.282 104.742 594.194 104.664 595.212 104.518L594.769 101.419ZM598.172 100.903C596.935 101.109 595.806 101.28 594.784 101.417L595.198 104.52C596.26 104.379 597.423 104.202 598.687 103.992L598.172 100.903ZM596.864 91.0896V102.447H599.995V91.0896H596.864ZM594.654 90.9835C595.554 91.9962 596.844 92.4794 598.246 92.6444L598.612 89.5348C597.653 89.422 597.206 89.1411 596.994 88.9034L594.654 90.9835ZM593.529 86.8174C593.529 88.3682 593.772 89.8544 594.589 90.9046L597.06 88.9823C596.904 88.782 596.66 88.1842 596.66 86.8174H593.529ZM593.529 69.416V86.8174H596.66V69.416H593.529ZM587.49 53.9141C591.456 57.4395 593.529 62.5256 593.529 69.416H596.66C596.66 61.8573 594.357 55.8288 589.57 51.5739L587.49 53.9141ZM570.399 48.4743C577.926 48.4743 583.548 50.3532 587.481 53.9058L589.58 51.5822C584.899 47.3545 578.433 45.3433 570.399 45.3433V48.4743ZM558.879 50.1759C562.543 49.0432 566.382 48.4743 570.399 48.4743V45.3433C566.081 45.3433 561.931 45.9553 557.954 47.1845L558.879 50.1759ZM548.228 55.3047C551.732 53.0136 555.285 51.3074 558.887 50.1734L557.946 47.1869C554.046 48.4148 550.235 50.2514 546.514 52.6841L548.228 55.3047ZM553.258 62.4767L548.778 53.3071L545.965 54.6817L550.445 63.8513L553.258 62.4767ZM559.834 57.118C556.992 58.2112 554.039 59.8006 550.976 61.8661L552.727 64.4619C555.639 62.4983 558.382 61.0312 560.958 60.0404L559.834 57.118ZM568.941 55.4507C565.767 55.4507 562.728 56.005 559.834 57.118L560.958 60.0404C563.483 59.0694 566.14 58.5817 568.941 58.5817V55.4507ZM579.073 58.6838C576.659 56.4362 573.184 55.4507 568.941 55.4507V58.5817C572.755 58.5817 575.324 59.4718 576.939 60.9754L579.073 58.6838ZM582.698 67.853C582.698 64.0501 581.543 60.9071 579.053 58.666L576.959 60.9932C578.637 62.5033 579.567 64.7093 579.567 67.853H582.698ZM582.698 70.7706V67.853H579.567V70.7706H582.698ZM574.756 70.6523C577.014 70.9842 578.921 71.5083 580.502 72.2036L581.763 69.3377C579.869 68.5047 577.679 67.9173 575.212 67.5545L574.756 70.6523ZM568.003 70.1479C570.216 70.1479 572.467 70.3156 574.756 70.6523L575.212 67.5545C572.778 67.1966 570.375 67.0169 568.003 67.0169V70.1479ZM556.408 72.2182C559.728 70.851 563.583 70.1479 568.003 70.1479V67.0169C563.253 67.0169 558.981 67.7726 555.215 69.323L556.408 72.2182ZM548.732 77.9568C550.555 75.5049 553.091 73.5838 556.408 72.2182L555.215 69.323C551.446 70.875 548.425 73.1219 546.219 76.0885L548.732 77.9568ZM635.205 63.8348C638.294 62.2903 641.835 61.4993 645.863 61.4993V58.3683C641.416 58.3683 637.385 59.2444 633.805 61.0344L635.205 63.8348ZM628.728 70.0903C630.019 67.3867 632.138 65.3047 635.182 63.8464L633.829 61.0228C630.203 62.7599 627.53 65.3322 625.903 68.7417L628.728 70.0903ZM628.881 102.447V69.416H625.75V102.447H628.881ZM613.353 104.013H627.315V100.882H613.353V104.013ZM611.787 47.8466V102.447H614.918V47.8466H611.787ZM626.169 46.2811H613.353V49.4121H626.169V46.2811ZM627.735 59.517V47.8466H624.604V59.517H627.735ZM632.652 49.3901C629.438 51.7068 626.821 54.8597 624.78 58.7964L627.559 60.2376C629.408 56.6719 631.722 53.9201 634.483 51.9299L632.652 49.3901ZM642.952 45.5547C639.293 45.7834 635.853 47.0822 632.652 49.3901L634.483 51.9299C637.256 49.9309 640.137 48.8678 643.147 48.6796L642.952 45.5547ZM644.821 45.5517H643.05V48.6827H644.821V45.5517ZM646.243 45.7026C645.798 45.5915 645.313 45.5517 644.821 45.5517V48.6827C645.162 48.6827 645.372 48.7123 645.483 48.7402L646.243 45.7026ZM647.429 59.9338V47.2214H644.298V59.9338H647.429ZM152.848 81.6557L150.328 76.2288L147.488 77.5476L150.008 82.9745L152.848 81.6557ZM157.556 81.4809L151.616 80.761L151.24 83.8693L157.18 84.5892L157.556 81.4809ZM154.051 88.2556L158.434 84.1817L156.302 81.8884L151.92 85.9624L154.051 88.2556ZM155.673 92.6797L154.522 86.8079L151.449 87.4101L152.6 93.282L155.673 92.6797ZM148.147 91.4398L153.375 94.3489L154.898 91.6128L149.669 88.7037L148.147 91.4398ZM144.44 94.3489L149.669 91.4398L148.147 88.7037L142.918 91.6128L144.44 94.3489ZM143.293 86.8079L142.143 92.6797L145.215 93.282L146.366 87.4101L143.293 86.8079ZM139.381 84.1817L143.764 88.2556L145.896 85.9624L141.513 81.8884L139.381 84.1817ZM146.199 80.761L140.259 81.4809L140.636 84.5892L146.576 83.8693L146.199 80.761ZM147.488 76.2288L144.967 81.6557L147.807 82.9745L150.328 77.5476L147.488 76.2288ZM564.384 77.5476L566.905 82.9745L569.744 81.6557L567.224 76.2288L564.384 77.5476ZM564.704 82.9745L567.224 77.5476L564.384 76.2288L561.864 81.6557L564.704 82.9745ZM557.532 84.5892L563.472 83.8693L563.095 80.761L557.155 81.4809L557.532 84.5892ZM562.792 85.9624L558.41 81.8884L556.278 84.1817L560.66 88.2556L562.792 85.9624ZM562.112 93.282L563.263 87.4101L560.19 86.8079L559.039 92.6797L562.112 93.282ZM565.043 88.7037L559.814 91.6128L561.336 94.3489L566.565 91.4398L565.043 88.7037ZM571.794 91.6128L566.565 88.7037L565.043 91.4398L570.272 94.3489L571.794 91.6128ZM568.346 87.4101L569.497 93.282L572.569 92.6797L571.418 86.8079L568.346 87.4101ZM573.199 81.8884L568.816 85.9624L570.948 88.2556L575.33 84.1816L573.199 81.8884ZM568.136 83.8693L574.076 84.5892L574.453 81.4809L568.513 80.761L568.136 83.8693Z" fill="white" mask="url(#path-1-outside-1_155_3555)"/>
<path d="M683.533 73.3214L693.745 24.9726H705.207L694.995 73.3214H683.533ZM677.906 99.6841L680.928 85.4087H692.39L689.368 99.6841H677.906Z" fill="url(#paint1_linear_155_3555)"/>
<path d="M683.533 73.3214L682.001 72.9979L681.602 74.887H683.533V73.3214ZM693.745 24.9726V23.4071H692.475L692.213 24.6491L693.745 24.9726ZM705.207 24.9726L706.738 25.2961L707.137 23.4071H705.207V24.9726ZM694.995 73.3214V74.887H696.264L696.527 73.645L694.995 73.3214ZM677.906 99.6841L676.375 99.3599L675.975 101.25H677.906V99.6841ZM680.928 85.4087V83.8431H679.659L679.396 85.0845L680.928 85.4087ZM692.39 85.4087L693.922 85.7329L694.322 83.8431H692.39V85.4087ZM689.368 99.6841V101.25H690.637L690.9 100.008L689.368 99.6841ZM685.065 73.645L695.276 25.2961L692.213 24.6491L682.001 72.9979L685.065 73.645ZM693.745 26.5381H705.207V23.4071H693.745V26.5381ZM703.675 24.6491L693.463 72.9979L696.527 73.645L706.738 25.2961L703.675 24.6491ZM694.995 71.7559H683.533V74.887H694.995V71.7559ZM679.438 100.008L682.46 85.7329L679.396 85.0845L676.375 99.3599L679.438 100.008ZM680.928 86.9742H692.39V83.8431H680.928V86.9742ZM690.858 85.0845L687.837 99.3599L690.9 100.008L693.922 85.7329L690.858 85.0845ZM689.368 98.1186H677.906V101.25H689.368V98.1186Z" fill="white"/>
</g>
<defs>
<filter id="filter0_d_155_3555" x="0.500977" y="12.8159" width="716.706" height="126.434" filterUnits="userSpaceOnUse" color-interpolation-filters="sRGB">
<feFlood flood-opacity="0" result="BackgroundImageFix"/>
<feColorMatrix in="SourceAlpha" type="matrix" values="0 0 0 0 0 0 0 0 0 0 0 0 0 0 0 0 0 0 127 0" result="hardAlpha"/>
<feOffset/>
<feGaussianBlur stdDeviation="6"/>
<feComposite in2="hardAlpha" operator="out"/>
<feColorMatrix type="matrix" values="0 0 0 0 1 0 0 0 0 1 0 0 0 0 1 0 0 0 1 0"/>
<feBlend mode="overlay" in2="BackgroundImageFix" result="effect1_dropShadow_155_3555"/>
<feBlend mode="normal" in="SourceGraphic" in2="effect1_dropShadow_155_3555" result="shape"/>
</filter>
<linearGradient id="paint0_linear_155_3555" x1="213.283" y1="42.2009" x2="213.283" y2="104.582" gradientUnits="userSpaceOnUse">
<stop stop-color="#5B39F4"/>
<stop offset="0.489583" stop-color="#BD8FE1"/>
<stop offset="1" stop-color="#FFBD31"/>
</linearGradient>
<linearGradient id="paint1_linear_155_3555" x1="664.363" y1="20.5973" x2="664.363" y2="99.1216" gradientUnits="userSpaceOnUse">
<stop stop-color="#5B39F4"/>
<stop offset="0.489583" stop-color="#BD8FE1"/>
<stop offset="1" stop-color="#FFBD31"/>
</linearGradient>
</defs>
</svg>
