<svg width="405" height="149" viewBox="0 0 405 149" fill="none" xmlns="http://www.w3.org/2000/svg">
<path d="M401.804 74.4973L362.847 2.28492C362.149 0.990818 360.797 0.184082 359.327 0.184082H217.904C215.485 0.184082 213.62 2.31383 213.939 4.71131L219.955 49.9586C220.274 52.356 218.409 54.4858 215.99 54.4858H35.8831C34.1741 54.4858 32.6539 55.5716 32.0994 57.1881L2.42795 143.702C1.53751 146.298 3.46683 148.999 6.21161 148.999H336.541C339.285 148.999 341.215 146.298 340.324 143.702L320.435 85.6939C319.544 83.0976 321.474 80.3965 324.218 80.3965H398.283C401.312 80.3965 403.242 77.1623 401.804 74.4973Z" fill="#5B39F4"/>
<path d="M289.601 17.0924C290.025 17.0924 290.461 17.0924 290.873 17.0924C291.733 18.8488 292.593 20.6415 293.477 22.3979C293.913 20.6173 294.349 18.8488 294.761 17.0803C295.197 17.1046 295.621 17.0803 296.057 17.0924C295.537 19.2122 295.028 21.332 294.483 23.476C295.67 25.729 296.893 27.9699 298.117 30.235C299.183 25.8259 300.212 21.4047 301.23 17.0077C301.714 16.9713 302.211 16.9834 302.683 16.9834C301.508 21.9618 300.273 26.9403 299.001 31.955C298.613 31.9671 298.165 31.9308 297.741 31.955C296.384 29.4719 295.052 27.0129 293.756 24.554C293.09 27.0008 292.375 29.4719 291.685 31.9308C291.261 31.955 290.861 31.955 290.437 31.955C287.881 26.9403 285.374 21.974 282.951 16.9955C283.448 16.9713 283.932 16.9955 284.429 16.9834C286.512 21.4168 288.668 25.8138 290.897 30.235C291.539 27.982 292.169 25.7047 292.775 23.4639C291.709 21.3441 290.655 19.2122 289.601 17.0924ZM311.114 32.1488C310.363 32.1488 309.636 32.0277 308.933 31.7249C308.243 31.3978 307.589 30.986 307.02 30.453C306.45 29.9443 305.99 29.3265 305.59 28.624C305.227 27.9578 304.985 27.2189 304.851 26.4073C304.682 25.3777 304.742 24.4571 305.045 23.5971C305.348 22.725 305.833 22.0709 306.523 21.5258C307.213 21.0413 308.025 20.799 309.006 20.7748C310.011 20.7748 310.944 21.017 311.78 21.55C312.628 22.0951 313.367 22.7734 313.972 23.6455C314.566 24.4571 314.966 25.4019 315.172 26.4194C315.196 26.5042 315.232 26.6374 315.232 26.7465C315.269 26.8313 315.269 26.9282 315.256 26.9645C312.313 26.9524 309.333 26.9524 306.365 26.9645C306.571 27.7276 306.911 28.4665 307.359 29.0721C307.819 29.6778 308.364 30.1623 308.994 30.5257C309.636 30.8891 310.302 31.0587 310.968 31.0466C311.671 31.0587 312.277 30.8891 312.81 30.5136C313.367 30.1502 313.694 29.6778 313.827 29.06C314.239 29.2054 314.663 29.3023 315.075 29.4113C314.966 29.9322 314.736 30.4167 314.372 30.8043C314.021 31.2404 313.548 31.5674 312.991 31.7976C312.434 32.0277 311.804 32.1609 311.114 32.1488ZM306.147 25.9349C308.703 25.9228 311.259 25.9107 313.803 25.9349C313.597 25.1597 313.258 24.4208 312.785 23.8272C312.337 23.2095 311.78 22.7492 311.15 22.4464C310.532 22.0951 309.89 21.9013 309.236 21.8771C308.558 21.8892 307.989 22.0709 307.492 22.4221C307.02 22.7613 306.632 23.2216 306.39 23.8515C306.135 24.4571 306.063 25.1718 306.147 25.9349ZM324.063 32.1488C323.312 32.1488 322.573 32.0156 321.858 31.7128C321.131 31.4099 320.489 30.9739 319.884 30.4772C319.302 29.9443 318.805 29.3144 318.406 28.6361C317.994 27.9578 317.727 27.2189 317.558 26.4315C317.34 25.4019 317.364 24.4571 317.606 23.6213C317.885 22.725 318.333 22.0709 319.011 21.5621C319.678 21.0413 320.489 20.7627 321.47 20.7748C322.464 20.7748 323.408 21.0413 324.256 21.5258C325.128 22.0588 325.904 22.7492 326.534 23.6213C327.176 24.4571 327.624 25.414 327.866 26.3952C327.89 26.5163 327.914 26.6374 327.939 26.7343C327.975 26.8434 327.987 26.8918 327.987 26.9645C325.032 26.9645 322.064 26.9524 319.084 26.9645C319.314 27.7397 319.678 28.4544 320.15 29.0843C320.659 29.6899 321.216 30.1502 321.858 30.5136C322.536 30.9012 323.202 31.0708 323.881 31.0587C324.559 31.0708 325.165 30.8527 325.686 30.4772C326.219 30.1502 326.534 29.6778 326.63 29.0721C327.067 29.1933 327.49 29.3023 327.902 29.4234C327.818 29.9322 327.599 30.4046 327.248 30.8285C326.921 31.2525 326.449 31.5795 325.916 31.8339C325.371 32.064 324.765 32.1609 324.063 32.1488ZM318.818 25.9107C321.386 25.9349 323.929 25.9349 326.485 25.9349C326.219 25.1476 325.855 24.445 325.359 23.8151C324.886 23.2095 324.317 22.7613 323.675 22.4221C323.033 22.083 322.391 21.8771 321.725 21.9013C321.071 21.8892 320.489 22.083 320.029 22.4221C319.532 22.7734 319.181 23.2216 318.987 23.8394C318.769 24.4329 318.709 25.1597 318.818 25.9107ZM339.93 31.955C338.101 30.0775 336.297 28.1879 334.504 26.3225C333.959 27.0372 333.414 27.7761 332.857 28.5271C333.171 29.6657 333.474 30.7922 333.765 31.9308C333.317 31.9429 332.857 31.955 332.384 31.9429C331.076 26.8191 329.768 21.6954 328.496 16.5474C328.92 16.5595 329.368 16.5716 329.804 16.5474C330.676 20.0359 331.573 23.5123 332.445 26.9524C333.886 24.9659 335.291 22.9672 336.684 20.9686C337.181 20.9807 337.677 20.9686 338.138 20.9807C337.193 22.4706 336.188 23.9847 335.194 25.4867C337.254 27.6428 339.349 29.7747 341.445 31.955C340.936 31.9429 340.451 31.9308 339.93 31.955ZM349.742 31.9308C349.584 31.4705 349.475 30.986 349.403 30.5136C349.318 30.0048 349.318 29.5324 349.391 29.0479C349.488 28.5755 349.669 28.1031 349.948 27.6792C350.275 27.2431 350.711 26.8313 351.28 26.4194C351.619 26.2377 351.959 25.9955 352.298 25.8138C352.637 25.5715 352.94 25.4019 353.218 25.1597C353.509 24.9053 353.691 24.6146 353.812 24.3118C353.933 23.9726 353.909 23.5971 353.751 23.161C353.654 22.8098 353.424 22.4464 353.109 22.1193C352.843 21.7923 352.455 21.5258 351.995 21.3077C351.535 21.0776 351.038 20.9807 350.457 20.9686C350.045 20.9807 349.681 21.0655 349.379 21.1866C349.088 21.3199 348.833 21.4652 348.64 21.659C348.434 21.8286 348.264 22.0588 348.143 22.2283C348.034 22.3979 347.925 22.5796 347.84 22.7129C347.465 22.3495 347.077 22.0224 346.689 21.7075C346.726 21.6348 346.835 21.4652 346.992 21.2714C347.15 21.0534 347.368 20.8232 347.646 20.5689C347.937 20.3387 348.288 20.1207 348.737 19.939C349.161 19.7815 349.681 19.6967 350.263 19.6846C351.062 19.6967 351.777 19.8421 352.455 20.1812C353.109 20.4598 353.667 20.8353 354.139 21.3562C354.611 21.9013 354.951 22.4343 355.144 23.0157C355.35 23.5971 355.399 24.0937 355.302 24.5177C355.217 24.9174 355.047 25.2566 354.793 25.5836C354.527 25.8743 354.224 26.1287 353.909 26.3467C353.594 26.5648 353.303 26.7465 353.037 26.9282C352.516 27.2189 352.08 27.4975 351.753 27.8366C351.426 28.1273 351.196 28.4786 351.05 28.7814C350.893 29.0721 350.784 29.3992 350.735 29.7262C350.687 30.017 350.711 30.3319 350.759 30.6347C353.158 30.6105 355.58 30.6105 357.991 30.6347C358.148 31.0587 358.294 31.519 358.427 31.955C355.544 31.955 352.637 31.955 349.742 31.9308Z" fill="#A18CFF"/>
<path d="M45.653 122.393C40.8227 122.401 35.9888 122.404 31.1513 122.404C31.0633 122.793 30.9754 123.177 30.8874 123.559C35.4171 123.559 39.9505 123.562 44.4876 123.57C42.3546 125.834 38.9683 129.276 36.2417 131.892C36.5715 132.068 36.905 132.252 37.2422 132.442C40.3536 129.375 44.2897 125.318 46.6205 122.778C46.3713 122.631 46.1258 122.485 45.8839 122.338C45.8033 122.353 45.7263 122.371 45.653 122.393ZM35.8349 118.226C35.7543 118.593 35.6737 118.959 35.593 119.326C38.2097 119.333 40.8337 119.337 43.4651 119.337C43.5384 118.963 43.6117 118.589 43.685 118.215C41.061 118.215 38.4443 118.219 35.8349 118.226ZM41.3541 110.398C38.4076 113.982 33.603 117.523 28.9854 119.557C29.2492 119.798 29.4801 120.172 29.59 120.469C33.625 118.6 37.8359 115.632 40.9144 112.388C42.7065 115.533 46.0488 118.765 48.8744 120.403C49.1382 120.073 49.567 119.645 49.9079 119.381C46.8844 117.863 43.4101 114.565 41.739 111.509C41.9149 111.3 42.0908 111.113 42.2667 110.882C41.9662 110.728 41.662 110.567 41.3541 110.398ZM58.6485 113.334C58.3333 115.313 58.0181 117.288 57.7029 119.26C56.4276 119.252 55.1522 119.249 53.8769 119.249C54.214 117.284 54.5475 115.313 54.8774 113.334C56.1381 113.334 57.3951 113.334 58.6485 113.334ZM52.6455 126.483C52.99 124.445 53.3381 122.397 53.69 120.337C54.9727 120.337 56.2517 120.337 57.527 120.337C57.1972 122.39 56.8674 124.442 56.5375 126.494C55.2475 126.487 53.9502 126.483 52.6455 126.483ZM57.4171 127.572C58.2234 122.47 59.026 117.369 59.8249 112.267C57.8972 112.267 55.9695 112.264 54.0418 112.256C53.0596 118.017 52.0738 123.771 51.0843 129.518C51.4288 129.51 51.7769 129.507 52.1287 129.507C52.2387 128.862 52.3486 128.217 52.4586 127.572C54.1078 127.579 55.7606 127.579 57.4171 127.572ZM70.7864 117.567C70.5738 119.238 70.3613 120.913 70.1487 122.591C68.5802 122.598 67.0079 122.598 65.4321 122.591C65.9268 121.041 66.2896 119.381 66.6305 117.556C68.0158 117.563 69.4011 117.567 70.7864 117.567ZM60.9573 122.591C61.2139 120.913 61.4667 119.238 61.7159 117.567C62.9986 117.567 64.2813 117.567 65.564 117.567C65.2122 119.381 64.8604 121.063 64.3656 122.591C63.2295 122.591 62.0934 122.591 60.9573 122.591ZM68.4116 113.598C67.7849 114.598 66.9493 115.72 66.1797 116.522C64.7138 116.522 63.2405 116.526 61.7599 116.533C62.6395 115.588 63.3871 114.587 64.0468 113.587C65.498 113.594 66.953 113.598 68.4116 113.598ZM66.8833 130.925C66.1577 130.925 66.0478 130.826 66.1247 130.232C66.4179 128.041 66.7148 125.842 67.0153 123.636C68.3713 123.636 69.7236 123.636 71.0722 123.636C71.3654 121.261 71.6623 118.89 71.9628 116.522C70.4236 116.529 68.8843 116.533 67.3451 116.533C68.2686 115.5 69.2582 114.18 69.9618 112.971C69.7566 112.802 69.5513 112.641 69.3461 112.487C69.2801 112.509 69.2142 112.531 69.1482 112.553C67.6749 112.553 66.2054 112.553 64.7394 112.553C65.1352 111.893 65.498 111.278 65.8279 110.662C65.4761 110.611 65.1242 110.556 64.7724 110.497C63.651 112.718 61.628 115.676 58.9783 117.896C59.2312 117.995 59.539 118.347 59.66 118.611C60.0228 118.292 60.3636 117.973 60.6825 117.666C60.3746 119.652 60.0704 121.638 59.7699 123.625C61.1772 123.632 62.5845 123.636 63.9918 123.636C62.5295 127.341 60.0118 130.034 54.6025 131.486C54.8224 131.717 55.0533 132.178 55.1302 132.431C60.9023 130.804 63.541 127.791 65.0693 123.625C65.3624 123.625 65.6556 123.628 65.9488 123.636C65.6483 125.834 65.3478 128.037 65.0473 130.243C64.8604 131.64 65.1902 132.013 66.6744 132.002C67.5687 132.01 68.4629 132.01 69.3571 132.002C70.7424 132.013 71.1492 131.233 71.644 128.077C71.3251 127.978 70.8963 127.813 70.6874 127.594C70.2916 130.518 70.1047 130.925 69.4011 130.925C68.5582 130.925 67.7189 130.925 66.8833 130.925ZM82.6934 125.659C84.9473 124.801 86.5855 122.954 86.8054 120.414C86.9373 118.919 86.4535 117.951 85.3871 117.94C84.6284 117.951 83.9358 118.435 83.8368 119.425C83.7489 120.414 84.2986 120.898 85.1122 120.909C85.2771 120.909 85.442 120.887 85.607 120.821C85.3321 122.734 84.2436 123.921 82.3746 124.801C82.4772 125.087 82.5835 125.373 82.6934 125.659ZM117.293 115.247C116.523 114.103 114.918 112.366 113.61 111.135C113.324 111.333 113.035 111.534 112.741 111.74C114.094 113.026 115.666 114.807 116.381 115.961C116.688 115.727 116.993 115.489 117.293 115.247ZM115.71 120.205C114.786 121.997 113.555 123.735 112.115 125.318C111.664 123.493 111.334 121.327 111.147 118.886C113.434 118.886 115.721 118.886 118.008 118.886C118.015 118.527 118.019 118.16 118.019 117.786C115.703 117.786 113.386 117.783 111.07 117.776C110.916 115.61 110.872 113.213 110.938 110.673C110.572 110.666 110.202 110.662 109.828 110.662C109.773 113.158 109.817 115.555 109.971 117.786C108.08 117.779 106.185 117.779 104.287 117.786C104.36 116.181 104.43 114.583 104.495 112.993C105.936 112.619 107.266 112.234 108.333 111.805C108.076 111.49 107.819 111.179 107.563 110.871C105.463 111.729 101.725 112.575 98.5365 113.158C98.6794 113.455 98.8113 113.828 98.8663 114.136C100.318 113.894 101.879 113.587 103.407 113.268C103.341 114.77 103.275 116.277 103.209 117.786C101.479 117.786 99.7495 117.783 98.0197 117.776C97.9977 118.157 97.9757 118.527 97.9538 118.886C99.6836 118.893 101.417 118.893 103.154 118.886C103.081 120.498 103.004 122.104 102.923 123.702C100.768 124.24 98.7893 124.68 97.2831 125.021C97.393 125.409 97.503 125.794 97.6129 126.175C99.0862 125.812 100.922 125.362 102.879 124.878C102.784 126.82 102.692 128.759 102.604 130.694C102.582 131.123 102.429 131.244 102.011 131.288C101.604 131.31 100.197 131.332 98.6134 131.244C98.7454 131.585 98.9323 132.134 98.9982 132.442C100.922 132.464 102.121 132.409 102.769 132.222C103.396 132.024 103.682 131.651 103.726 130.694C103.814 128.649 103.902 126.604 103.99 124.559C105.522 124.163 107.046 123.771 108.563 123.383C108.541 123.053 108.523 122.716 108.508 122.371C107.021 122.723 105.533 123.082 104.045 123.449C104.111 121.924 104.177 120.407 104.243 118.897C106.178 118.897 108.109 118.897 110.037 118.897C110.257 121.668 110.641 124.196 111.169 126.263C109.41 127.978 107.409 129.43 105.309 130.529C105.606 130.749 105.892 131.123 106.101 131.42C108.036 130.408 109.872 129.056 111.521 127.484C112.543 130.606 114.039 132.486 115.974 132.486C117.502 132.486 118.008 131.233 118.283 127.352C117.953 127.253 117.557 127 117.315 126.769C117.128 130.012 116.787 131.299 116.084 131.299C114.599 131.299 113.346 129.562 112.433 126.582C114.16 124.746 115.655 122.734 116.71 120.634C116.373 120.495 116.04 120.352 115.71 120.205ZM138.545 115.555C136.383 115.555 134.217 115.555 132.048 115.555C132.026 114.638 132 113.73 131.971 112.828C134.133 112.828 136.288 112.828 138.435 112.828C138.472 113.73 138.509 114.638 138.545 115.555ZM138.699 119.326C136.515 119.333 134.327 119.333 132.136 119.326C132.114 118.395 132.092 117.468 132.07 116.544C134.247 116.551 136.42 116.551 138.589 116.544C138.626 117.475 138.663 118.402 138.699 119.326ZM138.864 123.119C136.658 123.119 134.448 123.122 132.235 123.13C132.213 122.192 132.187 121.253 132.158 120.315C134.356 120.323 136.552 120.323 138.743 120.315C138.78 121.253 138.82 122.188 138.864 123.119ZM139.436 111.784C136.607 111.784 133.774 111.784 130.937 111.784C131.032 115.903 131.124 120.026 131.212 124.152C134.137 124.145 137.057 124.141 139.975 124.141C139.791 120.022 139.612 115.903 139.436 111.784ZM129.035 124.757C130.157 125.911 131.586 127.495 132.345 128.429C132.608 128.202 132.872 127.982 133.136 127.769C132.388 126.846 130.937 125.307 129.816 124.218C129.552 124.387 129.292 124.566 129.035 124.757ZM121.559 131.178C122.57 129.88 123.373 127.693 123.857 126.131C123.549 125.992 123.241 125.856 122.933 125.725C122.449 127.253 121.625 129.386 120.613 130.65C120.929 130.826 121.244 131.002 121.559 131.178ZM126.254 124.361C126.232 122.228 126.21 120.099 126.188 117.973C127.265 118.864 128.881 120.293 129.486 120.931C129.699 120.608 129.907 120.282 130.113 119.952C129.497 119.458 127.045 117.49 126.177 116.885C126.169 116.335 126.166 115.785 126.166 115.236C127.434 115.236 128.705 115.239 129.981 115.247C129.973 114.895 129.966 114.539 129.959 114.18C128.691 114.173 127.423 114.169 126.155 114.169C126.14 112.967 126.125 111.762 126.111 110.552C125.766 110.552 125.425 110.548 125.088 110.541C125.095 111.758 125.106 112.967 125.121 114.169C123.663 114.169 122.211 114.169 120.767 114.169C120.76 114.528 120.756 114.884 120.756 115.236C122.127 115.236 123.498 115.239 124.868 115.247C123.846 117.918 121.999 120.678 120.24 121.986C120.47 122.151 120.811 122.536 120.987 122.811C122.482 121.558 124.055 119.304 125.132 116.94C125.154 119.417 125.176 121.887 125.198 124.35C125.543 124.35 125.894 124.354 126.254 124.361ZM129.002 130.76C127.595 130.771 127.32 130.639 127.309 130.067C127.294 128.667 127.28 127.271 127.265 125.878C126.906 125.878 126.543 125.878 126.177 125.878C126.191 127.271 126.206 128.667 126.221 130.067C126.232 131.552 126.803 131.848 129.013 131.859C130.765 131.852 132.52 131.848 134.28 131.848C136.16 131.848 136.522 131.233 136.599 128.396C136.248 128.33 135.797 128.187 135.544 127.934C135.5 130.441 135.357 130.76 134.181 130.771C132.451 130.764 130.725 130.76 129.002 130.76ZM137.369 125.604C138.38 127.187 139.634 129.32 140.25 130.551C140.594 130.39 140.939 130.229 141.283 130.067C140.645 128.858 139.359 126.736 138.326 125.197C138.003 125.336 137.684 125.472 137.369 125.604ZM158.577 116.005C158.346 118.875 157.434 121.283 155.84 122.833C156.126 123.009 156.62 123.339 156.796 123.548C157.643 122.613 158.291 121.481 158.797 120.161C160.413 121.459 162.184 123.02 163.173 124.075C163.408 123.797 163.649 123.518 163.899 123.24C162.821 122.217 160.798 120.458 159.116 119.183C159.369 118.259 159.556 117.248 159.666 116.192C159.307 116.126 158.944 116.064 158.577 116.005ZM147.88 116.005C147.374 119.238 146.077 121.898 144.043 123.614C144.307 123.789 144.79 124.141 144.988 124.35C146.154 123.295 147.11 121.92 147.825 120.249C148.825 121.162 149.914 122.261 150.518 122.987C150.753 122.723 150.991 122.463 151.233 122.206C150.584 121.448 149.309 120.216 148.221 119.238C148.539 118.281 148.803 117.303 148.957 116.214C148.591 116.141 148.232 116.071 147.88 116.005ZM153.784 115.203C156.862 115.203 159.944 115.199 163.03 115.192C162.986 114.811 162.946 114.433 162.909 114.059C159.838 114.059 156.767 114.059 153.696 114.059C153.601 112.872 153.509 111.688 153.421 110.508C153.062 110.501 152.699 110.501 152.332 110.508C152.42 111.688 152.508 112.872 152.596 114.059C149.606 114.052 146.615 114.052 143.625 114.059C143.647 114.433 143.669 114.811 143.691 115.192C146.689 115.192 149.686 115.195 152.684 115.203C152.838 117.226 152.992 119.245 153.146 121.261C151.255 124.999 147.44 128.561 143.79 130.199C144.065 130.441 144.438 130.87 144.636 131.123C147.814 129.562 151.167 126.527 153.289 123.174C153.524 126.238 153.754 129.301 153.982 132.365C154.37 132.365 154.755 132.365 155.136 132.365C154.894 129.316 154.652 126.267 154.41 123.218C157.005 126.659 160.809 129.738 164.404 131.277C164.558 130.969 164.866 130.507 165.141 130.243C160.985 128.66 156.642 125.065 154.257 121.173C154.095 119.172 153.938 117.182 153.784 115.203ZM172.54 117.732C172.815 116.709 173.057 115.082 173.255 113.763C172.991 113.645 172.724 113.532 172.452 113.422C172.397 114.609 172.123 116.401 171.936 117.468C172.134 117.548 172.335 117.636 172.54 117.732ZM167.78 113.686C168.296 114.895 168.78 116.489 168.945 117.523C169.18 117.457 169.422 117.391 169.671 117.325C169.484 116.324 168.978 114.73 168.461 113.521C168.234 113.579 168.007 113.634 167.78 113.686ZM167.12 112.41C168.036 112.418 168.956 112.421 169.88 112.421C170.129 114.473 170.374 116.533 170.616 118.6C169.678 118.6 168.744 118.6 167.813 118.6C167.578 116.54 167.347 114.477 167.12 112.41ZM174.497 118.611C173.493 118.604 172.485 118.6 171.474 118.6C171.225 116.54 170.975 114.477 170.726 112.41C171.723 112.41 172.713 112.41 173.695 112.41C173.959 114.477 174.226 116.544 174.497 118.611ZM176.828 124.889C175.333 124.889 173.83 124.889 172.32 124.889C172.225 124.119 172.13 123.346 172.035 122.569C173.442 122.576 174.853 122.58 176.267 122.58C176.224 122.228 176.18 121.887 176.136 121.558C174.721 121.558 173.314 121.554 171.914 121.547C171.833 120.887 171.752 120.22 171.672 119.546C172.969 119.553 174.27 119.557 175.575 119.557C175.216 116.859 174.86 114.162 174.508 111.465C171.708 111.465 168.905 111.465 166.098 111.465C166.391 114.155 166.688 116.848 166.988 119.546C168.212 119.553 169.436 119.557 170.66 119.557C170.741 120.216 170.822 120.883 170.902 121.558C169.576 121.558 168.242 121.554 166.9 121.547C166.937 121.891 166.977 122.232 167.021 122.569C168.355 122.569 169.689 122.569 171.023 122.569C171.111 123.346 171.203 124.119 171.298 124.889C169.839 124.889 168.381 124.889 166.922 124.889C166.959 125.233 166.995 125.574 167.032 125.911C170.345 125.911 173.658 125.911 176.971 125.911C176.92 125.567 176.872 125.226 176.828 124.889ZM168.209 132.145C168.857 130.991 169.088 129.034 169.187 127.495C168.894 127.407 168.597 127.311 168.296 127.209C168.231 128.715 167.934 130.628 167.285 131.738C167.593 131.878 167.901 132.013 168.209 132.145ZM170.308 127.539C170.748 128.88 171.056 130.606 171.155 131.728C171.448 131.698 171.741 131.662 172.035 131.618C171.925 130.496 171.551 128.77 171.111 127.44C170.84 127.462 170.572 127.495 170.308 127.539ZM172.716 127.55C173.376 128.77 173.992 130.353 174.266 131.398C174.523 131.332 174.787 131.258 175.058 131.178C174.816 130.166 174.146 128.561 173.453 127.363C173.211 127.429 172.965 127.491 172.716 127.55ZM175.102 127.506C175.905 128.66 176.718 130.243 177.07 131.277C177.341 131.159 177.612 131.046 177.884 130.936C177.521 129.913 176.663 128.374 175.861 127.22C175.611 127.308 175.359 127.403 175.102 127.506ZM186.437 130.045C184.158 130.045 181.878 130.042 179.599 130.034C179.284 127.726 178.965 125.417 178.642 123.108C180.885 123.108 183.128 123.104 185.371 123.097C185.73 125.413 186.086 127.729 186.437 130.045ZM186.426 117.061C186.368 116.687 186.309 116.313 186.25 115.939C184.543 115.939 182.839 115.943 181.138 115.95C180.881 114.14 180.621 112.341 180.357 110.552C180.006 110.545 179.654 110.545 179.302 110.552C179.852 114.371 180.401 118.19 180.951 122.008C179.786 122.016 178.624 122.019 177.466 122.019C177.935 125.472 178.4 128.931 178.862 132.398C179.214 132.398 179.566 132.395 179.918 132.387C179.866 131.977 179.811 131.559 179.753 131.134C182.032 131.134 184.315 131.13 186.602 131.123C186.661 131.519 186.72 131.907 186.778 132.288C187.145 132.288 187.508 132.292 187.867 132.299C187.332 128.862 186.793 125.435 186.25 122.019C184.843 122.019 183.44 122.019 182.04 122.019C181.79 120.363 181.545 118.706 181.303 117.05C183.011 117.05 184.719 117.054 186.426 117.061ZM195.266 117.743C195.486 116.709 195.64 115.082 195.761 113.774C195.482 113.649 195.207 113.535 194.936 113.433C194.947 114.62 194.771 116.401 194.65 117.468C194.855 117.548 195.061 117.64 195.266 117.743ZM190.285 113.697C190.868 114.895 191.44 116.5 191.66 117.512C191.894 117.453 192.133 117.391 192.374 117.325C192.133 116.335 191.539 114.73 190.956 113.532C190.729 113.583 190.505 113.638 190.285 113.697ZM189.549 112.41C190.465 112.41 191.385 112.414 192.308 112.421C192.668 114.473 193.03 116.533 193.397 118.6C192.459 118.6 191.524 118.6 190.593 118.6C190.241 116.54 189.893 114.477 189.549 112.41ZM197.267 118.6C196.27 118.6 195.266 118.604 194.254 118.611C193.888 116.537 193.522 114.47 193.155 112.41C194.152 112.41 195.141 112.41 196.124 112.41C196.505 114.47 196.886 116.533 197.267 118.6ZM199.972 124.9C198.469 124.893 196.963 124.893 195.453 124.9C195.314 124.116 195.178 123.342 195.046 122.58C196.453 122.573 197.864 122.573 199.279 122.58C199.213 122.236 199.147 121.891 199.081 121.547C197.674 121.554 196.266 121.558 194.859 121.558C194.742 120.891 194.621 120.224 194.496 119.557C195.801 119.557 197.102 119.557 198.399 119.557C197.894 116.852 197.388 114.158 196.882 111.476C194.082 111.476 191.282 111.472 188.482 111.465C188.922 114.155 189.369 116.848 189.824 119.546C191.048 119.553 192.272 119.557 193.496 119.557C193.613 120.224 193.73 120.891 193.848 121.558C192.521 121.55 191.191 121.547 189.857 121.547C189.908 121.884 189.963 122.228 190.022 122.58C191.363 122.573 192.697 122.573 194.024 122.58C194.163 123.342 194.302 124.116 194.441 124.9C192.983 124.9 191.524 124.896 190.066 124.889C190.117 125.226 190.172 125.567 190.23 125.911C193.543 125.911 196.853 125.911 200.159 125.911C200.1 125.574 200.038 125.237 199.972 124.9ZM191.759 132.145C192.33 130.991 192.451 129.034 192.473 127.495C192.173 127.399 191.872 127.308 191.572 127.22C191.583 128.704 191.385 130.617 190.813 131.738C191.128 131.87 191.444 132.006 191.759 132.145ZM193.606 127.528C194.112 128.891 194.518 130.595 194.672 131.728C194.965 131.698 195.259 131.662 195.552 131.618C195.376 130.507 194.903 128.77 194.397 127.44C194.126 127.469 193.862 127.498 193.606 127.528ZM196.003 127.561C196.728 128.759 197.443 130.364 197.773 131.409C198.029 131.328 198.289 131.251 198.553 131.178C198.245 130.166 197.498 128.561 196.739 127.363C196.497 127.429 196.252 127.495 196.003 127.561ZM198.388 127.506C199.268 128.671 200.158 130.243 200.565 131.277C200.829 131.167 201.097 131.057 201.368 130.947C200.939 129.913 200.005 128.385 199.136 127.209C198.887 127.311 198.638 127.41 198.388 127.506ZM209.878 130.034C207.598 130.042 205.315 130.042 203.028 130.034C202.581 127.733 202.134 125.42 201.687 123.097C203.922 123.097 206.161 123.1 208.404 123.108C208.895 125.417 209.387 127.726 209.878 130.034ZM209.119 117.061C209.038 116.687 208.958 116.317 208.877 115.95C207.169 115.95 205.465 115.947 203.765 115.939C203.398 114.144 203.035 112.348 202.676 110.552C202.324 110.552 201.973 110.548 201.621 110.541C202.383 114.367 203.149 118.193 203.919 122.019C202.761 122.012 201.599 122.008 200.433 122.008C201.1 125.468 201.764 128.931 202.423 132.398C202.775 132.398 203.131 132.398 203.49 132.398C203.409 131.98 203.329 131.555 203.248 131.123C205.527 131.123 207.811 131.126 210.098 131.134C210.178 131.522 210.259 131.911 210.339 132.299C210.706 132.292 211.069 132.292 211.428 132.299C210.695 128.869 209.962 125.439 209.229 122.008C207.822 122.008 206.414 122.012 205.007 122.019C204.67 120.356 204.333 118.703 203.996 117.061C205.696 117.054 207.404 117.054 209.119 117.061ZM230.613 113.301C230.525 112.971 230.437 112.645 230.349 112.322C227.916 112.322 225.486 112.322 223.06 112.322C223.247 111.762 223.445 111.201 223.555 110.618C223.181 110.537 222.811 110.461 222.444 110.387C222.158 111.849 221.367 113.29 220.366 114.246C220.685 114.422 221.202 114.774 221.444 114.95C221.873 114.499 222.246 113.905 222.587 113.312C225.263 113.304 227.938 113.301 230.613 113.301ZM228.986 116.489C228.491 115.698 227.37 114.477 226.413 113.565C226.171 113.711 225.93 113.85 225.688 113.982C226.622 114.895 227.711 116.159 228.238 116.973C228.495 116.819 228.744 116.658 228.986 116.489ZM220.201 113.213C220.121 112.883 220.04 112.549 219.96 112.212C217.9 112.212 215.84 112.216 213.781 112.223C213.869 111.718 213.957 111.223 214.012 110.695C213.667 110.607 213.315 110.519 212.956 110.431C212.703 112.608 212.022 114.752 210.988 116.203C211.263 116.324 211.791 116.676 212.011 116.83C212.659 115.884 213.187 114.609 213.561 113.202C215.774 113.202 217.988 113.205 220.201 113.213ZM217.695 116.335C217.387 115.621 216.727 114.477 216.111 113.653C215.833 113.748 215.558 113.839 215.287 113.927C215.903 114.796 216.551 115.961 216.837 116.698C217.123 116.573 217.409 116.452 217.695 116.335ZM219.091 126.978C218.552 129.155 216.694 130.738 214.451 131.76C214.748 131.925 215.188 132.343 215.408 132.552C216.892 131.826 218.233 130.804 219.179 129.496C220.509 130.089 222.027 130.969 222.961 131.607C223.13 131.335 223.298 131.057 223.467 130.771C222.576 130.188 220.96 129.309 219.619 128.704C219.883 128.253 220.07 127.747 220.19 127.187C219.831 127.121 219.465 127.051 219.091 126.978ZM218.244 120.205C220.92 120.205 223.595 120.205 226.27 120.205C226.182 119.89 226.098 119.571 226.018 119.249C223.35 119.249 220.682 119.252 218.014 119.26C218.087 119.568 218.164 119.883 218.244 120.205ZM224.775 122.503C226.454 122.503 228.128 122.503 229.8 122.503C230.078 123.537 230.357 124.577 230.635 125.626C228.949 125.618 227.26 125.618 225.567 125.626C225.303 124.585 225.039 123.544 224.775 122.503ZM224.797 126.538C227.172 126.538 229.543 126.538 231.911 126.538C231.463 124.889 231.016 123.232 230.569 121.569C228.231 121.569 225.889 121.572 223.544 121.58C223.969 123.236 224.387 124.889 224.797 126.538ZM216.463 122.503C218.098 122.503 219.732 122.503 221.367 122.503C221.623 123.537 221.88 124.577 222.136 125.626C220.495 125.626 218.845 125.622 217.189 125.615C216.947 124.581 216.705 123.544 216.463 122.503ZM216.408 126.538C218.739 126.538 221.066 126.534 223.39 126.527C222.979 124.885 222.565 123.236 222.147 121.58C219.853 121.58 217.559 121.576 215.265 121.569C215.646 123.232 216.027 124.889 216.408 126.538ZM227.854 126.956C227.667 129.254 226.007 130.804 223.797 131.771C224.104 131.936 224.577 132.332 224.764 132.53C226.237 131.815 227.513 130.793 228.26 129.441C230.558 130.243 233.241 131.453 234.791 132.321C234.974 132.043 235.158 131.76 235.341 131.475C233.758 130.617 230.943 129.386 228.634 128.616C228.821 128.165 228.931 127.649 228.986 127.143C228.612 127.084 228.235 127.022 227.854 126.956ZM221.169 114.895C219.421 117.215 215.54 119.062 211.934 120.007C212.219 120.271 212.582 120.7 212.813 120.975C215.925 120.051 219.102 118.501 221.18 116.555C224.028 118.237 228.7 119.963 232.065 120.755C232.163 120.436 232.35 119.952 232.537 119.711C229.107 119.073 224.335 117.49 221.708 115.983C221.884 115.796 222.038 115.61 222.191 115.412C221.854 115.243 221.513 115.071 221.169 114.895Z" fill="white"/>
</svg>
