<svg width="334" height="122" viewBox="0 0 334 122" fill="none" xmlns="http://www.w3.org/2000/svg">
<path d="M207.952 -0.000732422H45.2479C43.5412 -0.000732422 42.0225 1.08215 41.4663 2.69567L2.31558 116.267C1.42018 118.865 3.34975 121.571 6.09719 121.571H327.578C330.303 121.571 332.231 118.905 331.376 116.317L307.589 44.2758C307.048 42.6369 305.517 41.5299 303.791 41.5299H219.657C217.616 41.5299 215.902 39.9929 215.681 37.9637L211.928 3.56548C211.707 1.53627 209.993 -0.000732422 207.952 -0.000732422Z" fill="#5B39F4"/>
<path d="M58.3305 13.4979C58.6771 13.4979 59.0205 13.4979 59.3605 13.4979C59.4938 14.9579 59.6305 16.4179 59.7705 17.8779C60.6838 16.4179 61.5938 14.9579 62.5005 13.4979C62.8471 13.4979 63.1938 13.4979 63.5405 13.4979C62.4471 15.2512 61.3438 17.0079 60.2305 18.7679C60.4838 20.6279 60.7438 22.4879 61.0105 24.3479C63.2905 20.7012 65.5371 17.0545 67.7505 13.4079C68.1505 13.4079 68.5471 13.4079 68.9405 13.4079C66.4005 17.5212 63.8138 21.6345 61.1805 25.7479C60.8471 25.7479 60.5071 25.7479 60.1605 25.7479C59.8671 23.7145 59.5871 21.6812 59.3205 19.6479C57.9605 21.6812 56.5938 23.7145 55.2205 25.7479C54.8871 25.7479 54.5538 25.7479 54.2205 25.7479C53.7671 21.6345 53.3538 17.5212 52.9805 13.4079C53.3671 13.4079 53.7605 13.4079 54.1605 13.4079C54.4605 17.0545 54.7871 20.7012 55.1405 24.3479C56.3938 22.4879 57.6338 20.6279 58.8605 18.7679C58.6805 17.0079 58.5038 15.2512 58.3305 13.4979ZM70.9705 25.9279C70.3505 25.9279 69.8005 25.8079 69.3205 25.5579C68.8605 25.3079 68.4705 24.9679 68.1805 24.5379C67.8905 24.0979 67.7105 23.5879 67.6105 23.0279C67.5305 22.4579 67.5605 21.8479 67.7105 21.1979C67.9005 20.3479 68.2405 19.5779 68.7605 18.8679C69.2805 18.1579 69.8905 17.5979 70.6005 17.1779C71.3205 16.7479 72.0705 16.5379 72.8605 16.5379C73.6805 16.5379 74.3405 16.7479 74.8605 17.1779C75.4005 17.6079 75.7605 18.1779 75.9905 18.8879C76.2105 19.5779 76.2405 20.3479 76.0905 21.1779C76.0805 21.2679 76.0605 21.3679 76.0405 21.4579C76.0305 21.5379 76.0005 21.6079 75.9905 21.6479C73.5771 21.6479 71.1671 21.6479 68.7605 21.6479C68.6805 22.2979 68.7205 22.8779 68.8905 23.3879C69.0705 23.8879 69.3705 24.2879 69.7705 24.5879C70.1705 24.8779 70.6505 25.0179 71.2005 25.0179C71.7605 25.0179 72.3205 24.8679 72.8705 24.5679C73.4405 24.2679 73.8605 23.8779 74.1505 23.3879C74.4571 23.4812 74.7605 23.5745 75.0605 23.6679C74.8105 24.0979 74.4605 24.4879 74.0405 24.8279C73.6105 25.1779 73.1205 25.4479 72.5905 25.6479C72.0705 25.8379 71.5305 25.9279 70.9705 25.9279ZM68.9105 20.7979C70.9838 20.7979 73.0571 20.7979 75.1305 20.7979C75.2105 20.1379 75.1505 19.5579 74.9605 19.0579C74.7805 18.5579 74.4905 18.1679 74.0905 17.8979C73.6905 17.6079 73.2305 17.4579 72.6905 17.4579C72.1505 17.4579 71.6305 17.6079 71.1205 17.8979C70.6205 18.1679 70.1705 18.5679 69.7605 19.0779C69.3805 19.5779 69.1005 20.1479 68.9105 20.7979ZM81.4905 25.9279C80.8905 25.9279 80.3205 25.8079 79.8405 25.5579C79.3505 25.3079 78.9505 24.9679 78.6405 24.5379C78.3405 24.0979 78.1205 23.5879 78.0005 23.0279C77.9005 22.4579 77.9005 21.8479 78.0105 21.1979C78.1605 20.3479 78.4705 19.5779 78.9505 18.8679C79.4305 18.1579 80.0205 17.5979 80.7205 17.1779C81.4105 16.7479 82.1505 16.5379 82.9405 16.5379C83.7505 16.5379 84.4305 16.7479 84.9705 17.1779C85.5205 17.6079 85.9205 18.1779 86.1805 18.8879C86.4305 19.5779 86.5005 20.3479 86.3905 21.1779C86.3805 21.2679 86.3605 21.3679 86.3505 21.4579C86.3405 21.5379 86.3305 21.6079 86.3205 21.6479C83.9071 21.6479 81.4938 21.6479 79.0805 21.6479C79.0305 22.2979 79.1005 22.8779 79.2905 23.3879C79.5005 23.8879 79.8105 24.2879 80.2305 24.5879C80.6505 24.8779 81.1405 25.0179 81.6905 25.0179C82.2505 25.0179 82.7905 24.8679 83.3405 24.5679C83.8805 24.2679 84.2905 23.8779 84.5605 23.3879C84.8671 23.4812 85.1738 23.5745 85.4805 23.6679C85.2505 24.0979 84.9205 24.4879 84.5105 24.8279C84.1005 25.1779 83.6405 25.4479 83.1105 25.6479C82.6005 25.8379 82.0605 25.9279 81.4905 25.9279ZM79.2005 20.7979C81.2671 20.7979 83.3371 20.7979 85.4105 20.7979C85.4605 20.1379 85.3705 19.5579 85.1605 19.0579C84.9505 18.5579 84.6405 18.1679 84.2205 17.8979C83.8205 17.6079 83.3605 17.4579 82.8105 17.4579C82.2705 17.4579 81.7505 17.6079 81.2705 17.8979C80.7705 18.1679 80.3405 18.5679 79.9705 19.0779C79.6105 19.5779 79.3505 20.1479 79.2005 20.7979ZM94.4705 25.7479C93.5771 24.2012 92.6871 22.6545 91.8005 21.1079C91.1338 21.7145 90.4638 22.3179 89.7905 22.9179C89.6771 23.8645 89.5671 24.8079 89.4605 25.7479C89.0805 25.7479 88.7038 25.7479 88.3305 25.7479C88.8571 21.5212 89.3838 17.2912 89.9105 13.0579C90.2638 13.0579 90.6171 13.0579 90.9705 13.0579C90.6238 15.9245 90.2805 18.7879 89.9405 21.6479C91.7071 20.0012 93.4605 18.3545 95.2005 16.7079C95.5938 16.7079 95.9871 16.7079 96.3805 16.7079C95.1405 17.9479 93.8871 19.1845 92.6205 20.4179C93.6338 22.1979 94.6605 23.9745 95.7005 25.7479C95.2938 25.7479 94.8838 25.7479 94.4705 25.7479ZM107.53 21.6479C108.02 21.7279 108.42 21.9179 108.76 22.2079C109.09 22.4979 109.35 22.8579 109.54 23.2979C109.72 23.7379 109.81 24.2379 109.8 24.7979C109.78 25.4879 109.6 26.1079 109.26 26.6379C108.93 27.1679 108.46 27.5879 107.87 27.8779C107.28 28.1679 106.61 28.3079 105.84 28.3079C104.99 28.3079 104.26 28.1279 103.65 27.7679C103.04 27.4179 102.59 26.9379 102.31 26.3079C102.584 26.0612 102.857 25.8112 103.13 25.5579C103.34 26.0579 103.68 26.4579 104.14 26.7579C104.6 27.0779 105.18 27.2279 105.89 27.2279C106.71 27.2279 107.37 27.0179 107.85 26.5879C108.35 26.1679 108.62 25.5679 108.65 24.7779C108.67 23.9879 108.44 23.3679 107.96 22.8979C107.49 22.4279 106.8 22.1879 105.89 22.1879C105.75 22.1879 105.614 22.1879 105.48 22.1879C105.494 21.8545 105.507 21.5179 105.52 21.1779C105.674 21.1779 105.82 21.1779 105.96 21.1779C106.79 21.1779 107.44 20.9679 107.89 20.5579C108.35 20.1379 108.59 19.6079 108.61 18.9579C108.62 18.4779 108.54 18.0879 108.34 17.7679C108.14 17.4579 107.88 17.2179 107.54 17.0579C107.21 16.8979 106.82 16.8179 106.37 16.8179C105.77 16.8179 105.23 16.9679 104.75 17.2679C104.28 17.5579 103.91 17.9679 103.65 18.4879C103.43 18.2412 103.21 17.9979 102.99 17.7579C103.19 17.3479 103.47 16.9979 103.83 16.6979C104.19 16.3979 104.59 16.1579 105.05 15.9979C105.52 15.8279 106 15.7379 106.52 15.7379C107.17 15.7379 107.74 15.8679 108.22 16.1379C108.71 16.3979 109.09 16.7479 109.36 17.2179C109.63 17.6779 109.76 18.2279 109.74 18.8479C109.73 19.3179 109.64 19.7479 109.45 20.1379C109.27 20.5279 109.01 20.8579 108.68 21.1279C108.36 21.3979 107.98 21.5679 107.53 21.6479Z" fill="#A18CFF"/>
<path d="M155.448 82.9897C155.249 82.6297 155.007 82.3397 154.724 82.0797C154.43 81.7997 154.104 81.5797 153.737 81.4097C153.38 81.2097 152.97 81.0897 152.519 80.9897C152.046 80.9097 151.553 80.8397 150.997 80.8397C149.201 80.8497 147.763 81.2197 146.702 81.9697C145.663 82.6797 144.938 83.6597 144.539 84.8897C144.266 85.7297 144.235 86.3897 144.445 86.8897C144.676 87.3697 145.159 87.7597 145.873 88.0597C146.608 88.3397 147.584 88.6297 148.781 88.9097C150.073 89.2197 151.154 89.5597 152.046 89.9497C152.928 90.3597 153.548 90.8797 153.894 91.5697C154.262 92.2497 154.293 93.1697 153.957 94.3497C153.716 95.1997 153.327 95.9697 152.813 96.6297C152.298 97.2697 151.669 97.8197 150.923 98.2297C150.178 98.6497 149.327 98.9897 148.393 99.2097C147.469 99.4397 146.492 99.5397 145.411 99.5497C144.403 99.5397 143.468 99.4397 142.597 99.2097C141.736 98.9897 140.98 98.6497 140.297 98.2397C139.636 97.8197 139.069 97.2697 138.586 96.6097C138.953 96.2397 139.321 95.8597 139.699 95.4697C139.951 95.9197 140.276 96.3197 140.665 96.6697C141.064 96.9797 141.515 97.2897 142.019 97.5297C142.565 97.7597 143.143 97.9597 143.783 98.0997C144.413 98.2397 145.117 98.2897 145.852 98.2997C147.584 98.2897 149.002 97.9897 150.146 97.3497C151.312 96.6997 152.067 95.7597 152.424 94.4997C152.676 93.6297 152.666 92.9297 152.393 92.3997C152.099 91.8597 151.564 91.4397 150.766 91.0897C149.968 90.7397 148.949 90.4197 147.7 90.1297C146.429 89.8197 145.4 89.4997 144.571 89.1297C143.762 88.7597 143.216 88.2597 142.954 87.6297C142.702 87.0197 142.754 86.1497 143.101 85.0897C143.489 83.9197 144.077 82.9097 144.875 82.0897C145.715 81.2597 146.681 80.6397 147.805 80.2097C148.907 79.7897 150.094 79.5897 151.375 79.5797C152.162 79.5697 152.865 79.6697 153.495 79.8397C154.136 79.9997 154.682 80.2497 155.154 80.5997C155.658 80.9397 156.078 81.3697 156.435 81.8797C156.11 82.2397 155.774 82.6097 155.448 82.9897ZM161.811 99.6397C160.814 99.6597 159.932 99.4697 159.144 99.0797C158.367 98.6697 157.748 98.1197 157.286 97.4397C156.824 96.7297 156.53 95.9297 156.414 95.0297C156.309 94.1197 156.393 93.1497 156.666 92.1197C157.055 90.7297 157.685 89.4897 158.577 88.3897C159.449 87.2697 160.499 86.3897 161.685 85.7197C162.872 85.0697 164.121 84.7297 165.423 84.7197C166.662 84.7297 167.68 85.0397 168.499 85.6397C169.308 86.2397 169.843 87.0397 170.095 88.0897C169.623 88.2297 169.15 88.3697 168.688 88.5197C168.457 87.7297 168.016 87.0997 167.365 86.6597C166.725 86.2197 165.959 85.9697 165.056 85.9797C164.058 85.9897 163.082 86.2297 162.137 86.7797C161.181 87.3197 160.341 88.0397 159.596 88.9897C158.861 89.9197 158.346 90.9497 158.031 92.1197C157.727 93.2697 157.695 94.3097 157.958 95.2897C158.22 96.2397 158.703 96.9997 159.407 97.5597C160.142 98.1297 161.024 98.4197 162.063 98.4197C162.725 98.4097 163.397 98.2897 164.09 98.0497C164.793 97.7897 165.434 97.4597 165.98 97.0497C166.557 96.6397 166.967 96.2097 167.208 95.7597C167.638 95.8797 168.058 96.0197 168.478 96.1297C168.09 96.8297 167.544 97.4297 166.83 97.9497C166.116 98.4897 165.339 98.8997 164.457 99.2097C163.617 99.4997 162.735 99.6497 161.811 99.6397ZM180.165 86.2297C178.915 86.2497 177.771 86.6397 176.689 87.3797C175.618 88.1197 174.768 89.1097 174.138 90.3897C173.529 93.3797 172.92 96.3897 172.321 99.3797C171.838 99.3697 171.376 99.3697 170.914 99.3797C171.901 94.5697 172.909 89.7797 173.907 84.9897C174.327 84.9797 174.747 84.9797 175.167 84.9897C174.936 86.1597 174.705 87.3397 174.463 88.5097C175.146 87.5197 175.944 86.6897 176.857 86.0497C177.771 85.4197 178.674 85.0397 179.577 84.9497C179.755 84.9297 179.913 84.9197 180.049 84.9197C180.207 84.9097 180.312 84.9297 180.396 84.9097C180.312 85.3497 180.228 85.7897 180.165 86.2297ZM181.32 93.2697C181.803 90.5097 182.286 87.7397 182.758 84.9897C183.188 84.9897 183.629 84.9797 184.07 84.9897C183.619 87.6797 183.167 90.3897 182.716 93.0997C182.412 94.8797 182.485 96.2197 182.936 97.0997C183.409 97.9697 184.249 98.4097 185.467 98.4097C186.286 98.4097 187.084 98.2297 187.871 97.8697C188.68 97.4997 189.425 96.9897 190.087 96.3497C190.738 95.6897 191.252 94.9297 191.641 94.0597C192.04 91.0297 192.439 88.0097 192.838 84.9897C193.279 84.9897 193.72 84.9797 194.171 84.9797C193.636 89.1697 193.111 93.3497 192.575 97.5497C192.544 97.7697 192.565 97.9197 192.638 98.0397C192.743 98.1497 192.88 98.2197 193.069 98.2397C193.016 98.6297 192.964 98.9897 192.932 99.3797C192.733 99.3897 192.575 99.3997 192.481 99.3997C192.386 99.4097 192.302 99.3997 192.229 99.3797C191.924 99.3497 191.672 99.2197 191.504 98.9897C191.336 98.7497 191.252 98.4497 191.273 98.1397C191.357 97.4097 191.452 96.6997 191.536 95.9797C190.748 97.1197 189.761 98.0097 188.575 98.6697C187.388 99.3297 186.149 99.6597 184.858 99.6497C183.335 99.6497 182.275 99.1297 181.666 98.0497C181.078 96.9697 180.963 95.3897 181.32 93.2697ZM218.037 99.3797C217.575 99.3697 217.102 99.3797 216.651 99.3797C216.745 96.6897 216.84 94.0297 216.934 91.3597C216.997 89.5097 216.766 88.1697 216.252 87.2897C215.758 86.4397 214.95 85.9997 213.847 85.9997C212.724 85.9997 211.685 86.4297 210.75 87.2697C209.837 88.1197 209.144 89.1797 208.703 90.4797C208.493 93.4497 208.293 96.4197 208.094 99.3797C207.632 99.3697 207.17 99.3797 206.718 99.3797C206.907 96.6997 207.096 94.0197 207.296 91.3497C207.432 89.4897 207.254 88.1497 206.792 87.2997C206.319 86.4497 205.532 85.9897 204.419 85.9997C203.295 86.0097 202.256 86.4197 201.29 87.2597C200.334 88.0597 199.61 89.1397 199.095 90.4497C198.78 93.4397 198.465 96.4097 198.161 99.3697C197.699 99.3797 197.227 99.3797 196.765 99.3697C197.29 94.5797 197.804 89.7697 198.35 84.9797C198.759 84.9697 199.169 84.9897 199.589 84.9797C199.463 86.1297 199.347 87.2797 199.232 88.4097C199.925 87.2397 200.775 86.3297 201.752 85.6897C202.728 85.0597 203.757 84.7197 204.849 84.7197C205.983 84.7197 206.886 85.0897 207.558 85.8097C208.241 86.4997 208.629 87.4397 208.692 88.6197C209.438 87.3497 210.278 86.3697 211.212 85.7297C212.147 85.0497 213.176 84.7297 214.32 84.7297C215.065 84.7297 215.706 84.8797 216.199 85.1697C216.724 85.4497 217.134 85.8697 217.449 86.4197C217.785 86.9497 218.016 87.6197 218.131 88.4097C218.268 89.2097 218.32 90.0997 218.289 91.1097C218.194 93.8597 218.121 96.6197 218.037 99.3797ZM239.225 79.2897C237.787 79.3097 236.327 79.2997 234.878 79.2897C234.521 78.4197 233.849 77.1897 233.251 76.2297C232.873 76.3497 232.484 76.4597 232.096 76.5797C232.547 77.3897 233.114 78.4497 233.503 79.2997C231.665 79.2997 229.838 79.2997 228.012 79.2997C228.012 79.7097 228.012 80.0997 228.012 80.4997C231.76 80.4897 235.519 80.4797 239.278 80.4797C239.257 80.0997 239.236 79.7097 239.225 79.2897ZM232.243 85.0497C232.096 83.9397 231.55 82.1697 230.951 80.8597C230.605 80.9397 230.258 81.0197 229.912 81.0997C230.479 82.4397 230.962 84.2597 231.119 85.3897C231.487 85.2897 231.865 85.1697 232.243 85.0497ZM230.552 93.2597C229.975 95.0997 229.04 96.9997 227.886 98.3597C228.19 98.4997 228.704 98.8797 228.893 99.0397C230.017 97.6597 231.067 95.5497 231.686 93.5397C231.308 93.4397 230.93 93.3497 230.552 93.2597ZM240.076 91.4597C240.055 91.0497 240.034 90.6597 240.013 90.2397C238.217 90.2397 236.432 90.2397 234.658 90.2297C234.626 89.1197 234.584 88.0097 234.553 86.8997C236.369 86.8897 238.196 86.8997 240.023 86.8997C239.992 86.4997 239.96 86.0897 239.95 85.6897C238.732 85.6897 237.503 85.6997 236.275 85.6997C236.768 84.3697 237.272 82.5997 237.682 81.1297C237.272 81.0297 236.873 80.9097 236.474 80.7997C236.17 82.1997 235.592 84.2897 235.088 85.6997C232.61 85.6997 230.143 85.6997 227.665 85.6897C227.665 86.0897 227.665 86.4997 227.676 86.8997C229.544 86.8997 231.413 86.8997 233.303 86.8997C233.324 88.0097 233.366 89.1297 233.408 90.2497C231.529 90.2397 229.66 90.2497 227.812 90.2297C227.802 90.6597 227.812 91.0697 227.812 91.4597C229.681 91.4697 231.55 91.4597 233.429 91.4597C233.524 94.7597 233.618 98.0497 233.713 101.34C234.154 101.33 234.584 101.35 235.036 101.35C234.92 98.0597 234.815 94.7597 234.71 91.4597C236.495 91.4597 238.28 91.4697 240.076 91.4597ZM236.432 93.6197C237.367 95.0797 238.448 97.0397 238.952 98.3197C239.267 98.1497 239.603 97.9697 239.95 97.7697C239.446 96.5097 238.375 94.6497 237.377 93.1797C237.052 93.3097 236.737 93.4597 236.432 93.6197ZM251.447 85.7597C248.528 85.7497 245.619 85.7597 242.701 85.7597C242.575 83.7897 242.438 81.8397 242.323 79.8797C245.126 79.4697 248.213 78.7397 250.25 77.9597C249.851 77.6197 249.473 77.2897 249.084 76.9497C247.331 77.7197 243.981 78.4897 241.105 78.9897C241.283 82.1297 241.472 85.2397 241.672 88.3597C241.903 92.0997 241.945 96.9397 239.614 100.39C239.929 100.55 240.454 100.96 240.653 101.22C243.121 97.5697 243.131 92.2597 242.869 88.3697C242.837 87.9097 242.806 87.4497 242.785 86.9997C244.233 86.9997 245.682 87.0097 247.131 86.9997C247.541 91.7597 247.929 96.4997 248.318 101.26C248.759 101.27 249.189 101.27 249.641 101.25C249.231 96.4997 248.801 91.7597 248.381 86.9897C249.441 86.9997 250.502 87.0097 251.573 87.0097C251.531 86.5897 251.489 86.1797 251.447 85.7597ZM278.735 90.6897C274.934 90.6897 271.165 90.6897 267.385 90.6897C267.102 88.9497 266.818 87.1897 266.545 85.4597C269.769 85.4497 272.992 85.4597 276.226 85.4597C276.131 85.0297 276.047 84.5897 275.974 84.1797C272.761 84.1697 269.548 84.1897 266.335 84.1897C266.073 82.5097 265.81 80.8497 265.558 79.1797C268.614 78.7497 271.449 78.1597 273.423 77.4897C273.024 77.1197 272.635 76.7497 272.257 76.3897C268.792 77.7797 261.211 78.4897 255.195 78.8697C255.363 79.1697 255.563 79.6697 255.657 80.0197C258.408 79.8797 261.411 79.6397 264.309 79.3297C264.55 80.9497 264.802 82.5697 265.054 84.1897C261.946 84.1897 258.828 84.1797 255.731 84.1797C255.773 84.5997 255.825 85.0197 255.878 85.4497C258.996 85.4597 262.114 85.4597 265.254 85.4597C265.516 87.1997 265.789 88.9497 266.062 90.6797C262.282 90.6897 258.513 90.6897 254.744 90.6897C254.786 91.1297 254.838 91.5597 254.901 91.9897C258.681 91.9897 262.471 91.9797 266.272 91.9697C266.65 94.3697 267.018 96.7697 267.385 99.1397C267.48 99.7197 267.28 99.9297 266.671 99.9697C266.052 99.9897 263.899 99.9797 261.411 99.9397C261.694 100.31 261.999 100.88 262.177 101.27C265.212 101.28 266.913 101.26 267.753 101C268.582 100.8 268.939 100.35 268.75 99.1397C268.362 96.7597 267.984 94.3697 267.606 91.9897C271.396 91.9797 275.197 91.9797 278.998 91.9797C278.903 91.5597 278.809 91.1197 278.735 90.6897ZM284.699 76.3197C284.3 76.3197 283.901 76.3197 283.502 76.3197C283.954 78.3297 284.416 80.3397 284.878 82.3497C283.229 82.3597 281.581 82.3597 279.932 82.3497C280.016 82.7997 280.111 83.2197 280.205 83.6397C281.791 83.6497 283.376 83.6497 284.951 83.6497C284.867 87.8097 283.691 92.4597 282.064 94.8597C282.4 95.1497 282.904 95.6597 283.135 96.0097C284.5 93.8797 285.466 90.0997 285.844 86.3997C287.041 91.3897 288.227 96.3597 289.403 101.34C289.844 101.34 290.274 101.34 290.726 101.35C289.676 96.9997 288.605 92.6497 287.545 88.2997C289.025 89.5997 291.167 91.5697 291.986 92.4297C292.185 92.0597 292.385 91.6797 292.574 91.2797C291.734 90.5197 288.343 87.6397 287.167 86.7197C286.915 85.6997 286.663 84.6697 286.411 83.6497C287.818 83.6397 289.225 83.6597 290.631 83.6597C290.516 83.2197 290.411 82.7797 290.306 82.3597C288.899 82.3497 287.503 82.3597 286.096 82.3397C285.623 80.3497 285.151 78.3297 284.699 76.3197ZM303.431 82.3497C302.444 82.3397 301.467 82.3497 300.491 82.3597C299.903 80.3597 299.325 78.3497 298.748 76.3397C298.338 76.3397 297.929 76.3497 297.53 76.3297C298.086 78.3397 298.653 80.3497 299.241 82.3497C296.511 82.3397 293.781 82.3497 291.062 82.3497C291.167 82.7797 291.272 83.2097 291.387 83.6297C294.117 83.6197 296.868 83.6297 299.619 83.6297C301.163 88.8697 302.717 94.0897 304.271 99.3197C304.418 99.8197 304.302 99.9697 303.809 99.9897C303.284 99.9997 301.53 100.01 299.535 99.9597C299.871 100.36 300.27 101.02 300.48 101.37C302.822 101.39 304.313 101.38 305.047 101.16C305.751 100.9 305.94 100.46 305.593 99.2697C304.019 94.0597 302.433 88.8297 300.869 83.6097C301.845 83.6197 302.832 83.6197 303.819 83.6297C303.683 83.2097 303.546 82.7797 303.431 82.3497ZM299.735 93.6897C298.622 91.9097 296.228 89.0497 294.128 86.9797C293.823 87.1597 293.508 87.3297 293.204 87.5097C295.283 89.6297 297.593 92.5097 298.716 94.3697C299.063 94.1497 299.388 93.9097 299.735 93.6897Z" fill="white"/>
</svg>
