<svg width="467" height="161" viewBox="0 0 467 161" fill="none" xmlns="http://www.w3.org/2000/svg">
<path d="M3.83772 80.6902L45.9432 2.64112C46.6414 1.34702 47.9932 0.540283 49.4636 0.540283H212.731C215.175 0.540283 217.048 2.71394 216.687 5.13178L209.35 54.2018C208.988 56.6196 210.861 58.7933 213.306 58.7933H427.555C429.242 58.7933 430.748 59.8526 431.319 61.441L464.868 154.832C465.804 157.438 463.873 160.184 461.104 160.184H78.8655C76.1209 160.184 74.1916 157.483 75.0818 154.887L96.6833 91.8868C97.5735 89.2905 95.6442 86.5894 92.8995 86.5894H7.35812C4.33003 86.5894 2.40001 83.3552 3.83772 80.6902Z" fill="#5B39F4"/>
<path d="M178.838 122.31C176.73 122.31 174.633 122.299 172.526 122.31C170.507 128.118 168.467 133.938 166.437 139.757C165.821 139.746 165.215 139.757 164.61 139.757C166.673 133.926 168.736 128.107 170.776 122.31C168.68 122.299 166.561 122.31 164.464 122.31C164.677 121.75 164.868 121.2 165.069 120.64C169.857 120.651 174.622 120.651 179.376 120.651C179.208 121.189 179.029 121.739 178.838 122.31ZM188.167 139.746C187.572 139.757 186.978 139.757 186.395 139.746C187.169 137.122 187.965 134.509 188.739 131.919C189.221 130.327 189.299 129.15 189.019 128.365C188.739 127.558 188.111 127.154 187.135 127.143C186.507 127.143 185.812 127.322 185.038 127.681C184.31 128.04 183.615 128.5 182.931 129.116C182.258 129.71 181.708 130.394 181.26 131.168C180.352 134.027 179.421 136.886 178.513 139.757C177.919 139.757 177.336 139.757 176.741 139.746C178.872 133.209 180.991 126.661 183.099 120.102C183.648 120.102 184.209 120.102 184.781 120.102C183.861 123.028 182.931 125.954 181.989 128.903C182.83 127.872 183.828 127.042 184.938 126.425C186.081 125.797 187.169 125.495 188.223 125.483C188.985 125.495 189.579 125.629 190.006 125.921C190.454 126.201 190.757 126.616 190.925 127.188C191.093 127.715 191.149 128.365 191.082 129.094C191.026 129.8 190.858 130.619 190.589 131.549C189.781 134.285 188.963 137.01 188.167 139.746ZM199.043 140.026C198.067 140.026 197.215 139.835 196.486 139.443C195.757 139.05 195.186 138.535 194.76 137.873C194.356 137.189 194.087 136.393 194.008 135.53C193.93 134.633 194.02 133.702 194.311 132.693C194.681 131.381 195.309 130.193 196.184 129.094C197.058 128.006 198.09 127.132 199.278 126.481C200.444 125.82 201.644 125.495 202.9 125.495C204.212 125.483 205.232 125.809 206.028 126.481C206.824 127.143 207.373 128.017 207.643 129.127C207.934 130.204 207.912 131.381 207.598 132.671C207.553 132.805 207.519 132.951 207.486 133.097C207.452 133.22 207.418 133.332 207.373 133.399C203.561 133.399 199.76 133.399 195.937 133.388C195.746 134.397 195.757 135.305 195.982 136.079C196.228 136.864 196.666 137.481 197.26 137.94C197.877 138.4 198.628 138.613 199.491 138.624C200.377 138.613 201.263 138.378 202.171 137.907C203.079 137.458 203.797 136.83 204.301 136.079C204.783 136.225 205.254 136.359 205.725 136.528C205.266 137.178 204.694 137.772 203.987 138.322C203.27 138.86 202.496 139.286 201.633 139.589C200.792 139.88 199.928 140.026 199.043 140.026ZM196.251 132.088C199.536 132.076 202.821 132.076 206.095 132.088C206.297 131.045 206.263 130.159 206.006 129.385C205.77 128.612 205.333 128.017 204.727 127.58C204.133 127.132 203.404 126.919 202.552 126.919C201.7 126.919 200.848 127.143 200.029 127.58C199.188 128.017 198.437 128.623 197.776 129.408C197.103 130.181 196.598 131.078 196.251 132.088ZM218.16 139.757C219.572 133.377 220.985 127.008 222.376 120.64C226.244 120.651 230.101 120.651 233.958 120.64C233.857 121.2 233.756 121.739 233.644 122.299C230.359 122.31 227.062 122.31 223.766 122.31C223.25 124.654 222.746 126.997 222.241 129.34C225.078 129.34 227.892 129.329 230.717 129.34C230.617 129.856 230.527 130.361 230.415 130.888C227.589 130.899 224.741 130.888 221.893 130.899C221.266 133.837 220.615 136.797 219.987 139.757C219.382 139.746 218.776 139.757 218.16 139.757ZM232.971 139.746C233.083 139.129 233.24 138.523 233.465 137.907C233.678 137.29 233.991 136.673 234.395 136.068C234.81 135.451 235.337 134.868 236.01 134.308C236.671 133.736 237.512 133.198 238.521 132.704C239.071 132.424 239.631 132.177 240.181 131.908C240.764 131.65 241.302 131.37 241.829 131.056C242.345 130.742 242.793 130.383 243.118 129.968C243.477 129.565 243.69 129.071 243.791 128.533C243.87 128.085 243.802 127.636 243.634 127.199C243.466 126.784 243.141 126.425 242.692 126.167C242.255 125.887 241.672 125.764 240.921 125.753C240.383 125.753 239.889 125.842 239.429 125.999C238.947 126.167 238.532 126.369 238.151 126.605C237.77 126.851 237.445 127.087 237.165 127.333C236.895 127.569 236.649 127.771 236.469 127.928C236.189 127.502 235.898 127.098 235.617 126.661C235.718 126.571 235.942 126.38 236.279 126.111C236.638 125.82 237.064 125.528 237.568 125.226C238.095 124.912 238.678 124.643 239.34 124.441C240.024 124.216 240.741 124.104 241.481 124.104C242.502 124.104 243.331 124.306 243.993 124.71C244.666 125.08 245.137 125.584 245.428 126.235C245.708 126.874 245.787 127.58 245.664 128.331C245.551 129.083 245.305 129.71 244.901 130.237C244.542 130.764 244.083 131.235 243.533 131.628C243.017 131.998 242.468 132.334 241.919 132.626C241.38 132.895 240.887 133.119 240.439 133.31C239.575 133.702 238.835 134.095 238.207 134.509C237.591 134.902 237.075 135.305 236.671 135.709C236.279 136.102 235.954 136.494 235.696 136.898C235.46 137.268 235.258 137.66 235.113 138.075C238.207 138.075 241.313 138.075 244.408 138.075C244.318 138.624 244.24 139.196 244.139 139.746C240.427 139.757 236.694 139.757 232.971 139.746ZM261.641 138.075C261.585 138.636 261.518 139.196 261.439 139.757C257.313 139.757 253.176 139.757 249.038 139.757C249.969 133.388 250.9 127.008 251.83 120.64C255.699 120.651 259.589 120.64 263.469 120.651C263.401 121.189 263.334 121.75 263.267 122.31C259.959 122.299 256.652 122.299 253.344 122.31C253.019 124.609 252.694 126.896 252.357 129.206C255.284 129.206 258.221 129.206 261.148 129.206C261.103 129.722 261.036 130.249 260.968 130.787C258.019 130.776 255.082 130.776 252.133 130.787C251.785 133.22 251.438 135.653 251.09 138.086C254.611 138.075 258.12 138.086 261.641 138.075ZM279.424 127.804C278.46 127.042 276.475 125.831 275.04 124.99C274.804 125.293 274.569 125.607 274.322 125.91C275.769 126.807 277.686 128.085 278.661 128.847C278.919 128.488 279.177 128.152 279.424 127.804ZM274.726 141.326C276.419 138.905 278.617 135.362 280.197 132.536C279.917 132.244 279.637 131.964 279.357 131.695C277.686 134.722 275.309 138.411 273.706 140.474C274.064 140.766 274.401 141.035 274.726 141.326ZM276.161 118.577C277.663 119.462 279.626 120.785 280.624 121.593C280.893 121.223 281.139 120.886 281.408 120.539C280.366 119.72 278.392 118.487 276.901 117.691C276.643 117.971 276.408 118.263 276.161 118.577ZM293.406 139.308C290.042 139.308 286.656 139.308 283.258 139.308C283.415 137.111 283.561 134.924 283.685 132.76C287.015 132.76 290.356 132.76 293.675 132.749C293.596 134.924 293.507 137.122 293.406 139.308ZM296.96 126.47C296.982 126.066 296.994 125.652 297.005 125.237C294.594 125.237 292.183 125.248 289.784 125.237C289.885 123.476 289.963 121.716 290.064 119.945C292.329 119.541 294.493 119.059 296.097 118.487C295.783 118.151 295.48 117.814 295.166 117.489C292.385 118.487 287.127 119.317 282.743 119.832C282.855 120.124 282.956 120.617 283.012 120.909C284.929 120.685 286.925 120.472 288.898 120.158C288.809 121.839 288.708 123.533 288.618 125.237C286.106 125.237 283.595 125.237 281.072 125.237C281.05 125.64 281.016 126.055 280.982 126.47C283.516 126.481 286.039 126.47 288.551 126.47C288.461 128.163 288.371 129.845 288.282 131.549C286.375 131.549 284.481 131.549 282.586 131.538C282.361 134.924 282.126 138.31 281.891 141.708C282.294 141.719 282.709 141.708 283.101 141.708C283.135 141.315 283.158 140.923 283.18 140.519C286.577 140.519 289.975 140.53 293.361 140.519C293.35 140.867 293.338 141.203 293.327 141.551C293.72 141.551 294.123 141.54 294.527 141.54C294.65 138.209 294.773 134.868 294.886 131.538C293.08 131.538 291.264 131.549 289.459 131.549C289.537 129.845 289.627 128.152 289.717 126.47C292.127 126.47 294.549 126.47 296.96 126.47ZM302.488 131.942C302.51 131.146 302.532 130.338 302.532 129.531C303.833 129.52 305.134 129.52 306.423 129.52C306.423 130.338 306.423 131.146 306.401 131.953C305.1 131.953 303.799 131.953 302.488 131.942ZM302.611 126.167C303.9 126.156 305.19 126.156 306.457 126.156C306.457 126.93 306.457 127.703 306.446 128.488C305.156 128.5 303.855 128.5 302.555 128.488C302.577 127.703 302.588 126.93 302.611 126.167ZM311.659 126.156C311.67 126.93 311.67 127.715 311.659 128.5C310.325 128.5 308.968 128.488 307.6 128.488C307.623 127.703 307.623 126.941 307.623 126.156C308.98 126.167 310.314 126.156 311.659 126.156ZM311.67 131.953C310.303 131.953 308.946 131.953 307.578 131.953C307.6 131.134 307.6 130.327 307.6 129.52C308.968 129.52 310.314 129.52 311.659 129.531C311.67 130.338 311.682 131.134 311.67 131.953ZM322.928 123.746C321.111 123.734 319.295 123.746 317.467 123.746C317.478 121.75 317.49 119.709 317.445 117.59C317.075 117.601 316.694 117.601 316.312 117.59C316.324 119.709 316.357 121.75 316.312 123.746C315.191 123.746 314.081 123.746 312.96 123.746C312.96 124.138 312.971 124.542 312.971 124.945C314.081 124.945 315.191 124.945 316.301 124.945C316.122 130.237 315.438 134.947 312.994 138.344C313.005 138.243 312.994 138.142 312.982 138.041C311.166 138.266 309.305 138.501 307.533 138.703C307.544 137.817 307.556 136.942 307.556 136.068C309.316 136.068 311.065 136.057 312.814 136.068C312.814 135.687 312.825 135.317 312.814 134.947C311.065 134.947 309.316 134.947 307.567 134.947C307.567 134.296 307.578 133.624 307.578 132.973C309.316 132.973 311.043 132.962 312.78 132.962C312.769 130.35 312.747 127.715 312.736 125.113C311.031 125.102 309.338 125.113 307.634 125.102C307.645 124.418 307.645 123.723 307.656 123.039C309.518 123.028 311.39 123.039 313.251 123.039C313.251 122.658 313.251 122.299 313.251 121.94C311.39 121.94 309.529 121.929 307.668 121.94C307.668 121.144 307.679 120.348 307.679 119.563C309.596 119.317 311.368 119.048 312.713 118.7C312.489 118.375 312.242 118.027 312.018 117.702C309.551 118.33 304.932 118.778 301.31 119.036C301.422 119.305 301.557 119.754 301.602 120.045C303.138 119.967 304.876 119.866 306.535 119.675C306.535 120.415 306.524 121.167 306.502 121.94C304.629 121.929 302.745 121.94 300.862 121.94C300.851 122.299 300.851 122.658 300.828 123.039C302.723 123.028 304.618 123.039 306.502 123.039C306.49 123.734 306.479 124.407 306.468 125.113C304.842 125.113 303.194 125.113 301.546 125.102C301.501 127.715 301.434 130.35 301.378 132.962C303.048 132.962 304.719 132.962 306.389 132.973C306.378 133.624 306.378 134.296 306.367 134.947C304.674 134.947 302.981 134.947 301.277 134.947C301.277 135.317 301.277 135.687 301.254 136.057C302.958 136.057 304.663 136.068 306.367 136.068C306.356 136.987 306.345 137.907 306.333 138.837C304.125 139.095 302.073 139.308 300.481 139.488C300.548 139.88 300.604 140.295 300.649 140.699C303.743 140.306 308.094 139.779 312.298 139.23C311.76 139.846 311.099 140.418 310.392 140.934C310.729 141.113 311.2 141.528 311.413 141.797C316.178 138.232 317.243 132.11 317.434 124.945C318.88 124.956 320.315 124.956 321.75 124.956C321.728 135.451 321.526 139.162 320.876 140.026C320.64 140.317 320.405 140.362 319.945 140.362C319.441 140.362 318.185 140.362 316.839 140.25C317.019 140.609 317.198 141.147 317.209 141.495C318.431 141.573 319.687 141.596 320.36 141.54C321.111 141.495 321.582 141.338 321.963 140.732C322.782 139.645 322.972 135.989 322.95 124.497C322.95 124.239 322.939 123.981 322.928 123.746ZM328.792 134.341C328.623 136.528 328.276 138.905 327.749 140.598C328.04 140.71 328.523 140.923 328.769 141.046C329.263 139.376 329.633 136.842 329.879 134.521C329.532 134.465 329.162 134.408 328.792 134.341ZM331.449 134.476C331.886 136.281 332.29 138.68 332.447 140.25C332.806 140.16 333.142 140.082 333.478 140.026C333.321 138.445 332.851 136.079 332.447 134.263C332.122 134.33 331.785 134.397 331.449 134.476ZM334.252 133.96C334.914 135.619 335.721 137.817 336.091 139.252C336.416 139.151 336.719 139.017 337.044 138.905C336.652 137.514 335.855 135.339 335.16 133.657C334.858 133.747 334.566 133.848 334.252 133.96ZM333.635 127.681C334.05 128.589 334.465 129.576 334.846 130.551C333.075 130.809 331.292 131.09 329.498 131.347C331.494 128.757 333.333 125.394 334.869 122.041C334.51 121.839 334.162 121.649 333.792 121.447C333.288 122.714 332.716 124.015 332.088 125.181C331.045 125.293 330.003 125.394 328.949 125.506C330.317 123.42 331.606 120.595 332.66 117.87C332.301 117.691 331.931 117.511 331.572 117.332C330.597 120.281 328.949 123.432 328.422 124.284C327.94 125.08 327.536 125.708 327.166 125.775C327.334 126.134 327.525 126.728 327.614 127.008C327.883 126.863 328.41 126.728 331.471 126.313C330.541 128.017 329.644 129.385 329.24 129.924C328.567 130.921 328.018 131.639 327.581 131.729C327.727 132.054 327.928 132.704 328.007 132.984C328.399 132.76 329.128 132.57 335.216 131.561C335.418 132.11 335.575 132.592 335.687 133.029C336.024 132.895 336.36 132.749 336.685 132.614C336.293 131.291 335.418 129.06 334.588 127.39C334.275 127.479 333.949 127.591 333.635 127.681ZM338.748 126.694C341.753 126.694 344.758 126.706 347.741 126.694C347.707 126.313 347.673 125.932 347.64 125.573C346.765 125.573 345.857 125.573 344.96 125.562C345.341 124.306 345.711 122.602 346.025 121.212C345.689 121.088 345.33 120.976 344.982 120.853C344.814 122.209 344.377 124.216 344.04 125.573C342.258 125.573 340.475 125.573 338.67 125.573C338.715 125.932 338.737 126.324 338.748 126.694ZM339.499 121.088C340.262 122.355 340.979 124.048 341.282 125.17C341.585 125.035 341.876 124.923 342.179 124.822C341.854 123.712 341.103 122.008 340.329 120.797C340.06 120.886 339.78 120.999 339.499 121.088ZM342.538 135.216C341.977 135.227 341.854 135.014 341.798 134.274C341.731 133.175 341.652 132.099 341.551 131.011C343.603 131.011 345.644 131 347.684 131.011C347.64 130.619 347.617 130.237 347.572 129.867C346.216 129.879 344.87 129.879 343.513 129.867C343.76 129.722 344.007 129.587 344.253 129.43C343.951 128.746 343.267 127.547 342.717 126.728C342.437 126.863 342.157 126.997 341.865 127.12C342.381 127.961 343.031 129.083 343.323 129.879C341.989 129.879 340.654 129.867 339.331 129.867C339.365 130.249 339.387 130.63 339.421 131.011C339.769 131 340.105 131.011 340.452 131C340.531 132.076 340.621 133.175 340.688 134.251C340.811 135.754 341.204 136.292 342.605 136.303C343.962 136.303 345.33 136.303 346.687 136.303C347.348 136.303 348.032 136.303 348.357 136.202C348.267 135.922 348.178 135.474 348.133 135.115C347.718 135.227 346.989 135.227 346.541 135.216C345.218 135.216 343.872 135.227 342.538 135.216ZM348.705 118.666C344.601 118.678 340.486 118.678 336.36 118.678C336.842 126.358 337.347 134.061 337.851 141.764C338.244 141.764 338.636 141.764 339.017 141.764C338.513 134.476 338.031 127.165 337.549 119.877C340.935 119.889 344.321 119.889 347.707 119.889C348.324 126.582 348.94 133.298 349.557 140.026C349.602 140.362 349.49 140.474 349.164 140.497C348.828 140.508 347.729 140.519 346.496 140.463C346.687 140.844 346.9 141.394 347.001 141.708C348.548 141.73 349.602 141.708 350.106 141.506C350.678 141.248 350.824 140.878 350.734 139.981C350.05 132.872 349.366 125.786 348.705 118.666ZM359.491 121.548C359.009 120.46 358.067 118.767 357.181 117.489C356.867 117.635 356.531 117.758 356.195 117.893C357.047 119.171 357.989 120.875 358.437 122.019C358.796 121.862 359.143 121.705 359.491 121.548ZM360.971 124.822C361.05 128.197 360.904 133.209 360.579 136.113C358.459 136.696 356.497 137.223 355.006 137.593C355.174 138.03 355.331 138.445 355.488 138.882C358.067 138.165 361.644 137.144 365.007 136.158C364.918 135.776 364.817 135.373 364.716 134.98C363.673 135.283 362.664 135.541 361.666 135.821C361.947 132.861 362.126 128.365 362.227 125.08C361.812 124.99 361.397 124.912 360.971 124.822ZM355.118 125.405C356.127 128.589 357.136 132.659 357.619 135.418C357.977 135.35 358.325 135.305 358.673 135.249C358.19 132.458 357.148 128.387 356.116 125.226C355.791 125.282 355.455 125.326 355.118 125.405ZM353.862 123.824C357.047 123.813 360.22 123.824 363.393 123.824C363.348 123.42 363.292 123.006 363.225 122.602C360.074 122.613 356.912 122.613 353.739 122.613C353.784 123.006 353.829 123.409 353.862 123.824ZM376.153 139.174C373.215 139.174 370.277 139.185 367.328 139.185C366.981 136.629 366.633 134.072 366.274 131.504C369.167 131.504 372.049 131.516 374.942 131.504C375.345 134.072 375.749 136.617 376.153 139.174ZM376.22 124.519C376.164 124.104 376.096 123.678 376.029 123.275C373.809 123.286 371.589 123.286 369.38 123.286C369.089 121.301 368.82 119.305 368.539 117.332C368.136 117.321 367.732 117.321 367.328 117.321C367.923 121.638 368.528 125.954 369.145 130.271C367.732 130.282 366.331 130.271 364.929 130.282C365.434 134.072 365.938 137.873 366.443 141.674C366.858 141.674 367.272 141.674 367.665 141.674C367.609 141.248 367.564 140.833 367.497 140.418C370.445 140.429 373.406 140.418 376.354 140.418C376.41 140.799 376.466 141.192 376.534 141.573C376.949 141.584 377.375 141.584 377.79 141.584C377.173 137.817 376.567 134.05 375.962 130.282C374.112 130.271 372.251 130.271 370.401 130.282C370.12 128.354 369.829 126.437 369.548 124.519C371.78 124.519 374 124.508 376.22 124.519ZM391.917 119.586C393.532 119.597 395.135 119.597 396.75 119.586C397.12 121.324 397.49 123.05 397.86 124.777C398.218 126.437 398.6 126.975 399.844 126.975C400.461 126.963 401.078 126.963 401.683 126.963C402.12 126.975 402.558 126.93 402.793 126.863C402.67 126.571 402.501 126.022 402.401 125.708C402.143 125.753 401.717 125.809 401.414 125.809C400.82 125.809 400.225 125.809 399.642 125.809C399.25 125.809 399.16 125.596 398.992 124.833C398.532 122.692 398.073 120.539 397.602 118.386C395.258 118.386 392.915 118.386 390.572 118.375C390.773 119.373 390.964 120.359 391.155 121.357C391.536 123.353 391.513 125.708 389.204 127.502C389.439 127.692 389.955 128.174 390.157 128.444C392.68 126.481 392.736 123.678 392.265 121.369C392.164 120.774 392.04 120.169 391.917 119.586ZM385.066 120.651C384.506 119.664 383.441 118.296 382.521 117.22C382.23 117.411 381.938 117.579 381.647 117.769C382.544 118.835 383.62 120.315 384.192 121.29C384.483 121.066 384.764 120.842 385.066 120.651ZM388.845 121.952C385.761 121.963 382.678 121.952 379.572 121.952C379.64 122.344 379.707 122.725 379.763 123.106C382.88 123.118 385.975 123.106 389.069 123.118C388.991 122.725 388.923 122.344 388.845 121.952ZM382.017 130.013C384.472 130.013 386.928 130.002 389.372 130.013C389.305 129.621 389.237 129.251 389.159 128.87C386.726 128.881 384.27 128.881 381.826 128.881C381.893 129.251 381.961 129.621 382.017 130.013ZM381.198 125.405C381.265 125.775 381.333 126.145 381.389 126.515C383.811 126.504 386.232 126.515 388.643 126.515C388.576 126.145 388.509 125.775 388.441 125.405C386.031 125.405 383.609 125.394 381.198 125.405ZM388.879 133.534C389.226 135.305 389.574 137.077 389.899 138.86C388.161 138.849 386.412 138.849 384.663 138.849C384.349 137.088 384.035 135.305 383.71 133.523C385.436 133.534 387.152 133.523 388.879 133.534ZM391.3 140.015C390.807 137.469 390.314 134.924 389.809 132.379C387.331 132.379 384.853 132.368 382.364 132.368C382.902 135.373 383.429 138.366 383.956 141.36C384.338 141.36 384.73 141.371 385.111 141.36C385.033 140.923 384.954 140.474 384.865 140.026C387.017 140.026 389.159 140.015 391.3 140.015ZM400.764 130.54C400.405 132.94 399.384 134.924 397.949 136.516C395.83 134.879 394.059 132.85 392.691 130.54C395.393 130.54 398.073 130.54 400.764 130.54ZM401.257 129.228C401.201 129.251 401.134 129.284 401.066 129.307C397.411 129.307 393.745 129.307 390.078 129.307C390.168 129.71 390.246 130.137 390.325 130.54C391.009 130.54 391.682 130.54 392.366 130.551C392.141 130.641 391.906 130.731 391.67 130.821C393.128 133.343 394.978 135.518 397.164 137.324C395.527 138.86 393.487 139.97 391.368 140.609C391.682 140.878 392.096 141.416 392.298 141.775C394.53 140.979 396.593 139.835 398.263 138.176C400.551 139.802 403.051 140.979 405.809 141.708C405.91 141.326 406.146 140.788 406.359 140.553C403.701 139.936 401.246 138.826 399.059 137.346C400.775 135.395 401.907 132.861 402.165 129.666C401.862 129.497 401.56 129.363 401.257 129.228ZM411.74 120.651C411.113 119.698 409.946 118.319 408.982 117.242C408.713 117.433 408.433 117.612 408.153 117.792C409.117 118.835 410.272 120.326 410.922 121.279C411.202 121.066 411.483 120.853 411.74 120.651ZM416.259 121.963C412.873 121.952 409.498 121.952 406.112 121.952C406.202 122.344 406.291 122.725 406.381 123.118C409.778 123.106 413.176 123.106 416.551 123.118C416.45 122.736 416.36 122.344 416.259 121.963ZM416.932 128.881C414.241 128.881 411.572 128.87 408.893 128.881C408.993 129.24 409.083 129.621 409.173 130.013C411.864 130.013 414.544 130.013 417.235 130.013C417.134 129.621 417.033 129.24 416.932 128.881ZM417.089 133.523C417.571 135.305 418.031 137.077 418.501 138.849C416.584 138.86 414.644 138.849 412.716 138.849C412.29 137.088 411.841 135.305 411.393 133.534C413.31 133.523 415.205 133.523 417.089 133.523ZM417.918 132.379C415.295 132.368 412.649 132.368 410.003 132.379C410.754 135.373 411.483 138.366 412.223 141.36C412.604 141.36 412.974 141.36 413.344 141.371C413.243 140.923 413.131 140.474 413.019 140.015C415.328 140.026 417.649 140.015 419.959 140.026C419.286 137.469 418.614 134.924 417.918 132.379ZM408.309 126.504C411 126.515 413.691 126.515 416.382 126.515C416.281 126.134 416.181 125.775 416.08 125.405C413.4 125.405 410.731 125.405 408.04 125.394C408.141 125.775 408.231 126.134 408.309 126.504ZM429.49 126.851C427.673 126.863 425.834 126.851 423.984 126.863C423.143 123.846 422.302 120.853 421.473 117.837C421.08 117.837 420.688 117.837 420.295 117.837C421.114 120.842 421.944 123.858 422.785 126.863C421.024 126.851 419.253 126.851 417.492 126.851C417.616 127.266 417.728 127.692 417.84 128.13C419.612 128.118 421.372 128.13 423.132 128.13C424.422 132.648 425.711 137.178 426.978 141.719C427.404 141.719 427.819 141.708 428.234 141.719C426.933 137.189 425.644 132.659 424.354 128.13C426.193 128.13 428.032 128.13 429.871 128.13C429.736 127.703 429.624 127.266 429.49 126.851Z" fill="white"/>
<path d="M62.2062 13.8253C62.6635 13.8253 63.1058 13.8178 63.5631 13.8178C63.5031 15.6844 63.4506 17.5586 63.3907 19.4178C64.8375 17.5511 66.2769 15.6919 67.7012 13.8178C68.1585 13.8178 68.6233 13.8253 69.0881 13.8253C67.3564 16.0743 65.6172 18.3083 63.8629 20.5573C63.8779 22.9337 63.9154 25.3176 63.9529 27.6866C67.5738 23.0312 71.1422 18.3682 74.6656 13.7128C75.1829 13.7128 75.7076 13.7128 76.2324 13.7053C72.1992 18.968 68.106 24.2231 63.9604 29.4858C63.5106 29.4858 63.0608 29.4858 62.611 29.4858C62.5585 26.8919 62.521 24.2906 62.506 21.6818C60.3845 24.2906 58.2479 26.8919 56.1189 29.4858C55.6766 29.4858 55.2343 29.4858 54.792 29.4783C54.867 24.2306 54.9869 18.9755 55.1668 13.7053C55.6841 13.7053 56.1939 13.7053 56.7111 13.7128C56.5162 18.3682 56.3663 23.0312 56.2463 27.6791C58.188 25.3176 60.1221 22.9337 62.0488 20.5573C62.1012 18.3158 62.1462 16.0668 62.2062 13.8253ZM76.7947 29.7032C75.985 29.7107 75.2878 29.5457 74.6956 29.2459C74.1184 28.916 73.6686 28.4737 73.3612 27.934C73.0613 27.3642 72.8964 26.7195 72.8739 25.9923C72.8589 25.2727 73.0089 24.493 73.3087 23.6684C73.6985 22.5814 74.2833 21.5918 75.0779 20.6922C75.8876 19.7776 76.7947 19.0654 77.8067 18.5332C78.8188 17.9784 79.8383 17.7085 80.8878 17.7085C81.9674 17.7085 82.7995 17.9859 83.4142 18.5332C84.0439 19.0804 84.4412 19.8076 84.6062 20.7072C84.7861 21.5993 84.6886 22.5814 84.3438 23.6384C84.3063 23.7658 84.2763 23.8783 84.2313 23.9982C84.2014 24.0957 84.1639 24.1856 84.1264 24.2456C80.9553 24.2456 77.7842 24.2381 74.6131 24.2456C74.3882 25.0777 74.3433 25.8049 74.4857 26.4646C74.6431 27.0943 74.9655 27.6116 75.4378 27.9939C75.9325 28.3688 76.5323 28.5562 77.2595 28.5562C77.9941 28.5562 78.7588 28.3613 79.5309 27.9714C80.3256 27.5816 80.9478 27.0793 81.4051 26.4571C81.8024 26.5771 82.1848 26.697 82.5596 26.8245C82.1548 27.3642 81.6375 27.8665 81.0153 28.3013C80.3931 28.7586 79.7184 29.1034 78.9762 29.3508C78.264 29.5907 77.5368 29.7107 76.7947 29.7032ZM74.958 23.1586C77.6868 23.1586 80.4155 23.1511 83.1443 23.1586C83.3692 22.3115 83.3992 21.5693 83.2268 20.9321C83.0694 20.2949 82.7545 19.8001 82.2672 19.4403C81.8024 19.0729 81.2177 18.8855 80.498 18.8855C79.8008 18.8855 79.0811 19.0729 78.3615 19.4403C77.6493 19.7926 76.9896 20.2949 76.3749 20.9546C75.7826 21.5918 75.3103 22.319 74.958 23.1586ZM90.6335 29.7107C89.8238 29.7032 89.1192 29.5457 88.5194 29.2384C87.9272 28.9085 87.4624 28.4737 87.1251 27.934C86.8027 27.3717 86.6003 26.727 86.5478 25.9923C86.5028 25.2727 86.6228 24.4855 86.8777 23.6684C87.215 22.5814 87.7548 21.5918 88.5119 20.6922C89.2766 19.7776 90.1462 19.0579 91.1283 18.5257C92.1253 17.9784 93.1374 17.701 94.1794 17.701C95.2589 17.7085 96.106 17.9859 96.7433 18.5332C97.3955 19.0804 97.8303 19.8076 98.0327 20.7072C98.2576 21.5918 98.2126 22.5739 97.9127 23.6384C97.8827 23.7583 97.8453 23.8783 97.8228 23.9982C97.7853 24.0957 97.7553 24.1781 97.7253 24.2456C94.5542 24.2456 91.3831 24.2456 88.2121 24.2381C88.0246 25.0777 88.0172 25.8124 88.1821 26.4571C88.3695 27.0943 88.7218 27.6041 89.2016 27.9939C89.7114 28.3688 90.3186 28.5487 91.0458 28.5487C91.7805 28.5487 92.5301 28.3613 93.2948 27.9714C94.0669 27.5816 94.6742 27.0793 95.1015 26.4571C95.4913 26.5846 95.8811 26.7045 96.2785 26.817C95.8886 27.3717 95.3939 27.8665 94.8016 28.3088C94.1944 28.7586 93.5272 29.0959 92.8075 29.3583C92.1028 29.5832 91.3757 29.7107 90.6335 29.7107ZM88.4969 23.1511C91.2332 23.1511 93.962 23.1586 96.6908 23.1586C96.8782 22.3115 96.8707 21.5618 96.6683 20.9321C96.4809 20.2874 96.1435 19.7926 95.6337 19.4478C95.1615 19.0654 94.5692 18.878 93.8495 18.8855C93.1449 18.8855 92.4402 19.0654 91.7355 19.4403C91.0383 19.8001 90.3936 20.3024 89.8238 20.9471C89.2616 21.5918 88.8193 22.3265 88.4969 23.1511ZM107.733 29.4858C106.819 27.5067 105.934 25.535 105.05 23.5559C104.06 24.3206 103.07 25.1002 102.081 25.8649C101.766 27.0718 101.444 28.2788 101.121 29.4858C100.634 29.4783 100.139 29.4783 99.6445 29.4783C101.091 24.0732 102.538 18.6756 103.985 13.2705C104.457 13.263 104.922 13.263 105.394 13.2705C104.427 16.9214 103.468 20.5797 102.508 24.2381C105.132 22.1465 107.741 20.04 110.32 17.9259C110.852 17.9259 111.369 17.9259 111.894 17.9259C110.02 19.5152 108.146 21.0895 106.249 22.6638C107.261 24.9353 108.296 27.2143 109.33 29.4858C108.798 29.4783 108.258 29.4858 107.733 29.4858ZM128.746 27.7391C128.649 28.3238 128.537 28.901 128.439 29.4858C125.328 29.4783 122.217 29.4858 119.098 29.4858C119.218 28.9085 119.346 28.3238 119.458 27.7391C120.755 27.7391 122.052 27.7316 123.356 27.7316C124.114 23.7208 124.878 19.6876 125.635 15.6545C125.455 15.8868 125.171 16.1267 124.788 16.3891C124.391 16.659 123.956 16.8989 123.476 17.1238C123.004 17.3562 122.554 17.5361 122.097 17.6935C121.64 17.836 121.242 17.9184 120.882 17.9184C121.01 17.3037 121.137 16.674 121.265 16.0518C121.67 16.0593 122.127 15.9243 122.659 15.6919C123.184 15.4445 123.686 15.1597 124.196 14.8373C124.691 14.5225 125.111 14.2226 125.47 13.9377C125.823 13.6603 126.025 13.4729 126.078 13.368C126.685 13.368 127.3 13.3755 127.907 13.3755C127.022 18.1658 126.145 22.9562 125.268 27.7316C126.43 27.7391 127.584 27.7316 128.746 27.7391Z" fill="#A18CFF"/>
</svg>
