<svg width="145" height="32" viewBox="0 0 145 32" fill="none" xmlns="http://www.w3.org/2000/svg">
<g clip-path="url(#clip0_397_759)">
<path d="M6.17867 5.98657H19.471C20.2341 5.98657 20.9898 6.14059 21.6947 6.43981C22.3997 6.73903 23.04 7.17758 23.5792 7.73036C24.1183 8.28315 24.5456 8.9393 24.8366 9.66129C25.1277 10.3833 25.2767 11.1569 25.2753 11.9379V25.4389C25.2753 26.219 25.1252 26.9914 24.8335 27.7121C24.5418 28.4328 24.1142 29.0876 23.5752 29.6392C23.0363 30.1907 22.3964 30.6283 21.6922 30.9268C20.988 31.2253 20.2332 31.3789 19.471 31.3789H6.17867C4.63825 31.3789 3.16076 30.7535 2.07048 29.6398C0.980201 28.5262 0.366215 27.0154 0.363281 25.4389V11.9379C0.363281 10.3595 0.975972 8.84577 2.06657 7.72968C3.15716 6.61359 4.63633 5.98657 6.17867 5.98657V5.98657Z" fill="url(#paint0_linear_397_759)"/>
<path d="M4.05215 28.681C3.93243 28.6556 3.82492 28.5887 3.74774 28.4917C3.67056 28.3946 3.62842 28.2733 3.62842 28.1482C3.62842 28.0231 3.67056 27.9018 3.74774 27.8047C3.82492 27.7077 3.93243 27.6408 4.05215 27.6154H8.69338C8.8131 27.6408 8.9206 27.7077 8.99778 27.8047C9.07496 27.9018 9.1171 28.0231 9.1171 28.1482C9.1171 28.2733 9.07496 28.3946 8.99778 28.4917C8.9206 28.5887 8.8131 28.6556 8.69338 28.681H4.05215ZM10.4435 28.681C10.3238 28.6556 10.2163 28.5887 10.1391 28.4917C10.0619 28.3946 10.0198 28.2733 10.0198 28.1482C10.0198 28.0231 10.0619 27.9018 10.1391 27.8047C10.2163 27.7077 10.3238 27.6408 10.4435 27.6154H15.0848C15.2045 27.6408 15.312 27.7077 15.3892 27.8047C15.4663 27.9018 15.5085 28.0231 15.5085 28.1482C15.5085 28.2733 15.4663 28.3946 15.3892 28.4917C15.312 28.5887 15.2045 28.6556 15.0848 28.681H10.4435ZM16.8349 28.681C16.7152 28.6556 16.6077 28.5887 16.5305 28.4917C16.4533 28.3946 16.4112 28.2733 16.4112 28.1482C16.4112 28.0231 16.4533 27.9018 16.5305 27.8047C16.6077 27.7077 16.7152 27.6408 16.8349 27.6154H21.4318C21.5516 27.6408 21.6591 27.7077 21.7362 27.8047C21.8134 27.9018 21.8556 28.0231 21.8556 28.1482C21.8556 28.2733 21.8134 28.3946 21.7362 28.4917C21.6591 28.5887 21.5516 28.6556 21.4318 28.681H16.8349ZM6.3783 24.5321L7.25338 23.6365C7.32896 23.5656 7.42777 23.5263 7.5303 23.5263C7.63283 23.5263 7.73164 23.5656 7.80722 23.6365V23.6365C7.87858 23.7128 7.91828 23.8144 7.91799 23.9199C7.91657 24.0218 7.87691 24.1192 7.80722 24.192L6.90999 25.1215L7.78507 26.0171C7.82191 26.054 7.85118 26.0981 7.87116 26.1468C7.89114 26.1954 7.90143 26.2477 7.90143 26.3005C7.90143 26.3532 7.89114 26.4055 7.87116 26.4542C7.85118 26.5028 7.82191 26.5469 7.78507 26.5839V26.5839C7.74897 26.6216 7.70589 26.6515 7.65833 26.672C7.61078 26.6924 7.55972 26.7029 7.50815 26.7029C7.45657 26.7029 7.40551 26.6924 7.35796 26.672C7.31041 26.6515 7.26732 26.6216 7.23122 26.5839L6.35615 25.6883L5.50322 26.5725C5.46788 26.6109 5.4248 26.6409 5.37698 26.6605C5.32915 26.68 5.27773 26.6887 5.2263 26.6859C5.17661 26.6878 5.1271 26.6787 5.0812 26.6591C5.0353 26.6395 4.9941 26.61 4.96045 26.5725C4.89118 26.4952 4.85275 26.3941 4.85275 26.2891C4.85275 26.1842 4.89118 26.0831 4.96045 26.0057L5.8023 25.1215L4.92722 24.226C4.85753 24.1532 4.81787 24.0558 4.81645 23.9539C4.81617 23.8484 4.85587 23.7468 4.92722 23.6705V23.6705C4.99833 23.5992 5.09352 23.5586 5.19307 23.5572C5.29623 23.5569 5.39549 23.5975 5.46999 23.6705L6.3783 24.5321Z" fill="white"/>
<path d="M13.4673 13.5363L17.167 11.1444L15.9485 5.98657H6.17866C4.63633 5.98657 3.15716 6.61359 2.06657 7.72968C0.975972 8.84577 0.363281 10.3595 0.363281 11.9379V13.4002L12.2931 25.6656H13.279L13.4673 13.5363Z" fill="url(#paint1_linear_397_759)"/>
<path d="M6.81006 13.5249C6.81052 14.7484 7.11957 15.951 7.70729 17.0164L12.1934 25.1555V25.2236C12.1395 25.232 12.0909 25.2615 12.0578 25.3059C12.0248 25.3503 12.0098 25.4062 12.0162 25.4616C12.0218 25.5197 12.0492 25.5734 12.0925 25.6114C12.1358 25.6494 12.1918 25.6689 12.2488 25.6657C12.3037 25.66 12.3545 25.6337 12.3913 25.5917C12.4282 25.5498 12.4485 25.4953 12.4482 25.4389V13.1622C11.95 13.0943 11.4955 12.8353 11.1768 12.4375C10.858 12.0398 10.6988 11.533 10.7313 11.0197C10.7704 10.4975 11.0012 10.0097 11.3772 9.65439C11.7532 9.29905 12.2466 9.1024 12.7584 9.10394V5.98657H6.81006V13.5249Z" fill="#BDC7CE"/>
<path d="M12.7583 9.10394C13.272 9.09953 13.7682 9.29488 14.1465 9.65051C14.5249 10.0061 14.7572 10.4955 14.7965 11.0197C14.8282 11.5382 14.6644 12.0494 14.3388 12.448C14.0132 12.8466 13.5506 13.1022 13.0463 13.1622V25.4389C13.0575 25.489 13.0849 25.5338 13.1241 25.5658C13.1634 25.5978 13.2121 25.6153 13.2623 25.6153C13.3125 25.6153 13.3612 25.5978 13.4005 25.5658C13.4397 25.5338 13.4671 25.489 13.4783 25.4389C13.483 25.4113 13.4821 25.3829 13.4756 25.3556C13.469 25.3283 13.4571 25.3027 13.4405 25.2803C13.4238 25.258 13.4029 25.2394 13.3789 25.2257C13.3549 25.212 13.3284 25.2036 13.3011 25.2009V25.1329L17.7318 16.9937C18.3196 15.9283 18.6286 14.7257 18.6291 13.5023V5.98657H12.7583V9.10394Z" fill="white"/>
<path d="M127.925 10.5776V12.2326C126.823 11.1828 125.377 10.5925 123.871 10.5776C123.047 10.5431 122.226 10.7115 121.478 11.0685C120.731 11.4255 120.077 11.9607 119.573 12.6294C118.447 14.1483 117.892 16.0316 118.011 17.9346C117.878 19.8313 118.369 21.7192 119.407 23.2964C119.877 23.9438 120.496 24.4618 121.209 24.804C121.923 25.1463 122.708 25.3021 123.495 25.2575C124.348 25.267 125.193 25.077 125.965 24.7021C126.686 24.3597 127.348 23.9003 127.925 23.3418V25.4389C127.974 25.9569 127.919 26.4796 127.763 26.9748C127.606 27.47 127.353 27.9272 127.017 28.3182C126.172 28.9758 125.117 29.2871 124.059 29.1911H113.237V31.1749H124.059C126.275 31.1749 127.914 30.6874 128.889 29.7125C129.42 29.098 129.822 28.3784 130.069 27.5984C130.317 26.8184 130.405 25.9946 130.329 25.1782V10.5776H127.925ZM127.925 21.1426C126.897 22.2922 125.469 22.9839 123.949 23.0697C123.443 23.1006 122.939 22.9967 122.484 22.7682C122.03 22.5397 121.642 22.1944 121.357 21.7661C120.672 20.6008 120.366 19.2436 120.482 17.8892C120.397 16.5907 120.723 15.2988 121.412 14.2051C121.707 13.7368 122.117 13.3561 122.601 13.1014C123.085 12.8467 123.626 12.7269 124.17 12.7541C125.568 12.821 126.898 13.3911 127.925 14.3638V21.1426Z" fill="black"/>
<path d="M51.4724 11.9379C50.4407 11.8545 49.4071 12.0723 48.4915 12.5659C47.5759 13.0595 46.8158 13.8087 46.2995 14.7265C45.6058 16.1303 45.2633 17.6883 45.3025 19.2609C45.1675 21.227 45.7256 23.1776 46.8755 24.7588C47.4653 25.387 48.1827 25.875 48.977 26.1884C49.7713 26.5018 50.6231 26.6329 51.4724 26.5725C52.3252 26.6325 53.1805 26.4991 53.977 26.1816C54.7736 25.8642 55.4918 25.3706 56.0804 24.7361C57.2285 23.154 57.7863 21.2041 57.6533 19.2382C57.6996 17.6636 57.3527 16.103 56.6453 14.7038C56.1339 13.7841 55.3763 13.033 54.4619 12.539C53.5474 12.045 52.5141 11.8285 51.4835 11.9152M51.4835 25.6883C47.9499 25.6883 46.1887 23.4211 46.1887 19.2495C46.1453 17.8616 46.4343 16.484 47.0305 15.2366C47.4703 14.445 48.1193 13.7964 48.9031 13.3653C49.6868 12.9341 50.5735 12.738 51.4613 12.7994C52.3498 12.7325 53.2386 12.9263 54.0234 13.3579C54.8081 13.7896 55.4564 14.4413 55.8921 15.2366C56.4995 16.4888 56.7962 17.8748 56.7561 19.2722C56.7561 23.4665 54.9838 25.711 51.4613 25.711" fill="black"/>
<path d="M59.6357 8.9679H58.7495V19.703C58.7495 24.6681 59.0818 24.7021 59.7354 25.4616C60.0984 25.8511 60.5404 26.1544 61.0304 26.3502C61.5203 26.5461 62.0462 26.6297 62.5711 26.5952H62.7594V25.6996H62.5711C60.6104 25.6996 59.6246 24.5661 59.6246 22.1742V12.7994H62.7594V11.9039H59.6357V8.9679Z" fill="black"/>
<path d="M65.2965 22.1742V12.7994H68.4202V11.9039H65.2965V8.9679H64.4214V19.703C64.4214 24.6681 64.7537 24.7021 65.4072 25.4616C65.7716 25.8492 66.2139 26.1513 66.7035 26.347C67.193 26.5427 67.7183 26.6274 68.2429 26.5952H68.4202V25.6996H68.2429C66.2823 25.6996 65.2965 24.5661 65.2965 22.1742" fill="black"/>
<path d="M109.804 16.5856C109.164 16.1301 108.457 15.7818 107.71 15.554C106.924 15.2933 106.093 15.0439 105.229 14.8059L103.279 14.2731C102.77 14.1351 102.279 13.9333 101.817 13.6723C101.426 13.4693 101.102 13.1519 100.887 12.7604C100.672 12.3689 100.576 11.9209 100.61 11.4731C100.597 11.038 100.684 10.6059 100.865 10.212C101.046 9.81804 101.315 9.47335 101.651 9.20595C102.503 8.59136 103.535 8.29156 104.575 8.35576C105.541 8.31693 106.498 8.56073 107.333 9.05859C108.085 9.56072 108.711 10.2363 109.161 11.031L111.199 9.5687C110.595 8.52911 109.751 7.65719 108.74 7.02947C107.468 6.31292 106.026 5.97153 104.575 6.04324C102.805 5.90185 101.046 6.44372 99.6461 7.56225C99.0969 8.09216 98.6661 8.73723 98.3832 9.45331C98.1002 10.1694 97.9718 10.9396 98.0067 11.7112C97.9738 12.5654 98.1489 13.4146 98.5162 14.1824C98.8704 14.7995 99.3642 15.3205 99.9562 15.7014C100.612 16.1251 101.325 16.4496 102.072 16.665C102.892 16.9257 103.767 17.1637 104.697 17.4018C105.273 17.5492 105.805 17.7079 106.348 17.8779C106.845 18.0268 107.319 18.2482 107.754 18.5354C108.151 18.7896 108.487 19.1302 108.74 19.5329C109.006 19.9708 109.137 20.4802 109.117 20.9953C109.133 21.4643 109.034 21.9299 108.828 22.3497C108.623 22.7695 108.319 23.13 107.943 23.3985C106.579 24.232 104.948 24.4817 103.406 24.0934C101.863 23.705 100.532 22.71 99.7014 21.324L97.6079 22.7523C98.2588 23.983 99.2436 24.9947 100.444 25.6656C101.795 26.3349 103.285 26.6578 104.786 26.6065C106.62 26.7294 108.438 26.1921 109.925 25.0875C110.518 24.5565 110.987 23.8954 111.296 23.1535C111.604 22.4117 111.746 21.6081 111.709 20.8026C111.742 19.9143 111.563 19.0311 111.188 18.2293C110.863 17.5714 110.384 17.0066 109.793 16.5856" fill="black"/>
<path d="M115.984 11.9152H113.591V26.6065H115.984V11.9152Z" fill="black"/>
<path d="M114.788 6.03191C114.366 5.99361 113.944 6.11455 113.603 6.37199C113.468 6.52416 113.367 6.70403 113.306 6.89954C113.245 7.09506 113.225 7.30169 113.248 7.50558C113.226 7.70772 113.243 7.91251 113.3 8.10742C113.358 8.30233 113.453 8.48327 113.581 8.63917C113.745 8.78483 113.937 8.89424 114.145 8.96055C114.353 9.02686 114.572 9.04866 114.788 9.02459C115.209 9.05854 115.629 8.95108 115.984 8.71852C116.123 8.56829 116.228 8.38929 116.293 8.19369C116.358 7.99809 116.381 7.79047 116.361 7.58493C116.384 7.38014 116.364 7.17261 116.301 6.97682C116.237 6.78103 116.133 6.6017 115.996 6.45134C115.648 6.18947 115.218 6.06835 114.788 6.11126" fill="black"/>
<path d="M143.156 13.1622C142.767 12.7254 142.285 12.3866 141.747 12.1723C141.208 11.9579 140.629 11.8738 140.054 11.9266C139.096 11.9417 138.158 12.2196 137.34 12.7314C136.518 13.1721 135.729 13.6761 134.981 14.2391V11.9719H132.588V26.5725H134.981V16.3702C135.69 15.8488 136.532 15.452 137.34 14.9759C137.985 14.5635 138.72 14.322 139.478 14.2731C139.957 14.239 140.434 14.3493 140.852 14.5905C141.195 14.8382 141.439 15.2046 141.539 15.6221C141.716 16.559 141.787 17.5138 141.749 18.4674V26.5725H144.142V17.3225C144.272 15.8607 143.921 14.3962 143.145 13.1622" fill="black"/>
<path d="M75.3543 11.5185C74.3248 11.4329 73.2928 11.6473 72.3774 12.1367C71.462 12.6262 70.7006 13.3708 70.1813 14.2844C69.4877 15.6882 69.1452 17.2462 69.1844 18.8188V19.2722C69.0511 21.2347 69.6091 23.1811 70.7573 24.7588C71.3485 25.3851 72.0661 25.8719 72.8601 26.1852C73.654 26.4984 74.5052 26.6306 75.3543 26.5725C76.2134 26.6438 77.0774 26.5191 77.8838 26.2075C78.6902 25.8958 79.419 25.4049 80.0176 24.7701C80.8542 23.6539 81.3477 22.3084 81.4355 20.9046H80.5493C80.1284 24.0446 78.4004 25.6996 75.3653 25.6996C71.8318 25.6996 70.0706 23.4325 70.0706 19.2835H81.5241V18.8301C81.5685 17.257 81.2257 15.6978 80.5272 14.2958C80.0089 13.3812 79.2477 12.6358 78.3321 12.1462C77.4164 11.6566 76.3839 11.4429 75.3543 11.5298M70.0484 18.388C70.0657 17.0059 70.4485 15.6544 71.1561 14.4771C71.6646 13.8272 72.3094 13.3025 73.0428 12.942C73.7762 12.5814 74.5794 12.3942 75.393 12.3942C76.2066 12.3942 77.0098 12.5814 77.7432 12.942C78.4766 13.3025 79.1214 13.8272 79.6299 14.4771C80.3325 15.6567 80.7149 17.0068 80.7376 18.388H70.0484Z" fill="black"/>
<path d="M97.8074 25.711C95.8468 25.711 94.872 24.5774 94.872 22.1855V6.03192H91.7483V6.92746H93.9637V15.0099C93.9637 14.9192 93.8751 14.8172 93.8308 14.7379C93.3165 13.8182 92.5568 13.0674 91.6407 12.5736C90.7245 12.0797 89.6899 11.8631 88.6579 11.9492C87.6273 11.8626 86.5939 12.079 85.6795 12.573C84.765 13.0671 84.0075 13.8181 83.496 14.7379C82.7863 16.1361 82.4393 17.6974 82.488 19.2722C82.3609 21.2375 82.9181 23.1854 84.0609 24.7701C85.3196 25.9435 86.9608 26.5938 88.6634 26.5938C90.366 26.5938 92.0072 25.9435 93.2659 24.7701C93.6067 24.3568 93.8866 23.8947 94.0966 23.3985C94.097 23.7831 94.176 24.1633 94.3286 24.5147C94.4812 24.8661 94.7041 25.181 94.9828 25.4389C95.3454 25.829 95.7873 26.1328 96.2774 26.3287C96.7674 26.5246 97.2935 26.6078 97.8185 26.5725H97.9957V25.677L97.8074 25.711ZM88.68 25.711C85.1575 25.711 83.3852 23.4438 83.3852 19.2722C83.3417 17.8758 83.6346 16.4898 84.2382 15.2367C84.7266 14.4932 85.3862 13.884 86.1589 13.4628C86.9315 13.0416 87.7935 12.8213 88.6689 12.8213C89.5444 12.8213 90.4064 13.0416 91.179 13.4628C91.9517 13.884 92.6113 14.4932 93.0997 15.2367C93.6941 16.4806 93.9831 17.8541 93.9416 19.2382C93.9416 23.4325 92.1803 25.677 88.6468 25.677" fill="black"/>
<path d="M35.7099 6.03192H29.1523V23.3531C29.1523 24.6908 29.1523 25.745 29.1523 26.5952H36.2305C37.4423 26.638 38.6485 26.4084 39.7642 25.9227C40.8799 25.437 41.878 24.7069 42.6883 23.7839C44.3167 21.9021 44.5936 19.3176 44.5936 16.2682C44.6369 13.5673 43.7152 10.9431 42.0016 8.88856C41.2208 7.97047 40.2528 7.23884 39.1657 6.74526C38.0786 6.25169 36.8989 6.00818 35.7099 6.03192M42.356 22.7863C41.6427 23.7385 40.7154 24.5005 39.6529 25.0077C38.5903 25.5148 37.4239 25.7522 36.2527 25.6997H30.0385V6.91612H35.3887C36.4838 6.86199 37.5771 7.0565 38.5902 7.4857C39.6033 7.91491 40.511 8.56818 41.2483 9.39867C42.8817 11.2936 43.7698 13.7415 43.7407 16.2682C43.7407 18.8188 43.641 21.0633 42.345 22.7863" fill="black"/>
</g>
<defs>
<linearGradient id="paint0_linear_397_759" x1="20.2242" y1="30.7895" x2="2.09132" y2="2.60069" gradientUnits="userSpaceOnUse">
<stop stop-color="#586AF2"/>
<stop offset="1" stop-color="#3345C7"/>
</linearGradient>
<linearGradient id="paint1_linear_397_759" x1="11.4486" y1="6.46676" x2="11.4486" y2="26.2438" gradientUnits="userSpaceOnUse">
<stop stop-color="#262E52" stop-opacity="0.15"/>
<stop offset="1" stop-color="#111529" stop-opacity="0.15"/>
</linearGradient>
<clipPath id="clip0_397_759">
<rect width="144" height="31" fill="white" transform="translate(0.0351562 0.5)"/>
</clipPath>
</defs>
</svg>
