<svg width="1920" height="215" viewBox="0 0 1920 215" fill="none" xmlns="http://www.w3.org/2000/svg">
<path fill-rule="evenodd" clip-rule="evenodd" d="M1920 185.682L1873.6 156.364C1828.8 127.045 1737.6 68.4091 1646.4 63.5227C1553.6 58.6364 1462.4 107.5 1371.2 136.818C1280 166.136 1188.8 175.909 1097.6 166.136C1006.4 156.364 913.6 127.045 822.4 87.9545C731.2 48.8636 640 0 548.8 0C457.6 0 366.4 48.8636 273.6 58.6364C182.4 68.4091 91.2 39.0909 46.4 24.4318L0 9.77273V215H46.4C91.2 215 182.4 215 273.6 215C366.4 215 457.6 215 548.8 215C640 215 731.2 215 822.4 215C913.6 215 1006.4 215 1097.6 215C1188.8 215 1280 215 1371.2 215C1462.4 215 1553.6 215 1646.4 215C1737.6 215 1828.8 215 1873.6 215H1920V185.682Z" fill="#BDE3FF" fill-opacity="0.5"/>
</svg>
